solid CATIA STL
  facet normal  0.000000e+000  0.000000e+000 -1.000000e+000
    outer loop
      vertex -2.566987e+001 -1.250000e+001  0.000000e+000
      vertex -9.184548e-016 -5.000000e+000  0.000000e+000
      vertex -2.500000e+001 -1.500000e+001  0.000000e+000
    endloop
  endfacet
  facet normal  0.000000e+000  0.000000e+000 -9.999999e-001
    outer loop
      vertex -9.184548e-016 -5.000000e+000  0.000000e+000
      vertex -2.566987e+001 -1.750000e+001  0.000000e+000
      vertex -2.500000e+001 -1.500000e+001  0.000000e+000
    endloop
  endfacet
  facet normal  0.000000e+000  0.000000e+000 -1.000000e+000
    outer loop
      vertex -2.566987e+001 -1.250000e+001  0.000000e+000
      vertex -2.750000e+001 -1.066987e+001  0.000000e+000
      vertex -9.184548e-016 -5.000000e+000  0.000000e+000
    endloop
  endfacet
  facet normal  0.000000e+000  -0.000000e+000 -9.999999e-001
    outer loop
      vertex -3.000000e+001 -2.000000e+001  0.000000e+000
      vertex -2.750000e+001 -1.933013e+001  0.000000e+000
      vertex  2.500000e+001 -1.500000e+001  0.000000e+000
    endloop
  endfacet
  facet normal  -0.000000e+000  0.000000e+000 -1.000000e+000
    outer loop
      vertex -9.184548e-016 -5.000000e+000  0.000000e+000
      vertex  2.750000e+001 -1.066987e+001  0.000000e+000
      vertex  2.566987e+001 -1.250000e+001  0.000000e+000
    endloop
  endfacet
  facet normal  0.000000e+000  0.000000e+000 -1.000000e+000
    outer loop
      vertex  2.750000e+001  1.933013e+001  0.000000e+000
      vertex -2.750000e+001  1.933013e+001  0.000000e+000
      vertex -3.000000e+001  2.000000e+001  0.000000e+000
    endloop
  endfacet
  facet normal  -0.000000e+000  0.000000e+000 -1.000000e+000
    outer loop
      vertex -5.000000e+001  2.500000e+001  0.000000e+000
      vertex  5.000000e+001  2.500000e+001  0.000000e+000
      vertex  3.000000e+001  2.000000e+001  0.000000e+000
    endloop
  endfacet
  facet normal  -0.000000e+000  0.000000e+000 -1.000000e+000
    outer loop
      vertex -5.000000e+001  2.500000e+001  0.000000e+000
      vertex  3.000000e+001  2.000000e+001  0.000000e+000
      vertex  2.750000e+001  1.933013e+001  0.000000e+000
    endloop
  endfacet
  facet normal  0.000000e+000  0.000000e+000 -1.000000e+000
    outer loop
      vertex -5.000000e+001  2.500000e+001  0.000000e+000
      vertex  2.750000e+001  1.933013e+001  0.000000e+000
      vertex -3.000000e+001  2.000000e+001  0.000000e+000
    endloop
  endfacet
  facet normal  -0.000000e+000  0.000000e+000 -1.000000e+000
    outer loop
      vertex -5.000000e+001  2.500000e+001  0.000000e+000
      vertex -3.000000e+001  2.000000e+001  0.000000e+000
      vertex -3.250000e+001  1.933013e+001  0.000000e+000
    endloop
  endfacet
  facet normal  -0.000000e+000  0.000000e+000 -1.000000e+000
    outer loop
      vertex -5.000000e+001  2.500000e+001  0.000000e+000
      vertex -3.250000e+001  1.933013e+001  0.000000e+000
      vertex -3.433013e+001  1.750000e+001  0.000000e+000
    endloop
  endfacet
  facet normal  -0.000000e+000  0.000000e+000 -1.000000e+000
    outer loop
      vertex -5.000000e+001  2.500000e+001  0.000000e+000
      vertex -3.433013e+001  1.750000e+001  0.000000e+000
      vertex -5.000000e+001 -2.500000e+001  0.000000e+000
    endloop
  endfacet
  facet normal  0.000000e+000  0.000000e+000 -1.000000e+000
    outer loop
      vertex -5.000000e+001 -2.500000e+001  0.000000e+000
      vertex -3.433013e+001  1.750000e+001  0.000000e+000
      vertex -3.500000e+001  1.500000e+001  0.000000e+000
    endloop
  endfacet
  facet normal  0.000000e+000  -0.000000e+000 -1.000000e+000
    outer loop
      vertex -5.000000e+001 -2.500000e+001  0.000000e+000
      vertex -3.500000e+001  1.500000e+001  0.000000e+000
      vertex -3.433013e+001  1.250000e+001  0.000000e+000
    endloop
  endfacet
  facet normal  0.000000e+000  -0.000000e+000 -1.000000e+000
    outer loop
      vertex -5.000000e+001 -2.500000e+001  0.000000e+000
      vertex -3.433013e+001  1.250000e+001  0.000000e+000
      vertex -3.250000e+001  1.066987e+001  0.000000e+000
    endloop
  endfacet
  facet normal  0.000000e+000  -0.000000e+000 -1.000000e+000
    outer loop
      vertex -5.000000e+001 -2.500000e+001  0.000000e+000
      vertex -3.250000e+001  1.066987e+001  0.000000e+000
      vertex -3.000000e+001  1.000000e+001  0.000000e+000
    endloop
  endfacet
  facet normal  0.000000e+000  0.000000e+000 -1.000000e+000
    outer loop
      vertex -5.000000e+001 -2.500000e+001  0.000000e+000
      vertex -3.000000e+001  1.000000e+001  0.000000e+000
      vertex -3.250000e+001 -1.066987e+001  0.000000e+000
    endloop
  endfacet
  facet normal  0.000000e+000  0.000000e+000 -9.999999e-001
    outer loop
      vertex -5.000000e+001 -2.500000e+001  0.000000e+000
      vertex -3.250000e+001 -1.066987e+001  0.000000e+000
      vertex -3.433013e+001 -1.250000e+001  0.000000e+000
    endloop
  endfacet
  facet normal  0.000000e+000  0.000000e+000 -1.000000e+000
    outer loop
      vertex -5.000000e+001 -2.500000e+001  0.000000e+000
      vertex -3.433013e+001 -1.250000e+001  0.000000e+000
      vertex -3.500000e+001 -1.500000e+001  0.000000e+000
    endloop
  endfacet
  facet normal  0.000000e+000  -0.000000e+000 -1.000000e+000
    outer loop
      vertex -5.000000e+001 -2.500000e+001  0.000000e+000
      vertex -3.500000e+001 -1.500000e+001  0.000000e+000
      vertex -3.433013e+001 -1.750000e+001  0.000000e+000
    endloop
  endfacet
  facet normal  0.000000e+000  -0.000000e+000 -1.000000e+000
    outer loop
      vertex -5.000000e+001 -2.500000e+001  0.000000e+000
      vertex -3.433013e+001 -1.750000e+001  0.000000e+000
      vertex -3.250000e+001 -1.933013e+001  0.000000e+000
    endloop
  endfacet
  facet normal  0.000000e+000  -0.000000e+000 -1.000000e+000
    outer loop
      vertex -5.000000e+001 -2.500000e+001  0.000000e+000
      vertex -3.250000e+001 -1.933013e+001  0.000000e+000
      vertex -3.000000e+001 -2.000000e+001  0.000000e+000
    endloop
  endfacet
  facet normal  0.000000e+000  -0.000000e+000 -1.000000e+000
    outer loop
      vertex -5.000000e+001 -2.500000e+001  0.000000e+000
      vertex -3.000000e+001 -2.000000e+001  0.000000e+000
      vertex  2.500000e+001 -1.500000e+001  0.000000e+000
    endloop
  endfacet
  facet normal  0.000000e+000  -0.000000e+000 -1.000000e+000
    outer loop
      vertex -5.000000e+001 -2.500000e+001  0.000000e+000
      vertex  2.500000e+001 -1.500000e+001  0.000000e+000
      vertex  2.566987e+001 -1.750000e+001  0.000000e+000
    endloop
  endfacet
  facet normal  0.000000e+000  -0.000000e+000 -1.000000e+000
    outer loop
      vertex -5.000000e+001 -2.500000e+001  0.000000e+000
      vertex  2.566987e+001 -1.750000e+001  0.000000e+000
      vertex  2.750000e+001 -1.933013e+001  0.000000e+000
    endloop
  endfacet
  facet normal  0.000000e+000  -0.000000e+000 -1.000000e+000
    outer loop
      vertex -5.000000e+001 -2.500000e+001  0.000000e+000
      vertex  2.750000e+001 -1.933013e+001  0.000000e+000
      vertex  3.000000e+001 -2.000000e+001  0.000000e+000
    endloop
  endfacet
  facet normal  0.000000e+000  -0.000000e+000 -1.000000e+000
    outer loop
      vertex -5.000000e+001 -2.500000e+001  0.000000e+000
      vertex  3.000000e+001 -2.000000e+001  0.000000e+000
      vertex  5.000000e+001 -2.500000e+001  0.000000e+000
    endloop
  endfacet
  facet normal  0.000000e+000  0.000000e+000 -1.000000e+000
    outer loop
      vertex  3.061516e-016  5.000000e+000  0.000000e+000
      vertex -2.500000e+000  4.330127e+000  0.000000e+000
      vertex -3.000000e+001  1.000000e+001  0.000000e+000
    endloop
  endfacet
  facet normal  0.000000e+000  0.000000e+000 -1.000000e+000
    outer loop
      vertex  3.061516e-016  5.000000e+000  0.000000e+000
      vertex -3.000000e+001  1.000000e+001  0.000000e+000
      vertex -2.750000e+001  1.066987e+001  0.000000e+000
    endloop
  endfacet
  facet normal  0.000000e+000  0.000000e+000 -1.000000e+000
    outer loop
      vertex  3.061516e-016  5.000000e+000  0.000000e+000
      vertex -2.750000e+001  1.066987e+001  0.000000e+000
      vertex -2.566987e+001  1.250000e+001  0.000000e+000
    endloop
  endfacet
  facet normal  0.000000e+000  0.000000e+000 -1.000000e+000
    outer loop
      vertex  3.061516e-016  5.000000e+000  0.000000e+000
      vertex -2.566987e+001  1.250000e+001  0.000000e+000
      vertex -2.500000e+001  1.500000e+001  0.000000e+000
    endloop
  endfacet
  facet normal  0.000000e+000  0.000000e+000 -9.999999e-001
    outer loop
      vertex  3.061516e-016  5.000000e+000  0.000000e+000
      vertex -2.500000e+001  1.500000e+001  0.000000e+000
      vertex -2.566987e+001  1.750000e+001  0.000000e+000
    endloop
  endfacet
  facet normal  0.000000e+000  0.000000e+000 -1.000000e+000
    outer loop
      vertex  3.061516e-016  5.000000e+000  0.000000e+000
      vertex -2.566987e+001  1.750000e+001  0.000000e+000
      vertex -2.750000e+001  1.933013e+001  0.000000e+000
    endloop
  endfacet
  facet normal  0.000000e+000  0.000000e+000 -1.000000e+000
    outer loop
      vertex  3.061516e-016  5.000000e+000  0.000000e+000
      vertex -2.750000e+001  1.933013e+001  0.000000e+000
      vertex  2.750000e+001  1.933013e+001  0.000000e+000
    endloop
  endfacet
  facet normal  0.000000e+000  0.000000e+000 -1.000000e+000
    outer loop
      vertex  3.061516e-016  5.000000e+000  0.000000e+000
      vertex  2.750000e+001  1.933013e+001  0.000000e+000
      vertex  2.566987e+001  1.750000e+001  0.000000e+000
    endloop
  endfacet
  facet normal  0.000000e+000  0.000000e+000 -9.999999e-001
    outer loop
      vertex  3.061516e-016  5.000000e+000  0.000000e+000
      vertex  2.566987e+001  1.750000e+001  0.000000e+000
      vertex  2.500000e+001  1.500000e+001  0.000000e+000
    endloop
  endfacet
  facet normal  0.000000e+000  -0.000000e+000 -1.000000e+000
    outer loop
      vertex  3.061516e-016  5.000000e+000  0.000000e+000
      vertex  2.500000e+001  1.500000e+001  0.000000e+000
      vertex  2.566987e+001  1.250000e+001  0.000000e+000
    endloop
  endfacet
  facet normal  0.000000e+000  -0.000000e+000 -1.000000e+000
    outer loop
      vertex  3.061516e-016  5.000000e+000  0.000000e+000
      vertex  2.566987e+001  1.250000e+001  0.000000e+000
      vertex  2.750000e+001  1.066987e+001  0.000000e+000
    endloop
  endfacet
  facet normal  0.000000e+000  -0.000000e+000 -1.000000e+000
    outer loop
      vertex  3.061516e-016  5.000000e+000  0.000000e+000
      vertex  2.750000e+001  1.066987e+001  0.000000e+000
      vertex  3.000000e+001  1.000000e+001  0.000000e+000
    endloop
  endfacet
  facet normal  0.000000e+000  0.000000e+000 -1.000000e+000
    outer loop
      vertex  3.061516e-016  5.000000e+000  0.000000e+000
      vertex  3.000000e+001  1.000000e+001  0.000000e+000
      vertex  2.500000e+000  4.330127e+000  0.000000e+000
    endloop
  endfacet
  facet normal  0.000000e+000  0.000000e+000 -1.000000e+000
    outer loop
      vertex -3.000000e+001 -1.000000e+001  0.000000e+000
      vertex -3.250000e+001 -1.066987e+001  0.000000e+000
      vertex -3.000000e+001  1.000000e+001  0.000000e+000
    endloop
  endfacet
  facet normal  0.000000e+000  0.000000e+000 -1.000000e+000
    outer loop
      vertex -3.000000e+001 -1.000000e+001  0.000000e+000
      vertex -3.000000e+001  1.000000e+001  0.000000e+000
      vertex -2.500000e+000  4.330127e+000  0.000000e+000
    endloop
  endfacet
  facet normal  0.000000e+000  0.000000e+000 -1.000000e+000
    outer loop
      vertex -3.000000e+001 -1.000000e+001  0.000000e+000
      vertex -2.500000e+000  4.330127e+000  0.000000e+000
      vertex -4.330127e+000  2.500000e+000  0.000000e+000
    endloop
  endfacet
  facet normal  0.000000e+000  0.000000e+000 -1.000000e+000
    outer loop
      vertex -3.000000e+001 -1.000000e+001  0.000000e+000
      vertex -4.330127e+000  2.500000e+000  0.000000e+000
      vertex -5.000000e+000  6.123032e-016  0.000000e+000
    endloop
  endfacet
  facet normal  0.000000e+000  -0.000000e+000 -1.000000e+000
    outer loop
      vertex -3.000000e+001 -1.000000e+001  0.000000e+000
      vertex -5.000000e+000  6.123032e-016  0.000000e+000
      vertex -4.330127e+000 -2.500000e+000  0.000000e+000
    endloop
  endfacet
  facet normal  0.000000e+000  -0.000000e+000 -1.000000e+000
    outer loop
      vertex -3.000000e+001 -1.000000e+001  0.000000e+000
      vertex -4.330127e+000 -2.500000e+000  0.000000e+000
      vertex -2.500000e+000 -4.330127e+000  0.000000e+000
    endloop
  endfacet
  facet normal  0.000000e+000  -0.000000e+000 -1.000000e+000
    outer loop
      vertex -3.000000e+001 -1.000000e+001  0.000000e+000
      vertex -2.500000e+000 -4.330127e+000  0.000000e+000
      vertex -9.184548e-016 -5.000000e+000  0.000000e+000
    endloop
  endfacet
  facet normal  0.000000e+000  0.000000e+000 -1.000000e+000
    outer loop
      vertex -3.000000e+001 -1.000000e+001  0.000000e+000
      vertex -9.184548e-016 -5.000000e+000  0.000000e+000
      vertex -2.750000e+001 -1.066987e+001  0.000000e+000
    endloop
  endfacet
  facet normal  0.000000e+000  0.000000e+000 -1.000000e+000
    outer loop
      vertex  3.000000e+001 -1.000000e+001  0.000000e+000
      vertex  2.750000e+001 -1.066987e+001  0.000000e+000
      vertex -9.184548e-016 -5.000000e+000  0.000000e+000
    endloop
  endfacet
  facet normal  0.000000e+000  0.000000e+000 -1.000000e+000
    outer loop
      vertex  3.000000e+001 -1.000000e+001  0.000000e+000
      vertex -9.184548e-016 -5.000000e+000  0.000000e+000
      vertex  2.500000e+000 -4.330127e+000  0.000000e+000
    endloop
  endfacet
  facet normal  0.000000e+000  0.000000e+000 -1.000000e+000
    outer loop
      vertex  3.000000e+001 -1.000000e+001  0.000000e+000
      vertex  2.500000e+000 -4.330127e+000  0.000000e+000
      vertex  4.330127e+000 -2.500000e+000  0.000000e+000
    endloop
  endfacet
  facet normal  0.000000e+000  0.000000e+000 -1.000000e+000
    outer loop
      vertex  3.000000e+001 -1.000000e+001  0.000000e+000
      vertex  4.330127e+000 -2.500000e+000  0.000000e+000
      vertex  5.000000e+000  0.000000e+000  0.000000e+000
    endloop
  endfacet
  facet normal  0.000000e+000  0.000000e+000 -1.000000e+000
    outer loop
      vertex  3.000000e+001 -1.000000e+001  0.000000e+000
      vertex  5.000000e+000  0.000000e+000  0.000000e+000
      vertex  4.330127e+000  2.500000e+000  0.000000e+000
    endloop
  endfacet
  facet normal  0.000000e+000  0.000000e+000 -1.000000e+000
    outer loop
      vertex  3.000000e+001 -1.000000e+001  0.000000e+000
      vertex  4.330127e+000  2.500000e+000  0.000000e+000
      vertex  2.500000e+000  4.330127e+000  0.000000e+000
    endloop
  endfacet
  facet normal  0.000000e+000  0.000000e+000 -1.000000e+000
    outer loop
      vertex  3.000000e+001 -1.000000e+001  0.000000e+000
      vertex  2.500000e+000  4.330127e+000  0.000000e+000
      vertex  3.000000e+001  1.000000e+001  0.000000e+000
    endloop
  endfacet
  facet normal  0.000000e+000  0.000000e+000 -1.000000e+000
    outer loop
      vertex  3.000000e+001 -1.000000e+001  0.000000e+000
      vertex  3.000000e+001  1.000000e+001  0.000000e+000
      vertex  3.250000e+001 -1.066987e+001  0.000000e+000
    endloop
  endfacet
  facet normal  0.000000e+000  0.000000e+000 -1.000000e+000
    outer loop
      vertex  5.000000e+001 -2.500000e+001  0.000000e+000
      vertex  3.000000e+001 -2.000000e+001  0.000000e+000
      vertex  3.250000e+001 -1.933013e+001  0.000000e+000
    endloop
  endfacet
  facet normal  0.000000e+000  0.000000e+000 -1.000000e+000
    outer loop
      vertex  5.000000e+001 -2.500000e+001  0.000000e+000
      vertex  3.250000e+001 -1.933013e+001  0.000000e+000
      vertex  3.433013e+001 -1.750000e+001  0.000000e+000
    endloop
  endfacet
  facet normal  0.000000e+000  0.000000e+000 -1.000000e+000
    outer loop
      vertex  5.000000e+001 -2.500000e+001  0.000000e+000
      vertex  3.433013e+001 -1.750000e+001  0.000000e+000
      vertex  3.500000e+001 -1.500000e+001  0.000000e+000
    endloop
  endfacet
  facet normal  0.000000e+000  0.000000e+000 -1.000000e+000
    outer loop
      vertex  5.000000e+001 -2.500000e+001  0.000000e+000
      vertex  3.500000e+001 -1.500000e+001  0.000000e+000
      vertex  3.433013e+001 -1.250000e+001  0.000000e+000
    endloop
  endfacet
  facet normal  0.000000e+000  0.000000e+000 -9.999999e-001
    outer loop
      vertex  5.000000e+001 -2.500000e+001  0.000000e+000
      vertex  3.433013e+001 -1.250000e+001  0.000000e+000
      vertex  3.250000e+001 -1.066987e+001  0.000000e+000
    endloop
  endfacet
  facet normal  0.000000e+000  0.000000e+000 -1.000000e+000
    outer loop
      vertex  5.000000e+001 -2.500000e+001  0.000000e+000
      vertex  3.250000e+001 -1.066987e+001  0.000000e+000
      vertex  3.000000e+001  1.000000e+001  0.000000e+000
    endloop
  endfacet
  facet normal  0.000000e+000  0.000000e+000 -1.000000e+000
    outer loop
      vertex  5.000000e+001 -2.500000e+001  0.000000e+000
      vertex  3.000000e+001  1.000000e+001  0.000000e+000
      vertex  3.250000e+001  1.066987e+001  0.000000e+000
    endloop
  endfacet
  facet normal  0.000000e+000  0.000000e+000 -1.000000e+000
    outer loop
      vertex  5.000000e+001 -2.500000e+001  0.000000e+000
      vertex  3.250000e+001  1.066987e+001  0.000000e+000
      vertex  3.433013e+001  1.250000e+001  0.000000e+000
    endloop
  endfacet
  facet normal  0.000000e+000  0.000000e+000 -1.000000e+000
    outer loop
      vertex  5.000000e+001 -2.500000e+001  0.000000e+000
      vertex  3.433013e+001  1.250000e+001  0.000000e+000
      vertex  3.500000e+001  1.500000e+001  0.000000e+000
    endloop
  endfacet
  facet normal  0.000000e+000  0.000000e+000 -1.000000e+000
    outer loop
      vertex  5.000000e+001 -2.500000e+001  0.000000e+000
      vertex  3.500000e+001  1.500000e+001  0.000000e+000
      vertex  3.433013e+001  1.750000e+001  0.000000e+000
    endloop
  endfacet
  facet normal  0.000000e+000  0.000000e+000 -1.000000e+000
    outer loop
      vertex  5.000000e+001  2.500000e+001  0.000000e+000
      vertex  5.000000e+001 -2.500000e+001  0.000000e+000
      vertex  3.433013e+001  1.750000e+001  0.000000e+000
    endloop
  endfacet
  facet normal  0.000000e+000  0.000000e+000 -1.000000e+000
    outer loop
      vertex  5.000000e+001  2.500000e+001  0.000000e+000
      vertex  3.433013e+001  1.750000e+001  0.000000e+000
      vertex  3.250000e+001  1.933013e+001  0.000000e+000
    endloop
  endfacet
  facet normal  0.000000e+000  0.000000e+000 -1.000000e+000
    outer loop
      vertex  5.000000e+001  2.500000e+001  0.000000e+000
      vertex  3.250000e+001  1.933013e+001  0.000000e+000
      vertex  3.000000e+001  2.000000e+001  0.000000e+000
    endloop
  endfacet
  facet normal  0.000000e+000  0.000000e+000 -1.000000e+000
    outer loop
      vertex  2.566987e+001 -1.250000e+001  0.000000e+000
      vertex  2.500000e+001 -1.500000e+001  0.000000e+000
      vertex -9.184548e-016 -5.000000e+000  0.000000e+000
    endloop
  endfacet
  facet normal  0.000000e+000  -0.000000e+000 -9.999999e-001
    outer loop
      vertex -9.184548e-016 -5.000000e+000  0.000000e+000
      vertex  2.500000e+001 -1.500000e+001  0.000000e+000
      vertex -2.750000e+001 -1.933013e+001  0.000000e+000
    endloop
  endfacet
  facet normal  0.000000e+000  0.000000e+000 -1.000000e+000
    outer loop
      vertex -9.184548e-016 -5.000000e+000  0.000000e+000
      vertex -2.750000e+001 -1.933013e+001  0.000000e+000
      vertex -2.566987e+001 -1.750000e+001  0.000000e+000
    endloop
  endfacet
  facet normal  0.000000e+000  0.000000e+000  1.000000e+000
    outer loop
      vertex -2.500000e+001 -1.500000e+001  1.000000e+001
      vertex -9.184548e-016 -5.000000e+000  1.000000e+001
      vertex -2.566987e+001 -1.250000e+001  1.000000e+001
    endloop
  endfacet
  facet normal  0.000000e+000  0.000000e+000  9.999999e-001
    outer loop
      vertex -2.500000e+001 -1.500000e+001  1.000000e+001
      vertex -2.566987e+001 -1.750000e+001  1.000000e+001
      vertex -9.184548e-016 -5.000000e+000  1.000000e+001
    endloop
  endfacet
  facet normal  -0.000000e+000  0.000000e+000  1.000000e+000
    outer loop
      vertex -9.184548e-016 -5.000000e+000  1.000000e+001
      vertex -2.750000e+001 -1.066987e+001  1.000000e+001
      vertex -2.566987e+001 -1.250000e+001  1.000000e+001
    endloop
  endfacet
  facet normal  -0.000000e+000  0.000000e+000  9.999999e-001
    outer loop
      vertex  2.500000e+001 -1.500000e+001  1.000000e+001
      vertex -2.750000e+001 -1.933013e+001  1.000000e+001
      vertex -3.000000e+001 -2.000000e+001  1.000000e+001
    endloop
  endfacet
  facet normal  0.000000e+000  0.000000e+000  1.000000e+000
    outer loop
      vertex  2.566987e+001 -1.250000e+001  1.000000e+001
      vertex  2.750000e+001 -1.066987e+001  1.000000e+001
      vertex -9.184548e-016 -5.000000e+000  1.000000e+001
    endloop
  endfacet
  facet normal  0.000000e+000  -0.000000e+000  1.000000e+000
    outer loop
      vertex -3.000000e+001  2.000000e+001  1.000000e+001
      vertex -2.750000e+001  1.933013e+001  1.000000e+001
      vertex  2.750000e+001  1.933013e+001  1.000000e+001
    endloop
  endfacet
  facet normal  0.000000e+000  0.000000e+000  1.000000e+000
    outer loop
      vertex -5.000000e+001  2.500000e+001  1.000000e+001
      vertex -5.000000e+001 -2.500000e+001  1.000000e+001
      vertex -3.433013e+001  1.750000e+001  1.000000e+001
    endloop
  endfacet
  facet normal  0.000000e+000  -0.000000e+000  1.000000e+000
    outer loop
      vertex -5.000000e+001  2.500000e+001  1.000000e+001
      vertex -3.433013e+001  1.750000e+001  1.000000e+001
      vertex -3.250000e+001  1.933013e+001  1.000000e+001
    endloop
  endfacet
  facet normal  0.000000e+000  -0.000000e+000  1.000000e+000
    outer loop
      vertex -5.000000e+001  2.500000e+001  1.000000e+001
      vertex -3.250000e+001  1.933013e+001  1.000000e+001
      vertex -3.000000e+001  2.000000e+001  1.000000e+001
    endloop
  endfacet
  facet normal  -0.000000e+000  -0.000000e+000  1.000000e+000
    outer loop
      vertex -5.000000e+001  2.500000e+001  1.000000e+001
      vertex -3.000000e+001  2.000000e+001  1.000000e+001
      vertex  2.750000e+001  1.933013e+001  1.000000e+001
    endloop
  endfacet
  facet normal  0.000000e+000  -0.000000e+000  1.000000e+000
    outer loop
      vertex -5.000000e+001  2.500000e+001  1.000000e+001
      vertex  2.750000e+001  1.933013e+001  1.000000e+001
      vertex  3.000000e+001  2.000000e+001  1.000000e+001
    endloop
  endfacet
  facet normal  0.000000e+000  -0.000000e+000  1.000000e+000
    outer loop
      vertex -5.000000e+001  2.500000e+001  1.000000e+001
      vertex  3.000000e+001  2.000000e+001  1.000000e+001
      vertex  5.000000e+001  2.500000e+001  1.000000e+001
    endloop
  endfacet
  facet normal  0.000000e+000  0.000000e+000  1.000000e+000
    outer loop
      vertex -5.000000e+001 -2.500000e+001  1.000000e+001
      vertex  5.000000e+001 -2.500000e+001  1.000000e+001
      vertex  3.000000e+001 -2.000000e+001  1.000000e+001
    endloop
  endfacet
  facet normal  0.000000e+000  0.000000e+000  1.000000e+000
    outer loop
      vertex -5.000000e+001 -2.500000e+001  1.000000e+001
      vertex  3.000000e+001 -2.000000e+001  1.000000e+001
      vertex  2.750000e+001 -1.933013e+001  1.000000e+001
    endloop
  endfacet
  facet normal  0.000000e+000  0.000000e+000  1.000000e+000
    outer loop
      vertex -5.000000e+001 -2.500000e+001  1.000000e+001
      vertex  2.750000e+001 -1.933013e+001  1.000000e+001
      vertex  2.566987e+001 -1.750000e+001  1.000000e+001
    endloop
  endfacet
  facet normal  0.000000e+000  0.000000e+000  1.000000e+000
    outer loop
      vertex -5.000000e+001 -2.500000e+001  1.000000e+001
      vertex  2.566987e+001 -1.750000e+001  1.000000e+001
      vertex  2.500000e+001 -1.500000e+001  1.000000e+001
    endloop
  endfacet
  facet normal  0.000000e+000  0.000000e+000  1.000000e+000
    outer loop
      vertex -5.000000e+001 -2.500000e+001  1.000000e+001
      vertex  2.500000e+001 -1.500000e+001  1.000000e+001
      vertex -3.000000e+001 -2.000000e+001  1.000000e+001
    endloop
  endfacet
  facet normal  0.000000e+000  0.000000e+000  1.000000e+000
    outer loop
      vertex -5.000000e+001 -2.500000e+001  1.000000e+001
      vertex -3.000000e+001 -2.000000e+001  1.000000e+001
      vertex -3.250000e+001 -1.933013e+001  1.000000e+001
    endloop
  endfacet
  facet normal  0.000000e+000  0.000000e+000  1.000000e+000
    outer loop
      vertex -5.000000e+001 -2.500000e+001  1.000000e+001
      vertex -3.250000e+001 -1.933013e+001  1.000000e+001
      vertex -3.433013e+001 -1.750000e+001  1.000000e+001
    endloop
  endfacet
  facet normal  0.000000e+000  0.000000e+000  1.000000e+000
    outer loop
      vertex -5.000000e+001 -2.500000e+001  1.000000e+001
      vertex -3.433013e+001 -1.750000e+001  1.000000e+001
      vertex -3.500000e+001 -1.500000e+001  1.000000e+001
    endloop
  endfacet
  facet normal  0.000000e+000  -0.000000e+000  1.000000e+000
    outer loop
      vertex -5.000000e+001 -2.500000e+001  1.000000e+001
      vertex -3.500000e+001 -1.500000e+001  1.000000e+001
      vertex -3.433013e+001 -1.250000e+001  1.000000e+001
    endloop
  endfacet
  facet normal  0.000000e+000  -0.000000e+000  9.999999e-001
    outer loop
      vertex -5.000000e+001 -2.500000e+001  1.000000e+001
      vertex -3.433013e+001 -1.250000e+001  1.000000e+001
      vertex -3.250000e+001 -1.066987e+001  1.000000e+001
    endloop
  endfacet
  facet normal  0.000000e+000  -0.000000e+000  1.000000e+000
    outer loop
      vertex -5.000000e+001 -2.500000e+001  1.000000e+001
      vertex -3.250000e+001 -1.066987e+001  1.000000e+001
      vertex -3.000000e+001  1.000000e+001  1.000000e+001
    endloop
  endfacet
  facet normal  0.000000e+000  0.000000e+000  1.000000e+000
    outer loop
      vertex -5.000000e+001 -2.500000e+001  1.000000e+001
      vertex -3.000000e+001  1.000000e+001  1.000000e+001
      vertex -3.250000e+001  1.066987e+001  1.000000e+001
    endloop
  endfacet
  facet normal  0.000000e+000  0.000000e+000  1.000000e+000
    outer loop
      vertex -5.000000e+001 -2.500000e+001  1.000000e+001
      vertex -3.250000e+001  1.066987e+001  1.000000e+001
      vertex -3.433013e+001  1.250000e+001  1.000000e+001
    endloop
  endfacet
  facet normal  0.000000e+000  0.000000e+000  1.000000e+000
    outer loop
      vertex -5.000000e+001 -2.500000e+001  1.000000e+001
      vertex -3.433013e+001  1.250000e+001  1.000000e+001
      vertex -3.500000e+001  1.500000e+001  1.000000e+001
    endloop
  endfacet
  facet normal  0.000000e+000  -0.000000e+000  1.000000e+000
    outer loop
      vertex -5.000000e+001 -2.500000e+001  1.000000e+001
      vertex -3.500000e+001  1.500000e+001  1.000000e+001
      vertex -3.433013e+001  1.750000e+001  1.000000e+001
    endloop
  endfacet
  facet normal  0.000000e+000  -0.000000e+000  1.000000e+000
    outer loop
      vertex  3.061516e-016  5.000000e+000  1.000000e+001
      vertex  2.500000e+000  4.330127e+000  1.000000e+001
      vertex  3.000000e+001  1.000000e+001  1.000000e+001
    endloop
  endfacet
  facet normal  0.000000e+000  0.000000e+000  1.000000e+000
    outer loop
      vertex  3.061516e-016  5.000000e+000  1.000000e+001
      vertex  3.000000e+001  1.000000e+001  1.000000e+001
      vertex  2.750000e+001  1.066987e+001  1.000000e+001
    endloop
  endfacet
  facet normal  0.000000e+000  0.000000e+000  1.000000e+000
    outer loop
      vertex  3.061516e-016  5.000000e+000  1.000000e+001
      vertex  2.750000e+001  1.066987e+001  1.000000e+001
      vertex  2.566987e+001  1.250000e+001  1.000000e+001
    endloop
  endfacet
  facet normal  0.000000e+000  0.000000e+000  1.000000e+000
    outer loop
      vertex  3.061516e-016  5.000000e+000  1.000000e+001
      vertex  2.566987e+001  1.250000e+001  1.000000e+001
      vertex  2.500000e+001  1.500000e+001  1.000000e+001
    endloop
  endfacet
  facet normal  0.000000e+000  -0.000000e+000  9.999999e-001
    outer loop
      vertex  3.061516e-016  5.000000e+000  1.000000e+001
      vertex  2.500000e+001  1.500000e+001  1.000000e+001
      vertex  2.566987e+001  1.750000e+001  1.000000e+001
    endloop
  endfacet
  facet normal  0.000000e+000  -0.000000e+000  1.000000e+000
    outer loop
      vertex  3.061516e-016  5.000000e+000  1.000000e+001
      vertex  2.566987e+001  1.750000e+001  1.000000e+001
      vertex  2.750000e+001  1.933013e+001  1.000000e+001
    endloop
  endfacet
  facet normal  0.000000e+000  0.000000e+000  1.000000e+000
    outer loop
      vertex  3.061516e-016  5.000000e+000  1.000000e+001
      vertex  2.750000e+001  1.933013e+001  1.000000e+001
      vertex -2.750000e+001  1.933013e+001  1.000000e+001
    endloop
  endfacet
  facet normal  0.000000e+000  0.000000e+000  1.000000e+000
    outer loop
      vertex  3.061516e-016  5.000000e+000  1.000000e+001
      vertex -2.750000e+001  1.933013e+001  1.000000e+001
      vertex -2.566987e+001  1.750000e+001  1.000000e+001
    endloop
  endfacet
  facet normal  0.000000e+000  0.000000e+000  9.999999e-001
    outer loop
      vertex  3.061516e-016  5.000000e+000  1.000000e+001
      vertex -2.566987e+001  1.750000e+001  1.000000e+001
      vertex -2.500000e+001  1.500000e+001  1.000000e+001
    endloop
  endfacet
  facet normal  0.000000e+000  0.000000e+000  1.000000e+000
    outer loop
      vertex  3.061516e-016  5.000000e+000  1.000000e+001
      vertex -2.500000e+001  1.500000e+001  1.000000e+001
      vertex -2.566987e+001  1.250000e+001  1.000000e+001
    endloop
  endfacet
  facet normal  0.000000e+000  0.000000e+000  1.000000e+000
    outer loop
      vertex  3.061516e-016  5.000000e+000  1.000000e+001
      vertex -2.566987e+001  1.250000e+001  1.000000e+001
      vertex -2.750000e+001  1.066987e+001  1.000000e+001
    endloop
  endfacet
  facet normal  0.000000e+000  0.000000e+000  1.000000e+000
    outer loop
      vertex  3.061516e-016  5.000000e+000  1.000000e+001
      vertex -2.750000e+001  1.066987e+001  1.000000e+001
      vertex -3.000000e+001  1.000000e+001  1.000000e+001
    endloop
  endfacet
  facet normal  0.000000e+000  0.000000e+000  1.000000e+000
    outer loop
      vertex  3.061516e-016  5.000000e+000  1.000000e+001
      vertex -3.000000e+001  1.000000e+001  1.000000e+001
      vertex -2.500000e+000  4.330127e+000  1.000000e+001
    endloop
  endfacet
  facet normal  0.000000e+000  -0.000000e+000  1.000000e+000
    outer loop
      vertex -3.000000e+001 -1.000000e+001  1.000000e+001
      vertex -2.750000e+001 -1.066987e+001  1.000000e+001
      vertex -9.184548e-016 -5.000000e+000  1.000000e+001
    endloop
  endfacet
  facet normal  0.000000e+000  0.000000e+000  1.000000e+000
    outer loop
      vertex -3.000000e+001 -1.000000e+001  1.000000e+001
      vertex -9.184548e-016 -5.000000e+000  1.000000e+001
      vertex -2.500000e+000 -4.330127e+000  1.000000e+001
    endloop
  endfacet
  facet normal  0.000000e+000  0.000000e+000  1.000000e+000
    outer loop
      vertex -3.000000e+001 -1.000000e+001  1.000000e+001
      vertex -2.500000e+000 -4.330127e+000  1.000000e+001
      vertex -4.330127e+000 -2.500000e+000  1.000000e+001
    endloop
  endfacet
  facet normal  0.000000e+000  0.000000e+000  1.000000e+000
    outer loop
      vertex -3.000000e+001 -1.000000e+001  1.000000e+001
      vertex -4.330127e+000 -2.500000e+000  1.000000e+001
      vertex -5.000000e+000  6.123032e-016  1.000000e+001
    endloop
  endfacet
  facet normal  0.000000e+000  -0.000000e+000  1.000000e+000
    outer loop
      vertex -3.000000e+001 -1.000000e+001  1.000000e+001
      vertex -5.000000e+000  6.123032e-016  1.000000e+001
      vertex -4.330127e+000  2.500000e+000  1.000000e+001
    endloop
  endfacet
  facet normal  0.000000e+000  -0.000000e+000  1.000000e+000
    outer loop
      vertex -3.000000e+001 -1.000000e+001  1.000000e+001
      vertex -4.330127e+000  2.500000e+000  1.000000e+001
      vertex -2.500000e+000  4.330127e+000  1.000000e+001
    endloop
  endfacet
  facet normal  0.000000e+000  0.000000e+000  1.000000e+000
    outer loop
      vertex -3.000000e+001 -1.000000e+001  1.000000e+001
      vertex -2.500000e+000  4.330127e+000  1.000000e+001
      vertex -3.000000e+001  1.000000e+001  1.000000e+001
    endloop
  endfacet
  facet normal  0.000000e+000  0.000000e+000  1.000000e+000
    outer loop
      vertex -3.000000e+001 -1.000000e+001  1.000000e+001
      vertex -3.000000e+001  1.000000e+001  1.000000e+001
      vertex -3.250000e+001 -1.066987e+001  1.000000e+001
    endloop
  endfacet
  facet normal  0.000000e+000  0.000000e+000  1.000000e+000
    outer loop
      vertex  3.000000e+001 -1.000000e+001  1.000000e+001
      vertex  3.250000e+001 -1.066987e+001  1.000000e+001
      vertex  3.000000e+001  1.000000e+001  1.000000e+001
    endloop
  endfacet
  facet normal  0.000000e+000  0.000000e+000  1.000000e+000
    outer loop
      vertex  3.000000e+001 -1.000000e+001  1.000000e+001
      vertex  3.000000e+001  1.000000e+001  1.000000e+001
      vertex  2.500000e+000  4.330127e+000  1.000000e+001
    endloop
  endfacet
  facet normal  0.000000e+000  0.000000e+000  1.000000e+000
    outer loop
      vertex  3.000000e+001 -1.000000e+001  1.000000e+001
      vertex  2.500000e+000  4.330127e+000  1.000000e+001
      vertex  4.330127e+000  2.500000e+000  1.000000e+001
    endloop
  endfacet
  facet normal  0.000000e+000  0.000000e+000  1.000000e+000
    outer loop
      vertex  3.000000e+001 -1.000000e+001  1.000000e+001
      vertex  4.330127e+000  2.500000e+000  1.000000e+001
      vertex  5.000000e+000  0.000000e+000  1.000000e+001
    endloop
  endfacet
  facet normal  0.000000e+000  0.000000e+000  1.000000e+000
    outer loop
      vertex  3.000000e+001 -1.000000e+001  1.000000e+001
      vertex  5.000000e+000  0.000000e+000  1.000000e+001
      vertex  4.330127e+000 -2.500000e+000  1.000000e+001
    endloop
  endfacet
  facet normal  0.000000e+000  0.000000e+000  1.000000e+000
    outer loop
      vertex  3.000000e+001 -1.000000e+001  1.000000e+001
      vertex  4.330127e+000 -2.500000e+000  1.000000e+001
      vertex  2.500000e+000 -4.330127e+000  1.000000e+001
    endloop
  endfacet
  facet normal  0.000000e+000  0.000000e+000  1.000000e+000
    outer loop
      vertex  3.000000e+001 -1.000000e+001  1.000000e+001
      vertex  2.500000e+000 -4.330127e+000  1.000000e+001
      vertex -9.184548e-016 -5.000000e+000  1.000000e+001
    endloop
  endfacet
  facet normal  0.000000e+000  0.000000e+000  1.000000e+000
    outer loop
      vertex  3.000000e+001 -1.000000e+001  1.000000e+001
      vertex -9.184548e-016 -5.000000e+000  1.000000e+001
      vertex  2.750000e+001 -1.066987e+001  1.000000e+001
    endloop
  endfacet
  facet normal  0.000000e+000  0.000000e+000  1.000000e+000
    outer loop
      vertex  5.000000e+001 -2.500000e+001  1.000000e+001
      vertex  3.433013e+001  1.750000e+001  1.000000e+001
      vertex  3.500000e+001  1.500000e+001  1.000000e+001
    endloop
  endfacet
  facet normal  0.000000e+000  0.000000e+000  1.000000e+000
    outer loop
      vertex  5.000000e+001 -2.500000e+001  1.000000e+001
      vertex  3.500000e+001  1.500000e+001  1.000000e+001
      vertex  3.433013e+001  1.250000e+001  1.000000e+001
    endloop
  endfacet
  facet normal  0.000000e+000  0.000000e+000  1.000000e+000
    outer loop
      vertex  5.000000e+001 -2.500000e+001  1.000000e+001
      vertex  3.433013e+001  1.250000e+001  1.000000e+001
      vertex  3.250000e+001  1.066987e+001  1.000000e+001
    endloop
  endfacet
  facet normal  0.000000e+000  0.000000e+000  1.000000e+000
    outer loop
      vertex  5.000000e+001 -2.500000e+001  1.000000e+001
      vertex  3.250000e+001  1.066987e+001  1.000000e+001
      vertex  3.000000e+001  1.000000e+001  1.000000e+001
    endloop
  endfacet
  facet normal  0.000000e+000  0.000000e+000  1.000000e+000
    outer loop
      vertex  5.000000e+001 -2.500000e+001  1.000000e+001
      vertex  3.000000e+001  1.000000e+001  1.000000e+001
      vertex  3.250000e+001 -1.066987e+001  1.000000e+001
    endloop
  endfacet
  facet normal  0.000000e+000  0.000000e+000  9.999999e-001
    outer loop
      vertex  5.000000e+001 -2.500000e+001  1.000000e+001
      vertex  3.250000e+001 -1.066987e+001  1.000000e+001
      vertex  3.433013e+001 -1.250000e+001  1.000000e+001
    endloop
  endfacet
  facet normal  0.000000e+000  0.000000e+000  1.000000e+000
    outer loop
      vertex  5.000000e+001 -2.500000e+001  1.000000e+001
      vertex  3.433013e+001 -1.250000e+001  1.000000e+001
      vertex  3.500000e+001 -1.500000e+001  1.000000e+001
    endloop
  endfacet
  facet normal  0.000000e+000  0.000000e+000  1.000000e+000
    outer loop
      vertex  5.000000e+001 -2.500000e+001  1.000000e+001
      vertex  3.500000e+001 -1.500000e+001  1.000000e+001
      vertex  3.433013e+001 -1.750000e+001  1.000000e+001
    endloop
  endfacet
  facet normal  0.000000e+000  0.000000e+000  1.000000e+000
    outer loop
      vertex  5.000000e+001 -2.500000e+001  1.000000e+001
      vertex  3.433013e+001 -1.750000e+001  1.000000e+001
      vertex  3.250000e+001 -1.933013e+001  1.000000e+001
    endloop
  endfacet
  facet normal  0.000000e+000  0.000000e+000  1.000000e+000
    outer loop
      vertex  5.000000e+001 -2.500000e+001  1.000000e+001
      vertex  3.250000e+001 -1.933013e+001  1.000000e+001
      vertex  3.000000e+001 -2.000000e+001  1.000000e+001
    endloop
  endfacet
  facet normal  -0.000000e+000  0.000000e+000  1.000000e+000
    outer loop
      vertex  5.000000e+001  2.500000e+001  1.000000e+001
      vertex  3.000000e+001  2.000000e+001  1.000000e+001
      vertex  3.250000e+001  1.933013e+001  1.000000e+001
    endloop
  endfacet
  facet normal  -0.000000e+000  0.000000e+000  1.000000e+000
    outer loop
      vertex  5.000000e+001  2.500000e+001  1.000000e+001
      vertex  3.250000e+001  1.933013e+001  1.000000e+001
      vertex  3.433013e+001  1.750000e+001  1.000000e+001
    endloop
  endfacet
  facet normal  -0.000000e+000  0.000000e+000  1.000000e+000
    outer loop
      vertex  5.000000e+001  2.500000e+001  1.000000e+001
      vertex  3.433013e+001  1.750000e+001  1.000000e+001
      vertex  5.000000e+001 -2.500000e+001  1.000000e+001
    endloop
  endfacet
  facet normal  0.000000e+000  0.000000e+000  1.000000e+000
    outer loop
      vertex -2.566987e+001 -1.750000e+001  1.000000e+001
      vertex -2.750000e+001 -1.933013e+001  1.000000e+001
      vertex -9.184548e-016 -5.000000e+000  1.000000e+001
    endloop
  endfacet
  facet normal  0.000000e+000  0.000000e+000  9.999999e-001
    outer loop
      vertex -9.184548e-016 -5.000000e+000  1.000000e+001
      vertex -2.750000e+001 -1.933013e+001  1.000000e+001
      vertex  2.500000e+001 -1.500000e+001  1.000000e+001
    endloop
  endfacet
  facet normal  0.000000e+000  -0.000000e+000  1.000000e+000
    outer loop
      vertex -9.184548e-016 -5.000000e+000  1.000000e+001
      vertex  2.500000e+001 -1.500000e+001  1.000000e+001
      vertex  2.566987e+001 -1.250000e+001  1.000000e+001
    endloop
  endfacet
  facet normal -2.588188e-001  9.659259e-001  0.000000e+000
    outer loop
      vertex  3.000000e+001 -2.000000e+001  0.000000e+000
      vertex  3.250000e+001 -1.933013e+001  1.000000e+001
      vertex  3.250000e+001 -1.933013e+001  0.000000e+000
    endloop
  endfacet
  facet normal -7.071068e-001  7.071068e-001  0.000000e+000
    outer loop
      vertex  3.250000e+001 -1.933013e+001  0.000000e+000
      vertex  3.250000e+001 -1.933013e+001  1.000000e+001
      vertex  3.433013e+001 -1.750000e+001  1.000000e+001
    endloop
  endfacet
  facet normal -7.071068e-001  7.071068e-001  0.000000e+000
    outer loop
      vertex  3.250000e+001 -1.933013e+001  0.000000e+000
      vertex  3.433013e+001 -1.750000e+001  1.000000e+001
      vertex  3.433013e+001 -1.750000e+001  0.000000e+000
    endloop
  endfacet
  facet normal -9.659259e-001  2.588188e-001  0.000000e+000
    outer loop
      vertex  3.433013e+001 -1.750000e+001  0.000000e+000
      vertex  3.433013e+001 -1.750000e+001  1.000000e+001
      vertex  3.500000e+001 -1.500000e+001  1.000000e+001
    endloop
  endfacet
  facet normal -9.659259e-001  2.588188e-001  0.000000e+000
    outer loop
      vertex  3.433013e+001 -1.750000e+001  0.000000e+000
      vertex  3.500000e+001 -1.500000e+001  1.000000e+001
      vertex  3.500000e+001 -1.500000e+001  0.000000e+000
    endloop
  endfacet
  facet normal -2.588188e-001  9.659259e-001  0.000000e+000
    outer loop
      vertex  3.250000e+001 -1.933013e+001  1.000000e+001
      vertex  3.000000e+001 -2.000000e+001  0.000000e+000
      vertex  3.000000e+001 -2.000000e+001  1.000000e+001
    endloop
  endfacet
  facet normal  2.588188e-001  9.659259e-001  0.000000e+000
    outer loop
      vertex  3.000000e+001 -2.000000e+001  1.000000e+001
      vertex  3.000000e+001 -2.000000e+001  0.000000e+000
      vertex  2.750000e+001 -1.933013e+001  0.000000e+000
    endloop
  endfacet
  facet normal  2.588188e-001  9.659259e-001  -0.000000e+000
    outer loop
      vertex  3.000000e+001 -2.000000e+001  1.000000e+001
      vertex  2.750000e+001 -1.933013e+001  0.000000e+000
      vertex  2.750000e+001 -1.933013e+001  1.000000e+001
    endloop
  endfacet
  facet normal  7.071068e-001  7.071068e-001  0.000000e+000
    outer loop
      vertex  2.750000e+001 -1.933013e+001  1.000000e+001
      vertex  2.750000e+001 -1.933013e+001  0.000000e+000
      vertex  2.566987e+001 -1.750000e+001  0.000000e+000
    endloop
  endfacet
  facet normal  7.071068e-001  7.071068e-001  -0.000000e+000
    outer loop
      vertex  2.750000e+001 -1.933013e+001  1.000000e+001
      vertex  2.566987e+001 -1.750000e+001  0.000000e+000
      vertex  2.566987e+001 -1.750000e+001  1.000000e+001
    endloop
  endfacet
  facet normal  9.659259e-001  2.588188e-001  0.000000e+000
    outer loop
      vertex  2.566987e+001 -1.750000e+001  1.000000e+001
      vertex  2.566987e+001 -1.750000e+001  0.000000e+000
      vertex  2.500000e+001 -1.500000e+001  0.000000e+000
    endloop
  endfacet
  facet normal  9.659259e-001  2.588188e-001  -0.000000e+000
    outer loop
      vertex  2.566987e+001 -1.750000e+001  1.000000e+001
      vertex  2.500000e+001 -1.500000e+001  0.000000e+000
      vertex  2.500000e+001 -1.500000e+001  1.000000e+001
    endloop
  endfacet
  facet normal  2.588192e-001 -9.659259e-001  0.000000e+000
    outer loop
      vertex  3.000000e+001 -1.000000e+001  0.000000e+000
      vertex  2.750000e+001 -1.066987e+001  1.000000e+001
      vertex  2.750000e+001 -1.066987e+001  0.000000e+000
    endloop
  endfacet
  facet normal  7.071066e-001 -7.071069e-001  0.000000e+000
    outer loop
      vertex  2.750000e+001 -1.066987e+001  0.000000e+000
      vertex  2.750000e+001 -1.066987e+001  1.000000e+001
      vertex  2.566987e+001 -1.250000e+001  1.000000e+001
    endloop
  endfacet
  facet normal  7.071066e-001 -7.071069e-001  0.000000e+000
    outer loop
      vertex  2.750000e+001 -1.066987e+001  0.000000e+000
      vertex  2.566987e+001 -1.250000e+001  1.000000e+001
      vertex  2.566987e+001 -1.250000e+001  0.000000e+000
    endloop
  endfacet
  facet normal  9.659259e-001 -2.588188e-001  0.000000e+000
    outer loop
      vertex  2.566987e+001 -1.250000e+001  0.000000e+000
      vertex  2.566987e+001 -1.250000e+001  1.000000e+001
      vertex  2.500000e+001 -1.500000e+001  1.000000e+001
    endloop
  endfacet
  facet normal  9.659259e-001 -2.588188e-001  0.000000e+000
    outer loop
      vertex  2.566987e+001 -1.250000e+001  0.000000e+000
      vertex  2.500000e+001 -1.500000e+001  1.000000e+001
      vertex  2.500000e+001 -1.500000e+001  0.000000e+000
    endloop
  endfacet
  facet normal  2.588192e-001 -9.659259e-001  0.000000e+000
    outer loop
      vertex  2.750000e+001 -1.066987e+001  1.000000e+001
      vertex  3.000000e+001 -1.000000e+001  0.000000e+000
      vertex  3.000000e+001 -1.000000e+001  1.000000e+001
    endloop
  endfacet
  facet normal -2.588192e-001 -9.659259e-001  -0.000000e+000
    outer loop
      vertex  3.000000e+001 -1.000000e+001  1.000000e+001
      vertex  3.000000e+001 -1.000000e+001  0.000000e+000
      vertex  3.250000e+001 -1.066987e+001  0.000000e+000
    endloop
  endfacet
  facet normal -2.588192e-001 -9.659259e-001  0.000000e+000
    outer loop
      vertex  3.000000e+001 -1.000000e+001  1.000000e+001
      vertex  3.250000e+001 -1.066987e+001  0.000000e+000
      vertex  3.250000e+001 -1.066987e+001  1.000000e+001
    endloop
  endfacet
  facet normal -7.071066e-001 -7.071069e-001  -0.000000e+000
    outer loop
      vertex  3.250000e+001 -1.066987e+001  1.000000e+001
      vertex  3.250000e+001 -1.066987e+001  0.000000e+000
      vertex  3.433013e+001 -1.250000e+001  0.000000e+000
    endloop
  endfacet
  facet normal -7.071066e-001 -7.071069e-001  0.000000e+000
    outer loop
      vertex  3.250000e+001 -1.066987e+001  1.000000e+001
      vertex  3.433013e+001 -1.250000e+001  0.000000e+000
      vertex  3.433013e+001 -1.250000e+001  1.000000e+001
    endloop
  endfacet
  facet normal -9.659259e-001 -2.588188e-001  -0.000000e+000
    outer loop
      vertex  3.433013e+001 -1.250000e+001  1.000000e+001
      vertex  3.433013e+001 -1.250000e+001  0.000000e+000
      vertex  3.500000e+001 -1.500000e+001  0.000000e+000
    endloop
  endfacet
  facet normal -9.659259e-001 -2.588188e-001  0.000000e+000
    outer loop
      vertex  3.433013e+001 -1.250000e+001  1.000000e+001
      vertex  3.500000e+001 -1.500000e+001  0.000000e+000
      vertex  3.500000e+001 -1.500000e+001  1.000000e+001
    endloop
  endfacet
  facet normal -2.588188e-001  9.659259e-001  0.000000e+000
    outer loop
      vertex -3.000000e+001 -2.000000e+001  0.000000e+000
      vertex -2.750000e+001 -1.933013e+001  1.000000e+001
      vertex -2.750000e+001 -1.933013e+001  0.000000e+000
    endloop
  endfacet
  facet normal -7.071068e-001  7.071068e-001  0.000000e+000
    outer loop
      vertex -2.750000e+001 -1.933013e+001  0.000000e+000
      vertex -2.750000e+001 -1.933013e+001  1.000000e+001
      vertex -2.566987e+001 -1.750000e+001  1.000000e+001
    endloop
  endfacet
  facet normal -7.071068e-001  7.071068e-001  0.000000e+000
    outer loop
      vertex -2.750000e+001 -1.933013e+001  0.000000e+000
      vertex -2.566987e+001 -1.750000e+001  1.000000e+001
      vertex -2.566987e+001 -1.750000e+001  0.000000e+000
    endloop
  endfacet
  facet normal -9.659259e-001  2.588188e-001  0.000000e+000
    outer loop
      vertex -2.566987e+001 -1.750000e+001  0.000000e+000
      vertex -2.566987e+001 -1.750000e+001  1.000000e+001
      vertex -2.500000e+001 -1.500000e+001  1.000000e+001
    endloop
  endfacet
  facet normal -9.659259e-001  2.588188e-001  0.000000e+000
    outer loop
      vertex -2.566987e+001 -1.750000e+001  0.000000e+000
      vertex -2.500000e+001 -1.500000e+001  1.000000e+001
      vertex -2.500000e+001 -1.500000e+001  0.000000e+000
    endloop
  endfacet
  facet normal -2.588188e-001  9.659259e-001  0.000000e+000
    outer loop
      vertex -2.750000e+001 -1.933013e+001  1.000000e+001
      vertex -3.000000e+001 -2.000000e+001  0.000000e+000
      vertex -3.000000e+001 -2.000000e+001  1.000000e+001
    endloop
  endfacet
  facet normal  2.588188e-001  9.659259e-001  0.000000e+000
    outer loop
      vertex -3.000000e+001 -2.000000e+001  1.000000e+001
      vertex -3.000000e+001 -2.000000e+001  0.000000e+000
      vertex -3.250000e+001 -1.933013e+001  0.000000e+000
    endloop
  endfacet
  facet normal  2.588188e-001  9.659259e-001  -0.000000e+000
    outer loop
      vertex -3.000000e+001 -2.000000e+001  1.000000e+001
      vertex -3.250000e+001 -1.933013e+001  0.000000e+000
      vertex -3.250000e+001 -1.933013e+001  1.000000e+001
    endloop
  endfacet
  facet normal  7.071068e-001  7.071068e-001  0.000000e+000
    outer loop
      vertex -3.250000e+001 -1.933013e+001  1.000000e+001
      vertex -3.250000e+001 -1.933013e+001  0.000000e+000
      vertex -3.433013e+001 -1.750000e+001  0.000000e+000
    endloop
  endfacet
  facet normal  7.071068e-001  7.071068e-001  -0.000000e+000
    outer loop
      vertex -3.250000e+001 -1.933013e+001  1.000000e+001
      vertex -3.433013e+001 -1.750000e+001  0.000000e+000
      vertex -3.433013e+001 -1.750000e+001  1.000000e+001
    endloop
  endfacet
  facet normal  9.659259e-001  2.588188e-001  0.000000e+000
    outer loop
      vertex -3.433013e+001 -1.750000e+001  1.000000e+001
      vertex -3.433013e+001 -1.750000e+001  0.000000e+000
      vertex -3.500000e+001 -1.500000e+001  0.000000e+000
    endloop
  endfacet
  facet normal  9.659259e-001  2.588188e-001  -0.000000e+000
    outer loop
      vertex -3.433013e+001 -1.750000e+001  1.000000e+001
      vertex -3.500000e+001 -1.500000e+001  0.000000e+000
      vertex -3.500000e+001 -1.500000e+001  1.000000e+001
    endloop
  endfacet
  facet normal  2.588192e-001 -9.659259e-001  0.000000e+000
    outer loop
      vertex -3.000000e+001 -1.000000e+001  0.000000e+000
      vertex -3.250000e+001 -1.066987e+001  1.000000e+001
      vertex -3.250000e+001 -1.066987e+001  0.000000e+000
    endloop
  endfacet
  facet normal  7.071066e-001 -7.071069e-001  0.000000e+000
    outer loop
      vertex -3.250000e+001 -1.066987e+001  0.000000e+000
      vertex -3.250000e+001 -1.066987e+001  1.000000e+001
      vertex -3.433013e+001 -1.250000e+001  1.000000e+001
    endloop
  endfacet
  facet normal  7.071066e-001 -7.071069e-001  0.000000e+000
    outer loop
      vertex -3.250000e+001 -1.066987e+001  0.000000e+000
      vertex -3.433013e+001 -1.250000e+001  1.000000e+001
      vertex -3.433013e+001 -1.250000e+001  0.000000e+000
    endloop
  endfacet
  facet normal  9.659259e-001 -2.588188e-001  0.000000e+000
    outer loop
      vertex -3.433013e+001 -1.250000e+001  0.000000e+000
      vertex -3.433013e+001 -1.250000e+001  1.000000e+001
      vertex -3.500000e+001 -1.500000e+001  1.000000e+001
    endloop
  endfacet
  facet normal  9.659259e-001 -2.588188e-001  0.000000e+000
    outer loop
      vertex -3.433013e+001 -1.250000e+001  0.000000e+000
      vertex -3.500000e+001 -1.500000e+001  1.000000e+001
      vertex -3.500000e+001 -1.500000e+001  0.000000e+000
    endloop
  endfacet
  facet normal  2.588192e-001 -9.659259e-001  0.000000e+000
    outer loop
      vertex -3.250000e+001 -1.066987e+001  1.000000e+001
      vertex -3.000000e+001 -1.000000e+001  0.000000e+000
      vertex -3.000000e+001 -1.000000e+001  1.000000e+001
    endloop
  endfacet
  facet normal -2.588192e-001 -9.659259e-001  -0.000000e+000
    outer loop
      vertex -3.000000e+001 -1.000000e+001  1.000000e+001
      vertex -3.000000e+001 -1.000000e+001  0.000000e+000
      vertex -2.750000e+001 -1.066987e+001  0.000000e+000
    endloop
  endfacet
  facet normal -2.588192e-001 -9.659259e-001  0.000000e+000
    outer loop
      vertex -3.000000e+001 -1.000000e+001  1.000000e+001
      vertex -2.750000e+001 -1.066987e+001  0.000000e+000
      vertex -2.750000e+001 -1.066987e+001  1.000000e+001
    endloop
  endfacet
  facet normal -7.071066e-001 -7.071069e-001  -0.000000e+000
    outer loop
      vertex -2.750000e+001 -1.066987e+001  1.000000e+001
      vertex -2.750000e+001 -1.066987e+001  0.000000e+000
      vertex -2.566987e+001 -1.250000e+001  0.000000e+000
    endloop
  endfacet
  facet normal -7.071066e-001 -7.071069e-001  0.000000e+000
    outer loop
      vertex -2.750000e+001 -1.066987e+001  1.000000e+001
      vertex -2.566987e+001 -1.250000e+001  0.000000e+000
      vertex -2.566987e+001 -1.250000e+001  1.000000e+001
    endloop
  endfacet
  facet normal -9.659259e-001 -2.588188e-001  -0.000000e+000
    outer loop
      vertex -2.566987e+001 -1.250000e+001  1.000000e+001
      vertex -2.566987e+001 -1.250000e+001  0.000000e+000
      vertex -2.500000e+001 -1.500000e+001  0.000000e+000
    endloop
  endfacet
  facet normal -9.659259e-001 -2.588188e-001  0.000000e+000
    outer loop
      vertex -2.566987e+001 -1.250000e+001  1.000000e+001
      vertex -2.500000e+001 -1.500000e+001  0.000000e+000
      vertex -2.500000e+001 -1.500000e+001  1.000000e+001
    endloop
  endfacet
  facet normal -2.588192e-001  9.659259e-001  0.000000e+000
    outer loop
      vertex  3.000000e+001  1.000000e+001  0.000000e+000
      vertex  3.250000e+001  1.066987e+001  1.000000e+001
      vertex  3.250000e+001  1.066987e+001  0.000000e+000
    endloop
  endfacet
  facet normal -7.071066e-001  7.071069e-001  0.000000e+000
    outer loop
      vertex  3.250000e+001  1.066987e+001  0.000000e+000
      vertex  3.250000e+001  1.066987e+001  1.000000e+001
      vertex  3.433013e+001  1.250000e+001  1.000000e+001
    endloop
  endfacet
  facet normal -7.071066e-001  7.071069e-001  0.000000e+000
    outer loop
      vertex  3.250000e+001  1.066987e+001  0.000000e+000
      vertex  3.433013e+001  1.250000e+001  1.000000e+001
      vertex  3.433013e+001  1.250000e+001  0.000000e+000
    endloop
  endfacet
  facet normal -9.659259e-001  2.588188e-001  0.000000e+000
    outer loop
      vertex  3.433013e+001  1.250000e+001  0.000000e+000
      vertex  3.433013e+001  1.250000e+001  1.000000e+001
      vertex  3.500000e+001  1.500000e+001  1.000000e+001
    endloop
  endfacet
  facet normal -9.659259e-001  2.588188e-001  0.000000e+000
    outer loop
      vertex  3.433013e+001  1.250000e+001  0.000000e+000
      vertex  3.500000e+001  1.500000e+001  1.000000e+001
      vertex  3.500000e+001  1.500000e+001  0.000000e+000
    endloop
  endfacet
  facet normal -2.588192e-001  9.659259e-001  0.000000e+000
    outer loop
      vertex  3.250000e+001  1.066987e+001  1.000000e+001
      vertex  3.000000e+001  1.000000e+001  0.000000e+000
      vertex  3.000000e+001  1.000000e+001  1.000000e+001
    endloop
  endfacet
  facet normal  2.588192e-001  9.659259e-001  0.000000e+000
    outer loop
      vertex  3.000000e+001  1.000000e+001  1.000000e+001
      vertex  3.000000e+001  1.000000e+001  0.000000e+000
      vertex  2.750000e+001  1.066987e+001  0.000000e+000
    endloop
  endfacet
  facet normal  2.588192e-001  9.659259e-001  -0.000000e+000
    outer loop
      vertex  3.000000e+001  1.000000e+001  1.000000e+001
      vertex  2.750000e+001  1.066987e+001  0.000000e+000
      vertex  2.750000e+001  1.066987e+001  1.000000e+001
    endloop
  endfacet
  facet normal  7.071066e-001  7.071069e-001  0.000000e+000
    outer loop
      vertex  2.750000e+001  1.066987e+001  1.000000e+001
      vertex  2.750000e+001  1.066987e+001  0.000000e+000
      vertex  2.566987e+001  1.250000e+001  0.000000e+000
    endloop
  endfacet
  facet normal  7.071066e-001  7.071069e-001  -0.000000e+000
    outer loop
      vertex  2.750000e+001  1.066987e+001  1.000000e+001
      vertex  2.566987e+001  1.250000e+001  0.000000e+000
      vertex  2.566987e+001  1.250000e+001  1.000000e+001
    endloop
  endfacet
  facet normal  9.659259e-001  2.588188e-001  0.000000e+000
    outer loop
      vertex  2.566987e+001  1.250000e+001  1.000000e+001
      vertex  2.566987e+001  1.250000e+001  0.000000e+000
      vertex  2.500000e+001  1.500000e+001  0.000000e+000
    endloop
  endfacet
  facet normal  9.659259e-001  2.588188e-001  -0.000000e+000
    outer loop
      vertex  2.566987e+001  1.250000e+001  1.000000e+001
      vertex  2.500000e+001  1.500000e+001  0.000000e+000
      vertex  2.500000e+001  1.500000e+001  1.000000e+001
    endloop
  endfacet
  facet normal  2.588188e-001 -9.659259e-001  0.000000e+000
    outer loop
      vertex  3.000000e+001  2.000000e+001  0.000000e+000
      vertex  2.750000e+001  1.933013e+001  1.000000e+001
      vertex  2.750000e+001  1.933013e+001  0.000000e+000
    endloop
  endfacet
  facet normal  7.071068e-001 -7.071068e-001  0.000000e+000
    outer loop
      vertex  2.750000e+001  1.933013e+001  0.000000e+000
      vertex  2.750000e+001  1.933013e+001  1.000000e+001
      vertex  2.566987e+001  1.750000e+001  1.000000e+001
    endloop
  endfacet
  facet normal  7.071068e-001 -7.071068e-001  0.000000e+000
    outer loop
      vertex  2.750000e+001  1.933013e+001  0.000000e+000
      vertex  2.566987e+001  1.750000e+001  1.000000e+001
      vertex  2.566987e+001  1.750000e+001  0.000000e+000
    endloop
  endfacet
  facet normal  9.659259e-001 -2.588188e-001  0.000000e+000
    outer loop
      vertex  2.566987e+001  1.750000e+001  0.000000e+000
      vertex  2.566987e+001  1.750000e+001  1.000000e+001
      vertex  2.500000e+001  1.500000e+001  1.000000e+001
    endloop
  endfacet
  facet normal  9.659259e-001 -2.588188e-001  0.000000e+000
    outer loop
      vertex  2.566987e+001  1.750000e+001  0.000000e+000
      vertex  2.500000e+001  1.500000e+001  1.000000e+001
      vertex  2.500000e+001  1.500000e+001  0.000000e+000
    endloop
  endfacet
  facet normal  2.588188e-001 -9.659259e-001  0.000000e+000
    outer loop
      vertex  2.750000e+001  1.933013e+001  1.000000e+001
      vertex  3.000000e+001  2.000000e+001  0.000000e+000
      vertex  3.000000e+001  2.000000e+001  1.000000e+001
    endloop
  endfacet
  facet normal -2.588188e-001 -9.659259e-001  -0.000000e+000
    outer loop
      vertex  3.000000e+001  2.000000e+001  1.000000e+001
      vertex  3.000000e+001  2.000000e+001  0.000000e+000
      vertex  3.250000e+001  1.933013e+001  0.000000e+000
    endloop
  endfacet
  facet normal -2.588188e-001 -9.659259e-001  0.000000e+000
    outer loop
      vertex  3.000000e+001  2.000000e+001  1.000000e+001
      vertex  3.250000e+001  1.933013e+001  0.000000e+000
      vertex  3.250000e+001  1.933013e+001  1.000000e+001
    endloop
  endfacet
  facet normal -7.071068e-001 -7.071068e-001  -0.000000e+000
    outer loop
      vertex  3.250000e+001  1.933013e+001  1.000000e+001
      vertex  3.250000e+001  1.933013e+001  0.000000e+000
      vertex  3.433013e+001  1.750000e+001  0.000000e+000
    endloop
  endfacet
  facet normal -7.071068e-001 -7.071068e-001  0.000000e+000
    outer loop
      vertex  3.250000e+001  1.933013e+001  1.000000e+001
      vertex  3.433013e+001  1.750000e+001  0.000000e+000
      vertex  3.433013e+001  1.750000e+001  1.000000e+001
    endloop
  endfacet
  facet normal -9.659259e-001 -2.588188e-001  -0.000000e+000
    outer loop
      vertex  3.433013e+001  1.750000e+001  1.000000e+001
      vertex  3.433013e+001  1.750000e+001  0.000000e+000
      vertex  3.500000e+001  1.500000e+001  0.000000e+000
    endloop
  endfacet
  facet normal -9.659259e-001 -2.588188e-001  0.000000e+000
    outer loop
      vertex  3.433013e+001  1.750000e+001  1.000000e+001
      vertex  3.500000e+001  1.500000e+001  0.000000e+000
      vertex  3.500000e+001  1.500000e+001  1.000000e+001
    endloop
  endfacet
  facet normal -2.588192e-001  9.659259e-001  0.000000e+000
    outer loop
      vertex -3.000000e+001  1.000000e+001  0.000000e+000
      vertex -2.750000e+001  1.066987e+001  1.000000e+001
      vertex -2.750000e+001  1.066987e+001  0.000000e+000
    endloop
  endfacet
  facet normal -7.071066e-001  7.071069e-001  0.000000e+000
    outer loop
      vertex -2.750000e+001  1.066987e+001  0.000000e+000
      vertex -2.750000e+001  1.066987e+001  1.000000e+001
      vertex -2.566987e+001  1.250000e+001  1.000000e+001
    endloop
  endfacet
  facet normal -7.071066e-001  7.071069e-001  0.000000e+000
    outer loop
      vertex -2.750000e+001  1.066987e+001  0.000000e+000
      vertex -2.566987e+001  1.250000e+001  1.000000e+001
      vertex -2.566987e+001  1.250000e+001  0.000000e+000
    endloop
  endfacet
  facet normal -9.659259e-001  2.588188e-001  0.000000e+000
    outer loop
      vertex -2.566987e+001  1.250000e+001  0.000000e+000
      vertex -2.566987e+001  1.250000e+001  1.000000e+001
      vertex -2.500000e+001  1.500000e+001  1.000000e+001
    endloop
  endfacet
  facet normal -9.659259e-001  2.588188e-001  0.000000e+000
    outer loop
      vertex -2.566987e+001  1.250000e+001  0.000000e+000
      vertex -2.500000e+001  1.500000e+001  1.000000e+001
      vertex -2.500000e+001  1.500000e+001  0.000000e+000
    endloop
  endfacet
  facet normal -2.588192e-001  9.659259e-001  0.000000e+000
    outer loop
      vertex -2.750000e+001  1.066987e+001  1.000000e+001
      vertex -3.000000e+001  1.000000e+001  0.000000e+000
      vertex -3.000000e+001  1.000000e+001  1.000000e+001
    endloop
  endfacet
  facet normal  2.588192e-001  9.659259e-001  0.000000e+000
    outer loop
      vertex -3.000000e+001  1.000000e+001  1.000000e+001
      vertex -3.000000e+001  1.000000e+001  0.000000e+000
      vertex -3.250000e+001  1.066987e+001  0.000000e+000
    endloop
  endfacet
  facet normal  2.588192e-001  9.659259e-001  -0.000000e+000
    outer loop
      vertex -3.000000e+001  1.000000e+001  1.000000e+001
      vertex -3.250000e+001  1.066987e+001  0.000000e+000
      vertex -3.250000e+001  1.066987e+001  1.000000e+001
    endloop
  endfacet
  facet normal  7.071066e-001  7.071069e-001  0.000000e+000
    outer loop
      vertex -3.250000e+001  1.066987e+001  1.000000e+001
      vertex -3.250000e+001  1.066987e+001  0.000000e+000
      vertex -3.433013e+001  1.250000e+001  0.000000e+000
    endloop
  endfacet
  facet normal  7.071066e-001  7.071069e-001  -0.000000e+000
    outer loop
      vertex -3.250000e+001  1.066987e+001  1.000000e+001
      vertex -3.433013e+001  1.250000e+001  0.000000e+000
      vertex -3.433013e+001  1.250000e+001  1.000000e+001
    endloop
  endfacet
  facet normal  9.659259e-001  2.588188e-001  0.000000e+000
    outer loop
      vertex -3.433013e+001  1.250000e+001  1.000000e+001
      vertex -3.433013e+001  1.250000e+001  0.000000e+000
      vertex -3.500000e+001  1.500000e+001  0.000000e+000
    endloop
  endfacet
  facet normal  9.659259e-001  2.588188e-001  -0.000000e+000
    outer loop
      vertex -3.433013e+001  1.250000e+001  1.000000e+001
      vertex -3.500000e+001  1.500000e+001  0.000000e+000
      vertex -3.500000e+001  1.500000e+001  1.000000e+001
    endloop
  endfacet
  facet normal  2.588188e-001 -9.659259e-001  0.000000e+000
    outer loop
      vertex -3.000000e+001  2.000000e+001  0.000000e+000
      vertex -3.250000e+001  1.933013e+001  1.000000e+001
      vertex -3.250000e+001  1.933013e+001  0.000000e+000
    endloop
  endfacet
  facet normal  7.071068e-001 -7.071068e-001  0.000000e+000
    outer loop
      vertex -3.250000e+001  1.933013e+001  0.000000e+000
      vertex -3.250000e+001  1.933013e+001  1.000000e+001
      vertex -3.433013e+001  1.750000e+001  1.000000e+001
    endloop
  endfacet
  facet normal  7.071068e-001 -7.071068e-001  0.000000e+000
    outer loop
      vertex -3.250000e+001  1.933013e+001  0.000000e+000
      vertex -3.433013e+001  1.750000e+001  1.000000e+001
      vertex -3.433013e+001  1.750000e+001  0.000000e+000
    endloop
  endfacet
  facet normal  9.659259e-001 -2.588188e-001  0.000000e+000
    outer loop
      vertex -3.433013e+001  1.750000e+001  0.000000e+000
      vertex -3.433013e+001  1.750000e+001  1.000000e+001
      vertex -3.500000e+001  1.500000e+001  1.000000e+001
    endloop
  endfacet
  facet normal  9.659259e-001 -2.588188e-001  0.000000e+000
    outer loop
      vertex -3.433013e+001  1.750000e+001  0.000000e+000
      vertex -3.500000e+001  1.500000e+001  1.000000e+001
      vertex -3.500000e+001  1.500000e+001  0.000000e+000
    endloop
  endfacet
  facet normal  2.588188e-001 -9.659259e-001  0.000000e+000
    outer loop
      vertex -3.250000e+001  1.933013e+001  1.000000e+001
      vertex -3.000000e+001  2.000000e+001  0.000000e+000
      vertex -3.000000e+001  2.000000e+001  1.000000e+001
    endloop
  endfacet
  facet normal -2.588188e-001 -9.659259e-001  -0.000000e+000
    outer loop
      vertex -3.000000e+001  2.000000e+001  1.000000e+001
      vertex -3.000000e+001  2.000000e+001  0.000000e+000
      vertex -2.750000e+001  1.933013e+001  0.000000e+000
    endloop
  endfacet
  facet normal -2.588188e-001 -9.659259e-001  0.000000e+000
    outer loop
      vertex -3.000000e+001  2.000000e+001  1.000000e+001
      vertex -2.750000e+001  1.933013e+001  0.000000e+000
      vertex -2.750000e+001  1.933013e+001  1.000000e+001
    endloop
  endfacet
  facet normal -7.071068e-001 -7.071068e-001  -0.000000e+000
    outer loop
      vertex -2.750000e+001  1.933013e+001  1.000000e+001
      vertex -2.750000e+001  1.933013e+001  0.000000e+000
      vertex -2.566987e+001  1.750000e+001  0.000000e+000
    endloop
  endfacet
  facet normal -7.071068e-001 -7.071068e-001  0.000000e+000
    outer loop
      vertex -2.750000e+001  1.933013e+001  1.000000e+001
      vertex -2.566987e+001  1.750000e+001  0.000000e+000
      vertex -2.566987e+001  1.750000e+001  1.000000e+001
    endloop
  endfacet
  facet normal -9.659259e-001 -2.588188e-001  -0.000000e+000
    outer loop
      vertex -2.566987e+001  1.750000e+001  1.000000e+001
      vertex -2.566987e+001  1.750000e+001  0.000000e+000
      vertex -2.500000e+001  1.500000e+001  0.000000e+000
    endloop
  endfacet
  facet normal -9.659259e-001 -2.588188e-001  0.000000e+000
    outer loop
      vertex -2.566987e+001  1.750000e+001  1.000000e+001
      vertex -2.500000e+001  1.500000e+001  0.000000e+000
      vertex -2.500000e+001  1.500000e+001  1.000000e+001
    endloop
  endfacet
  facet normal -2.588190e-001  9.659259e-001  0.000000e+000
    outer loop
      vertex -9.184548e-016 -5.000000e+000  0.000000e+000
      vertex  2.500000e+000 -4.330127e+000  1.000000e+001
      vertex  2.500000e+000 -4.330127e+000  0.000000e+000
    endloop
  endfacet
  facet normal -7.071068e-001  7.071068e-001  0.000000e+000
    outer loop
      vertex  2.500000e+000 -4.330127e+000  0.000000e+000
      vertex  2.500000e+000 -4.330127e+000  1.000000e+001
      vertex  4.330127e+000 -2.500000e+000  1.000000e+001
    endloop
  endfacet
  facet normal -7.071068e-001  7.071068e-001  0.000000e+000
    outer loop
      vertex  2.500000e+000 -4.330127e+000  0.000000e+000
      vertex  4.330127e+000 -2.500000e+000  1.000000e+001
      vertex  4.330127e+000 -2.500000e+000  0.000000e+000
    endloop
  endfacet
  facet normal -9.659259e-001  2.588190e-001  0.000000e+000
    outer loop
      vertex  4.330127e+000 -2.500000e+000  0.000000e+000
      vertex  4.330127e+000 -2.500000e+000  1.000000e+001
      vertex  5.000000e+000  0.000000e+000  1.000000e+001
    endloop
  endfacet
  facet normal -9.659259e-001  2.588190e-001  0.000000e+000
    outer loop
      vertex  4.330127e+000 -2.500000e+000  0.000000e+000
      vertex  5.000000e+000  0.000000e+000  1.000000e+001
      vertex  5.000000e+000  0.000000e+000  0.000000e+000
    endloop
  endfacet
  facet normal -2.588190e-001  9.659259e-001  0.000000e+000
    outer loop
      vertex  2.500000e+000 -4.330127e+000  1.000000e+001
      vertex -9.184548e-016 -5.000000e+000  0.000000e+000
      vertex -9.184548e-016 -5.000000e+000  1.000000e+001
    endloop
  endfacet
  facet normal  2.588190e-001  9.659259e-001  0.000000e+000
    outer loop
      vertex -9.184548e-016 -5.000000e+000  1.000000e+001
      vertex -9.184548e-016 -5.000000e+000  0.000000e+000
      vertex -2.500000e+000 -4.330127e+000  0.000000e+000
    endloop
  endfacet
  facet normal  2.588190e-001  9.659259e-001  -0.000000e+000
    outer loop
      vertex -9.184548e-016 -5.000000e+000  1.000000e+001
      vertex -2.500000e+000 -4.330127e+000  0.000000e+000
      vertex -2.500000e+000 -4.330127e+000  1.000000e+001
    endloop
  endfacet
  facet normal  7.071068e-001  7.071068e-001  0.000000e+000
    outer loop
      vertex -2.500000e+000 -4.330127e+000  1.000000e+001
      vertex -2.500000e+000 -4.330127e+000  0.000000e+000
      vertex -4.330127e+000 -2.500000e+000  0.000000e+000
    endloop
  endfacet
  facet normal  7.071068e-001  7.071068e-001  -0.000000e+000
    outer loop
      vertex -2.500000e+000 -4.330127e+000  1.000000e+001
      vertex -4.330127e+000 -2.500000e+000  0.000000e+000
      vertex -4.330127e+000 -2.500000e+000  1.000000e+001
    endloop
  endfacet
  facet normal  9.659259e-001  2.588190e-001  0.000000e+000
    outer loop
      vertex -4.330127e+000 -2.500000e+000  1.000000e+001
      vertex -4.330127e+000 -2.500000e+000  0.000000e+000
      vertex -5.000000e+000  6.123032e-016  0.000000e+000
    endloop
  endfacet
  facet normal  9.659259e-001  2.588190e-001  -0.000000e+000
    outer loop
      vertex -4.330127e+000 -2.500000e+000  1.000000e+001
      vertex -5.000000e+000  6.123032e-016  0.000000e+000
      vertex -5.000000e+000  6.123032e-016  1.000000e+001
    endloop
  endfacet
  facet normal  2.588190e-001 -9.659259e-001  0.000000e+000
    outer loop
      vertex  3.061516e-016  5.000000e+000  0.000000e+000
      vertex -2.500000e+000  4.330127e+000  1.000000e+001
      vertex -2.500000e+000  4.330127e+000  0.000000e+000
    endloop
  endfacet
  facet normal  7.071068e-001 -7.071068e-001  0.000000e+000
    outer loop
      vertex -2.500000e+000  4.330127e+000  0.000000e+000
      vertex -2.500000e+000  4.330127e+000  1.000000e+001
      vertex -4.330127e+000  2.500000e+000  1.000000e+001
    endloop
  endfacet
  facet normal  7.071068e-001 -7.071068e-001  0.000000e+000
    outer loop
      vertex -2.500000e+000  4.330127e+000  0.000000e+000
      vertex -4.330127e+000  2.500000e+000  1.000000e+001
      vertex -4.330127e+000  2.500000e+000  0.000000e+000
    endloop
  endfacet
  facet normal  9.659259e-001 -2.588190e-001  0.000000e+000
    outer loop
      vertex -4.330127e+000  2.500000e+000  0.000000e+000
      vertex -4.330127e+000  2.500000e+000  1.000000e+001
      vertex -5.000000e+000  6.123032e-016  1.000000e+001
    endloop
  endfacet
  facet normal  9.659259e-001 -2.588190e-001  0.000000e+000
    outer loop
      vertex -4.330127e+000  2.500000e+000  0.000000e+000
      vertex -5.000000e+000  6.123032e-016  1.000000e+001
      vertex -5.000000e+000  6.123032e-016  0.000000e+000
    endloop
  endfacet
  facet normal  2.588190e-001 -9.659259e-001  0.000000e+000
    outer loop
      vertex -2.500000e+000  4.330127e+000  1.000000e+001
      vertex  3.061516e-016  5.000000e+000  0.000000e+000
      vertex  3.061516e-016  5.000000e+000  1.000000e+001
    endloop
  endfacet
  facet normal -2.588190e-001 -9.659259e-001  -0.000000e+000
    outer loop
      vertex  3.061516e-016  5.000000e+000  1.000000e+001
      vertex  3.061516e-016  5.000000e+000  0.000000e+000
      vertex  2.500000e+000  4.330127e+000  0.000000e+000
    endloop
  endfacet
  facet normal -2.588190e-001 -9.659259e-001  0.000000e+000
    outer loop
      vertex  3.061516e-016  5.000000e+000  1.000000e+001
      vertex  2.500000e+000  4.330127e+000  0.000000e+000
      vertex  2.500000e+000  4.330127e+000  1.000000e+001
    endloop
  endfacet
  facet normal -7.071068e-001 -7.071068e-001  -0.000000e+000
    outer loop
      vertex  2.500000e+000  4.330127e+000  1.000000e+001
      vertex  2.500000e+000  4.330127e+000  0.000000e+000
      vertex  4.330127e+000  2.500000e+000  0.000000e+000
    endloop
  endfacet
  facet normal -7.071068e-001 -7.071068e-001  0.000000e+000
    outer loop
      vertex  2.500000e+000  4.330127e+000  1.000000e+001
      vertex  4.330127e+000  2.500000e+000  0.000000e+000
      vertex  4.330127e+000  2.500000e+000  1.000000e+001
    endloop
  endfacet
  facet normal -9.659259e-001 -2.588190e-001  -0.000000e+000
    outer loop
      vertex  4.330127e+000  2.500000e+000  1.000000e+001
      vertex  4.330127e+000  2.500000e+000  0.000000e+000
      vertex  5.000000e+000  0.000000e+000  0.000000e+000
    endloop
  endfacet
  facet normal -9.659259e-001 -2.588190e-001  0.000000e+000
    outer loop
      vertex  4.330127e+000  2.500000e+000  1.000000e+001
      vertex  5.000000e+000  0.000000e+000  0.000000e+000
      vertex  5.000000e+000  0.000000e+000  1.000000e+001
    endloop
  endfacet
  facet normal  1.000000e+000  -0.000000e+000  0.000000e+000
    outer loop
      vertex  5.000000e+001  2.500000e+001  1.000000e+001
      vertex  5.000000e+001 -2.500000e+001  1.000000e+001
      vertex  5.000000e+001  2.500000e+001  0.000000e+000
    endloop
  endfacet
  facet normal  1.000000e+000  0.000000e+000  0.000000e+000
    outer loop
      vertex  5.000000e+001  2.500000e+001  0.000000e+000
      vertex  5.000000e+001 -2.500000e+001  1.000000e+001
      vertex  5.000000e+001 -2.500000e+001  0.000000e+000
    endloop
  endfacet
  facet normal  0.000000e+000 -1.000000e+000  0.000000e+000
    outer loop
      vertex  5.000000e+001 -2.500000e+001  1.000000e+001
      vertex -5.000000e+001 -2.500000e+001  1.000000e+001
      vertex  5.000000e+001 -2.500000e+001  0.000000e+000
    endloop
  endfacet
  facet normal  0.000000e+000 -1.000000e+000  0.000000e+000
    outer loop
      vertex  5.000000e+001 -2.500000e+001  0.000000e+000
      vertex -5.000000e+001 -2.500000e+001  1.000000e+001
      vertex -5.000000e+001 -2.500000e+001  0.000000e+000
    endloop
  endfacet
  facet normal -1.000000e+000  -0.000000e+000  0.000000e+000
    outer loop
      vertex -5.000000e+001 -2.500000e+001  1.000000e+001
      vertex -5.000000e+001  2.500000e+001  1.000000e+001
      vertex -5.000000e+001 -2.500000e+001  0.000000e+000
    endloop
  endfacet
  facet normal -1.000000e+000  0.000000e+000  0.000000e+000
    outer loop
      vertex -5.000000e+001 -2.500000e+001  0.000000e+000
      vertex -5.000000e+001  2.500000e+001  1.000000e+001
      vertex -5.000000e+001  2.500000e+001  0.000000e+000
    endloop
  endfacet
  facet normal  0.000000e+000  1.000000e+000  0.000000e+000
    outer loop
      vertex -5.000000e+001  2.500000e+001  1.000000e+001
      vertex  5.000000e+001  2.500000e+001  1.000000e+001
      vertex -5.000000e+001  2.500000e+001  0.000000e+000
    endloop
  endfacet
  facet normal  0.000000e+000  1.000000e+000  0.000000e+000
    outer loop
      vertex -5.000000e+001  2.500000e+001  0.000000e+000
      vertex  5.000000e+001  2.500000e+001  1.000000e+001
      vertex  5.000000e+001  2.500000e+001  0.000000e+000
    endloop
  endfacet
endsolid CATIA STL
