solid CATIA STL
  facet normal -7.530372e-001  2.538359e-001 -6.070439e-001
    outer loop
      vertex -7.459452e+000  4.500000e+001 -4.075117e+000
      vertex -8.184492e+000  3.000000e+001 -9.447968e+000
      vertex -1.096978e+001  3.000000e+001 -5.992819e+000
    endloop
  endfacet
  facet normal -7.412538e-001  2.578132e-001 -6.197379e-001
    outer loop
      vertex -7.459452e+000  4.500000e+001 -4.075117e+000
      vertex -5.332155e+000  4.500000e+001 -6.619526e+000
      vertex -8.184492e+000  3.000000e+001 -9.447968e+000
    endloop
  endfacet
  facet normal  9.216439e-001  2.591788e-001  2.887885e-001
    outer loop
      vertex  7.459452e+000  4.500000e+001  4.075117e+000
      vertex  1.235040e+001  3.000000e+001  1.928112e+000
      vertex  8.451115e+000  4.500000e+001  9.103087e-001
    endloop
  endfacet
  facet normal  9.157965e-001  2.540845e-001  3.110593e-001
    outer loop
      vertex  7.459452e+000  4.500000e+001  4.075117e+000
      vertex  1.096978e+001  3.000000e+001  5.992819e+000
      vertex  1.235040e+001  3.000000e+001  1.928112e+000
    endloop
  endfacet
  facet normal -4.471900e-001  2.616303e-001 -8.553191e-001
    outer loop
      vertex -5.332155e+000  4.500000e+001 -6.619526e+000
      vertex -2.393086e+000  4.500000e+001 -8.156172e+000
      vertex -4.367517e+000  3.000000e+001 -1.171216e+001
    endloop
  endfacet
  facet normal -4.938644e-001  2.509000e-001 -8.325546e-001
    outer loop
      vertex -4.367517e+000  3.000000e+001 -1.171216e+001
      vertex -8.184492e+000  3.000000e+001 -9.447968e+000
      vertex -5.332155e+000  4.500000e+001 -6.619526e+000
    endloop
  endfacet
  facet normal  2.881671e-001  2.668031e-001 -9.196607e-001
    outer loop
      vertex  9.103087e-001  4.500000e+001 -8.451115e+000
      vertex  4.075117e+000  4.500000e+001 -7.459452e+000
      vertex  4.229020e+000  3.000000e+001 -1.176288e+001
    endloop
  endfacet
  facet normal  6.180589e-001  2.674308e-001 -7.392455e-001
    outer loop
      vertex  4.075117e+000  4.500000e+001 -7.459452e+000
      vertex  6.619526e+000  4.500000e+001 -5.332155e+000
      vertex  7.959273e+000  3.000000e+001 -9.638463e+000
    endloop
  endfacet
  facet normal  4.796080e-001  2.465271e-001 -8.421406e-001
    outer loop
      vertex  7.959273e+000  3.000000e+001 -9.638463e+000
      vertex  4.229020e+000  3.000000e+001 -1.176288e+001
      vertex  4.075117e+000  4.500000e+001 -7.459452e+000
    endloop
  endfacet
  facet normal  8.541690e-001  2.663713e-001 -4.465888e-001
    outer loop
      vertex  6.619526e+000  4.500000e+001 -5.332155e+000
      vertex  8.156172e+000  4.500000e+001 -2.393086e+000
      vertex  1.075082e+001  3.000000e+001 -6.377294e+000
    endloop
  endfacet
  facet normal  7.362112e-001  2.466763e-001 -6.301935e-001
    outer loop
      vertex  1.075082e+001  3.000000e+001 -6.377294e+000
      vertex  7.959273e+000  3.000000e+001 -9.638463e+000
      vertex  6.619526e+000  4.500000e+001 -5.332155e+000
    endloop
  endfacet
  facet normal  9.608039e-001  2.636226e-001 -8.578516e-002
    outer loop
      vertex  8.156172e+000  4.500000e+001 -2.393086e+000
      vertex  8.451115e+000  4.500000e+001  9.103087e-001
      vertex  1.227443e+001  3.000000e+001 -2.363994e+000
    endloop
  endfacet
  facet normal  9.056915e-001  2.479910e-001 -3.438361e-001
    outer loop
      vertex  1.227443e+001  3.000000e+001 -2.363994e+000
      vertex  1.075082e+001  3.000000e+001 -6.377294e+000
      vertex  8.156172e+000  4.500000e+001 -2.393086e+000
    endloop
  endfacet
  facet normal  9.679742e-001  2.504646e-001 -1.713409e-002
    outer loop
      vertex  1.235040e+001  3.000000e+001  1.928112e+000
      vertex  1.227443e+001  3.000000e+001 -2.363994e+000
      vertex  8.451115e+000  4.500000e+001  9.103087e-001
    endloop
  endfacet
  facet normal -1.719466e-001  2.486093e-001 -9.532197e-001
    outer loop
      vertex  1.530758e-015  3.000000e+001 -1.250000e+001
      vertex -4.367517e+000  3.000000e+001 -1.171216e+001
      vertex -2.393086e+000  4.500000e+001 -8.156172e+000
    endloop
  endfacet
  facet normal -8.576411e-002  2.644868e-001 -9.605681e-001
    outer loop
      vertex  1.530758e-015  3.000000e+001 -1.250000e+001
      vertex -2.393086e+000  4.500000e+001 -8.156172e+000
      vertex  9.103087e-001  4.500000e+001 -8.451115e+000
    endloop
  endfacet
  facet normal  1.663669e-001  2.475440e-001 -9.544863e-001
    outer loop
      vertex  1.530758e-015  3.000000e+001 -1.250000e+001
      vertex  9.103087e-001  4.500000e+001 -8.451115e+000
      vertex  4.229020e+000  3.000000e+001 -1.176288e+001
    endloop
  endfacet
  facet normal  7.530372e-001  2.538359e-001  6.070439e-001
    outer loop
      vertex  7.459452e+000  4.500000e+001  4.075117e+000
      vertex  8.184492e+000  3.000000e+001  9.447968e+000
      vertex  1.096978e+001  3.000000e+001  5.992819e+000
    endloop
  endfacet
  facet normal  7.412538e-001  2.578132e-001  6.197379e-001
    outer loop
      vertex  7.459452e+000  4.500000e+001  4.075117e+000
      vertex  5.332155e+000  4.500000e+001  6.619526e+000
      vertex  8.184492e+000  3.000000e+001  9.447968e+000
    endloop
  endfacet
  facet normal -9.216439e-001  2.591788e-001 -2.887885e-001
    outer loop
      vertex -7.459452e+000  4.500000e+001 -4.075117e+000
      vertex -1.235040e+001  3.000000e+001 -1.928112e+000
      vertex -8.451115e+000  4.500000e+001 -9.103087e-001
    endloop
  endfacet
  facet normal -9.157965e-001  2.540845e-001 -3.110593e-001
    outer loop
      vertex -7.459452e+000  4.500000e+001 -4.075117e+000
      vertex -1.096978e+001  3.000000e+001 -5.992819e+000
      vertex -1.235040e+001  3.000000e+001 -1.928112e+000
    endloop
  endfacet
  facet normal  4.471900e-001  2.616303e-001  8.553191e-001
    outer loop
      vertex  5.332155e+000  4.500000e+001  6.619526e+000
      vertex  2.393086e+000  4.500000e+001  8.156172e+000
      vertex  4.367517e+000  3.000000e+001  1.171216e+001
    endloop
  endfacet
  facet normal  4.938644e-001  2.509000e-001  8.325546e-001
    outer loop
      vertex  4.367517e+000  3.000000e+001  1.171216e+001
      vertex  8.184492e+000  3.000000e+001  9.447968e+000
      vertex  5.332155e+000  4.500000e+001  6.619526e+000
    endloop
  endfacet
  facet normal -2.881671e-001  2.668031e-001  9.196607e-001
    outer loop
      vertex -9.103087e-001  4.500000e+001  8.451115e+000
      vertex -4.075117e+000  4.500000e+001  7.459452e+000
      vertex -4.229020e+000  3.000000e+001  1.176288e+001
    endloop
  endfacet
  facet normal -6.180589e-001  2.674308e-001  7.392455e-001
    outer loop
      vertex -4.075117e+000  4.500000e+001  7.459452e+000
      vertex -6.619526e+000  4.500000e+001  5.332155e+000
      vertex -7.959273e+000  3.000000e+001  9.638463e+000
    endloop
  endfacet
  facet normal -4.796080e-001  2.465271e-001  8.421406e-001
    outer loop
      vertex -7.959273e+000  3.000000e+001  9.638463e+000
      vertex -4.229020e+000  3.000000e+001  1.176288e+001
      vertex -4.075117e+000  4.500000e+001  7.459452e+000
    endloop
  endfacet
  facet normal -8.541690e-001  2.663713e-001  4.465888e-001
    outer loop
      vertex -6.619526e+000  4.500000e+001  5.332155e+000
      vertex -8.156172e+000  4.500000e+001  2.393086e+000
      vertex -1.075082e+001  3.000000e+001  6.377294e+000
    endloop
  endfacet
  facet normal -7.362112e-001  2.466763e-001  6.301935e-001
    outer loop
      vertex -1.075082e+001  3.000000e+001  6.377294e+000
      vertex -7.959273e+000  3.000000e+001  9.638463e+000
      vertex -6.619526e+000  4.500000e+001  5.332155e+000
    endloop
  endfacet
  facet normal -9.608039e-001  2.636226e-001  8.578516e-002
    outer loop
      vertex -8.156172e+000  4.500000e+001  2.393086e+000
      vertex -8.451115e+000  4.500000e+001 -9.103087e-001
      vertex -1.227443e+001  3.000000e+001  2.363994e+000
    endloop
  endfacet
  facet normal -9.056915e-001  2.479910e-001  3.438361e-001
    outer loop
      vertex -1.227443e+001  3.000000e+001  2.363994e+000
      vertex -1.075082e+001  3.000000e+001  6.377294e+000
      vertex -8.156172e+000  4.500000e+001  2.393086e+000
    endloop
  endfacet
  facet normal -9.679742e-001  2.504646e-001  1.713409e-002
    outer loop
      vertex -1.235040e+001  3.000000e+001 -1.928112e+000
      vertex -1.227443e+001  3.000000e+001  2.363994e+000
      vertex -8.451115e+000  4.500000e+001 -9.103087e-001
    endloop
  endfacet
  facet normal  1.719466e-001  2.486093e-001  9.532197e-001
    outer loop
      vertex -3.061516e-015  3.000000e+001  1.250000e+001
      vertex  4.367517e+000  3.000000e+001  1.171216e+001
      vertex  2.393086e+000  4.500000e+001  8.156172e+000
    endloop
  endfacet
  facet normal  8.576411e-002  2.644868e-001  9.605681e-001
    outer loop
      vertex -3.061516e-015  3.000000e+001  1.250000e+001
      vertex  2.393086e+000  4.500000e+001  8.156172e+000
      vertex -9.103087e-001  4.500000e+001  8.451115e+000
    endloop
  endfacet
  facet normal -1.663669e-001  2.475440e-001  9.544863e-001
    outer loop
      vertex -3.061516e-015  3.000000e+001  1.250000e+001
      vertex -9.103087e-001  4.500000e+001  8.451115e+000
      vertex -4.229020e+000  3.000000e+001  1.176288e+001
    endloop
  endfacet
  facet normal -9.396921e-001 -1.087465e-003  3.420199e-001
    outer loop
      vertex -1.082532e+001  0.000000e+000  6.250000e+000
      vertex -1.227443e+001  3.000000e+001  2.363994e+000
      vertex -1.231010e+001  0.000000e+000  2.170602e+000
    endloop
  endfacet
  facet normal -9.998428e-001  1.074765e-003  1.769819e-002
    outer loop
      vertex -1.231010e+001  0.000000e+000  2.170602e+000
      vertex -1.227443e+001  3.000000e+001  2.363994e+000
      vertex -1.235040e+001  3.000000e+001 -1.928112e+000
    endloop
  endfacet
  facet normal -9.999990e-001 -1.343440e-003  0.000000e+000
    outer loop
      vertex -1.231010e+001  0.000000e+000  2.170602e+000
      vertex -1.235040e+001  3.000000e+001 -1.928112e+000
      vertex -1.231010e+001  0.000000e+000 -2.170602e+000
    endloop
  endfacet
  facet normal -7.660441e-001 -1.087464e-003 -6.427872e-001
    outer loop
      vertex -1.082532e+001  0.000000e+000 -6.250000e+000
      vertex -8.184492e+000  3.000000e+001 -9.447968e+000
      vertex -8.034845e+000  0.000000e+000 -9.575556e+000
    endloop
  endfacet
  facet normal -5.101833e-001  1.112898e-003 -8.600650e-001
    outer loop
      vertex -8.034845e+000  0.000000e+000 -9.575556e+000
      vertex -8.184492e+000  3.000000e+001 -9.447968e+000
      vertex -4.367517e+000  3.000000e+001 -1.171216e+001
    endloop
  endfacet
  facet normal -7.785353e-001  1.631185e-003 -6.275986e-001
    outer loop
      vertex -1.096978e+001  3.000000e+001 -5.992819e+000
      vertex -8.184492e+000  3.000000e+001 -9.447968e+000
      vertex -1.082532e+001  0.000000e+000 -6.250000e+000
    endloop
  endfacet
  facet normal -9.396914e-001 -1.593039e-003 -3.420197e-001
    outer loop
      vertex -1.096978e+001  3.000000e+001 -5.992819e+000
      vertex -1.082532e+001  0.000000e+000 -6.250000e+000
      vertex -1.231010e+001  0.000000e+000 -2.170602e+000
    endloop
  endfacet
  facet normal -9.468700e-001  1.327542e-003 -3.216138e-001
    outer loop
      vertex -1.096978e+001  3.000000e+001 -5.992819e+000
      vertex -1.231010e+001  0.000000e+000 -2.170602e+000
      vertex -1.235040e+001  3.000000e+001 -1.928112e+000
    endloop
  endfacet
  facet normal -1.736482e-001 -1.772089e-017  9.848077e-001
    outer loop
      vertex  0.000000e+000  0.000000e+000  1.250000e+001
      vertex -3.061516e-015  3.000000e+001  1.250000e+001
      vertex -4.275252e+000  0.000000e+000  1.174616e+001
    endloop
  endfacet
  facet normal -1.717111e-001 -2.845865e-004  9.851473e-001
    outer loop
      vertex -4.275252e+000  0.000000e+000  1.174616e+001
      vertex -3.061516e-015  3.000000e+001  1.250000e+001
      vertex -4.229020e+000  3.000000e+001  1.176288e+001
    endloop
  endfacet
  facet normal -4.999999e-001  2.877397e-004  8.660254e-001
    outer loop
      vertex -4.275252e+000  0.000000e+000  1.174616e+001
      vertex -4.229020e+000  3.000000e+001  1.176288e+001
      vertex -8.034845e+000  0.000000e+000  9.575556e+000
    endloop
  endfacet
  facet normal -4.948820e-001 -5.754877e-004  8.689600e-001
    outer loop
      vertex -8.034845e+000  0.000000e+000  9.575556e+000
      vertex -4.229020e+000  3.000000e+001  1.176288e+001
      vertex -7.959273e+000  3.000000e+001  9.638463e+000
    endloop
  endfacet
  facet normal -7.660444e-001  5.818516e-004  6.427874e-001
    outer loop
      vertex -8.034845e+000  0.000000e+000  9.575556e+000
      vertex -7.959273e+000  3.000000e+001  9.638463e+000
      vertex -1.082532e+001  0.000000e+000  6.250000e+000
    endloop
  endfacet
  facet normal -7.596869e-001 -8.727527e-004  6.502885e-001
    outer loop
      vertex -1.082532e+001  0.000000e+000  6.250000e+000
      vertex -7.959273e+000  3.000000e+001  9.638463e+000
      vertex -1.075082e+001  3.000000e+001  6.377294e+000
    endloop
  endfacet
  facet normal -9.348953e-001  8.156135e-004  3.549230e-001
    outer loop
      vertex -1.082532e+001  0.000000e+000  6.250000e+000
      vertex -1.075082e+001  3.000000e+001  6.377294e+000
      vertex -1.227443e+001  3.000000e+001  2.363994e+000
    endloop
  endfacet
  facet normal -1.775201e-001  0.000000e+000 -9.841172e-001
    outer loop
      vertex  1.530758e-015  3.000000e+001 -1.250000e+001
      vertex  1.530758e-015  0.000000e+000 -1.250000e+001
      vertex -4.367517e+000  3.000000e+001 -1.171216e+001
    endloop
  endfacet
  facet normal -1.736482e-001  5.818222e-004 -9.848076e-001
    outer loop
      vertex -4.367517e+000  3.000000e+001 -1.171216e+001
      vertex  1.530758e-015  0.000000e+000 -1.250000e+001
      vertex -4.275252e+000  0.000000e+000 -1.174616e+001
    endloop
  endfacet
  facet normal -4.999999e-001 -5.564651e-004 -8.660253e-001
    outer loop
      vertex -4.367517e+000  3.000000e+001 -1.171216e+001
      vertex -4.275252e+000  0.000000e+000 -1.174616e+001
      vertex -8.034845e+000  0.000000e+000 -9.575556e+000
    endloop
  endfacet
  facet normal  9.396921e-001 -1.087465e-003 -3.420199e-001
    outer loop
      vertex  1.082532e+001  0.000000e+000 -6.250000e+000
      vertex  1.227443e+001  3.000000e+001 -2.363994e+000
      vertex  1.231010e+001  0.000000e+000 -2.170602e+000
    endloop
  endfacet
  facet normal  9.998428e-001  1.074765e-003 -1.769819e-002
    outer loop
      vertex  1.231010e+001  0.000000e+000 -2.170602e+000
      vertex  1.227443e+001  3.000000e+001 -2.363994e+000
      vertex  1.235040e+001  3.000000e+001  1.928112e+000
    endloop
  endfacet
  facet normal  9.999990e-001 -1.343440e-003  0.000000e+000
    outer loop
      vertex  1.231010e+001  0.000000e+000 -2.170602e+000
      vertex  1.235040e+001  3.000000e+001  1.928112e+000
      vertex  1.231010e+001  0.000000e+000  2.170602e+000
    endloop
  endfacet
  facet normal  7.660441e-001 -1.087464e-003  6.427872e-001
    outer loop
      vertex  1.082532e+001  0.000000e+000  6.250000e+000
      vertex  8.184492e+000  3.000000e+001  9.447968e+000
      vertex  8.034845e+000  0.000000e+000  9.575556e+000
    endloop
  endfacet
  facet normal  5.101833e-001  1.112898e-003  8.600650e-001
    outer loop
      vertex  8.034845e+000  0.000000e+000  9.575556e+000
      vertex  8.184492e+000  3.000000e+001  9.447968e+000
      vertex  4.367517e+000  3.000000e+001  1.171216e+001
    endloop
  endfacet
  facet normal  7.785353e-001  1.631185e-003  6.275986e-001
    outer loop
      vertex  1.096978e+001  3.000000e+001  5.992819e+000
      vertex  8.184492e+000  3.000000e+001  9.447968e+000
      vertex  1.082532e+001  0.000000e+000  6.250000e+000
    endloop
  endfacet
  facet normal  9.396914e-001 -1.593039e-003  3.420197e-001
    outer loop
      vertex  1.096978e+001  3.000000e+001  5.992819e+000
      vertex  1.082532e+001  0.000000e+000  6.250000e+000
      vertex  1.231010e+001  0.000000e+000  2.170602e+000
    endloop
  endfacet
  facet normal  9.468700e-001  1.327542e-003  3.216138e-001
    outer loop
      vertex  1.096978e+001  3.000000e+001  5.992819e+000
      vertex  1.231010e+001  0.000000e+000  2.170602e+000
      vertex  1.235040e+001  3.000000e+001  1.928112e+000
    endloop
  endfacet
  facet normal  1.736482e-001  0.000000e+000 -9.848077e-001
    outer loop
      vertex  1.530758e-015  0.000000e+000 -1.250000e+001
      vertex  1.530758e-015  3.000000e+001 -1.250000e+001
      vertex  4.275252e+000  0.000000e+000 -1.174616e+001
    endloop
  endfacet
  facet normal  1.717111e-001 -2.845865e-004 -9.851473e-001
    outer loop
      vertex  4.275252e+000  0.000000e+000 -1.174616e+001
      vertex  1.530758e-015  3.000000e+001 -1.250000e+001
      vertex  4.229020e+000  3.000000e+001 -1.176288e+001
    endloop
  endfacet
  facet normal  4.999999e-001  2.877397e-004 -8.660254e-001
    outer loop
      vertex  4.275252e+000  0.000000e+000 -1.174616e+001
      vertex  4.229020e+000  3.000000e+001 -1.176288e+001
      vertex  8.034845e+000  0.000000e+000 -9.575556e+000
    endloop
  endfacet
  facet normal  4.948820e-001 -5.754877e-004 -8.689600e-001
    outer loop
      vertex  8.034845e+000  0.000000e+000 -9.575556e+000
      vertex  4.229020e+000  3.000000e+001 -1.176288e+001
      vertex  7.959273e+000  3.000000e+001 -9.638463e+000
    endloop
  endfacet
  facet normal  7.660444e-001  5.818516e-004 -6.427874e-001
    outer loop
      vertex  8.034845e+000  0.000000e+000 -9.575556e+000
      vertex  7.959273e+000  3.000000e+001 -9.638463e+000
      vertex  1.082532e+001  0.000000e+000 -6.250000e+000
    endloop
  endfacet
  facet normal  7.596869e-001 -8.727527e-004 -6.502885e-001
    outer loop
      vertex  1.082532e+001  0.000000e+000 -6.250000e+000
      vertex  7.959273e+000  3.000000e+001 -9.638463e+000
      vertex  1.075082e+001  3.000000e+001 -6.377294e+000
    endloop
  endfacet
  facet normal  9.348953e-001  8.156135e-004 -3.549230e-001
    outer loop
      vertex  1.082532e+001  0.000000e+000 -6.250000e+000
      vertex  1.075082e+001  3.000000e+001 -6.377294e+000
      vertex  1.227443e+001  3.000000e+001 -2.363994e+000
    endloop
  endfacet
  facet normal  1.775201e-001  1.811602e-017  9.841172e-001
    outer loop
      vertex -3.061516e-015  3.000000e+001  1.250000e+001
      vertex  0.000000e+000  0.000000e+000  1.250000e+001
      vertex  4.367517e+000  3.000000e+001  1.171216e+001
    endloop
  endfacet
  facet normal  1.736482e-001  5.818222e-004  9.848076e-001
    outer loop
      vertex  4.367517e+000  3.000000e+001  1.171216e+001
      vertex  0.000000e+000  0.000000e+000  1.250000e+001
      vertex  4.275252e+000  0.000000e+000  1.174616e+001
    endloop
  endfacet
  facet normal  4.999999e-001 -5.564651e-004  8.660253e-001
    outer loop
      vertex  4.367517e+000  3.000000e+001  1.171216e+001
      vertex  4.275252e+000  0.000000e+000  1.174616e+001
      vertex  8.034845e+000  0.000000e+000  9.575556e+000
    endloop
  endfacet
  facet normal  0.000000e+000  1.000000e+000  0.000000e+000
    outer loop
      vertex  8.451115e+000  4.500000e+001  9.103087e-001
      vertex -6.619526e+000  4.500000e+001  5.332155e+000
      vertex  7.459452e+000  4.500000e+001  4.075117e+000
    endloop
  endfacet
  facet normal  0.000000e+000  1.000000e+000  0.000000e+000
    outer loop
      vertex  7.459452e+000  4.500000e+001  4.075117e+000
      vertex -6.619526e+000  4.500000e+001  5.332155e+000
      vertex -4.075117e+000  4.500000e+001  7.459452e+000
    endloop
  endfacet
  facet normal  0.000000e+000  1.000000e+000  0.000000e+000
    outer loop
      vertex  7.459452e+000  4.500000e+001  4.075117e+000
      vertex -4.075117e+000  4.500000e+001  7.459452e+000
      vertex  5.332155e+000  4.500000e+001  6.619526e+000
    endloop
  endfacet
  facet normal  0.000000e+000  1.000000e+000  0.000000e+000
    outer loop
      vertex  5.332155e+000  4.500000e+001  6.619526e+000
      vertex -4.075117e+000  4.500000e+001  7.459452e+000
      vertex -9.103087e-001  4.500000e+001  8.451115e+000
    endloop
  endfacet
  facet normal  0.000000e+000  1.000000e+000  0.000000e+000
    outer loop
      vertex  5.332155e+000  4.500000e+001  6.619526e+000
      vertex -9.103087e-001  4.500000e+001  8.451115e+000
      vertex  2.393086e+000  4.500000e+001  8.156172e+000
    endloop
  endfacet
  facet normal  0.000000e+000  1.000000e+000  0.000000e+000
    outer loop
      vertex -6.619526e+000  4.500000e+001  5.332155e+000
      vertex  8.451115e+000  4.500000e+001  9.103087e-001
      vertex -8.156172e+000  4.500000e+001  2.393086e+000
    endloop
  endfacet
  facet normal  0.000000e+000  9.999999e-001  0.000000e+000
    outer loop
      vertex -8.156172e+000  4.500000e+001  2.393086e+000
      vertex  8.451115e+000  4.500000e+001  9.103087e-001
      vertex  8.156172e+000  4.500000e+001 -2.393086e+000
    endloop
  endfacet
  facet normal  0.000000e+000  9.999999e-001  0.000000e+000
    outer loop
      vertex -8.156172e+000  4.500000e+001  2.393086e+000
      vertex  8.156172e+000  4.500000e+001 -2.393086e+000
      vertex -8.451115e+000  4.500000e+001 -9.103087e-001
    endloop
  endfacet
  facet normal  0.000000e+000  1.000000e+000  0.000000e+000
    outer loop
      vertex -8.451115e+000  4.500000e+001 -9.103087e-001
      vertex  8.156172e+000  4.500000e+001 -2.393086e+000
      vertex  6.619526e+000  4.500000e+001 -5.332155e+000
    endloop
  endfacet
  facet normal  0.000000e+000  1.000000e+000  0.000000e+000
    outer loop
      vertex -8.451115e+000  4.500000e+001 -9.103087e-001
      vertex  6.619526e+000  4.500000e+001 -5.332155e+000
      vertex -7.459452e+000  4.500000e+001 -4.075117e+000
    endloop
  endfacet
  facet normal  0.000000e+000  1.000000e+000  0.000000e+000
    outer loop
      vertex -7.459452e+000  4.500000e+001 -4.075117e+000
      vertex  6.619526e+000  4.500000e+001 -5.332155e+000
      vertex  4.075117e+000  4.500000e+001 -7.459452e+000
    endloop
  endfacet
  facet normal  0.000000e+000  1.000000e+000  0.000000e+000
    outer loop
      vertex -7.459452e+000  4.500000e+001 -4.075117e+000
      vertex  4.075117e+000  4.500000e+001 -7.459452e+000
      vertex -5.332155e+000  4.500000e+001 -6.619526e+000
    endloop
  endfacet
  facet normal  0.000000e+000  1.000000e+000  0.000000e+000
    outer loop
      vertex -5.332155e+000  4.500000e+001 -6.619526e+000
      vertex  4.075117e+000  4.500000e+001 -7.459452e+000
      vertex  9.103087e-001  4.500000e+001 -8.451115e+000
    endloop
  endfacet
  facet normal  0.000000e+000  1.000000e+000  0.000000e+000
    outer loop
      vertex -5.332155e+000  4.500000e+001 -6.619526e+000
      vertex  9.103087e-001  4.500000e+001 -8.451115e+000
      vertex -2.393086e+000  4.500000e+001 -8.156172e+000
    endloop
  endfacet
  facet normal  0.000000e+000 -1.000000e+000  0.000000e+000
    outer loop
      vertex  0.000000e+000  0.000000e+000  1.250000e+001
      vertex  4.275252e+000  0.000000e+000 -1.174616e+001
      vertex  4.275252e+000  0.000000e+000  1.174616e+001
    endloop
  endfacet
  facet normal  0.000000e+000 -1.000000e+000  0.000000e+000
    outer loop
      vertex  4.275252e+000  0.000000e+000  1.174616e+001
      vertex  4.275252e+000  0.000000e+000 -1.174616e+001
      vertex  8.034845e+000  0.000000e+000 -9.575556e+000
    endloop
  endfacet
  facet normal  0.000000e+000 -1.000000e+000  0.000000e+000
    outer loop
      vertex  4.275252e+000  0.000000e+000  1.174616e+001
      vertex  8.034845e+000  0.000000e+000 -9.575556e+000
      vertex  8.034845e+000  0.000000e+000  9.575556e+000
    endloop
  endfacet
  facet normal  0.000000e+000 -1.000000e+000  0.000000e+000
    outer loop
      vertex  8.034845e+000  0.000000e+000  9.575556e+000
      vertex  8.034845e+000  0.000000e+000 -9.575556e+000
      vertex  1.082532e+001  0.000000e+000 -6.250000e+000
    endloop
  endfacet
  facet normal  0.000000e+000 -1.000000e+000  0.000000e+000
    outer loop
      vertex  8.034845e+000  0.000000e+000  9.575556e+000
      vertex  1.082532e+001  0.000000e+000 -6.250000e+000
      vertex  1.082532e+001  0.000000e+000  6.250000e+000
    endloop
  endfacet
  facet normal  0.000000e+000 -1.000000e+000  0.000000e+000
    outer loop
      vertex  1.082532e+001  0.000000e+000  6.250000e+000
      vertex  1.082532e+001  0.000000e+000 -6.250000e+000
      vertex  1.231010e+001  0.000000e+000 -2.170602e+000
    endloop
  endfacet
  facet normal  0.000000e+000 -1.000000e+000  0.000000e+000
    outer loop
      vertex  1.082532e+001  0.000000e+000  6.250000e+000
      vertex  1.231010e+001  0.000000e+000 -2.170602e+000
      vertex  1.231010e+001  0.000000e+000  2.170602e+000
    endloop
  endfacet
  facet normal  0.000000e+000 -9.999999e-001  0.000000e+000
    outer loop
      vertex  4.275252e+000  0.000000e+000 -1.174616e+001
      vertex  0.000000e+000  0.000000e+000  1.250000e+001
      vertex  1.530758e-015  0.000000e+000 -1.250000e+001
    endloop
  endfacet
  facet normal  0.000000e+000 -9.999999e-001  0.000000e+000
    outer loop
      vertex  1.530758e-015  0.000000e+000 -1.250000e+001
      vertex  0.000000e+000  0.000000e+000  1.250000e+001
      vertex -4.275252e+000  0.000000e+000  1.174616e+001
    endloop
  endfacet
  facet normal  0.000000e+000 -1.000000e+000  0.000000e+000
    outer loop
      vertex  1.530758e-015  0.000000e+000 -1.250000e+001
      vertex -4.275252e+000  0.000000e+000  1.174616e+001
      vertex -4.275252e+000  0.000000e+000 -1.174616e+001
    endloop
  endfacet
  facet normal  0.000000e+000 -1.000000e+000  0.000000e+000
    outer loop
      vertex -4.275252e+000  0.000000e+000 -1.174616e+001
      vertex -4.275252e+000  0.000000e+000  1.174616e+001
      vertex -8.034845e+000  0.000000e+000  9.575556e+000
    endloop
  endfacet
  facet normal  0.000000e+000 -1.000000e+000  0.000000e+000
    outer loop
      vertex -4.275252e+000  0.000000e+000 -1.174616e+001
      vertex -8.034845e+000  0.000000e+000  9.575556e+000
      vertex -8.034845e+000  0.000000e+000 -9.575556e+000
    endloop
  endfacet
  facet normal  0.000000e+000 -1.000000e+000  0.000000e+000
    outer loop
      vertex -8.034845e+000  0.000000e+000 -9.575556e+000
      vertex -8.034845e+000  0.000000e+000  9.575556e+000
      vertex -1.082532e+001  0.000000e+000  6.250000e+000
    endloop
  endfacet
  facet normal  0.000000e+000 -1.000000e+000  0.000000e+000
    outer loop
      vertex -8.034845e+000  0.000000e+000 -9.575556e+000
      vertex -1.082532e+001  0.000000e+000  6.250000e+000
      vertex -1.082532e+001  0.000000e+000 -6.250000e+000
    endloop
  endfacet
  facet normal  0.000000e+000 -1.000000e+000  0.000000e+000
    outer loop
      vertex -1.082532e+001  0.000000e+000 -6.250000e+000
      vertex -1.082532e+001  0.000000e+000  6.250000e+000
      vertex -1.231010e+001  0.000000e+000  2.170602e+000
    endloop
  endfacet
  facet normal  0.000000e+000 -1.000000e+000  0.000000e+000
    outer loop
      vertex -1.082532e+001  0.000000e+000 -6.250000e+000
      vertex -1.231010e+001  0.000000e+000  2.170602e+000
      vertex -1.231010e+001  0.000000e+000 -2.170602e+000
    endloop
  endfacet
endsolid CATIA STL
