solid CATIA STL
  facet normal  0.000000e+000  9.999999e-001  -0.000000e+000
    outer loop
      vertex  7.071068e+000  7.000000e+001 -7.071068e+000
      vertex  3.826834e+000  7.000000e+001 -9.238795e+000
      vertex  1.668907e+000  7.000000e+001 -7.311959e+000
    endloop
  endfacet
  facet normal  0.000000e+000  1.000000e+000  0.000000e+000
    outer loop
      vertex  1.668907e+000  7.000000e+001 -7.311959e+000
      vertex  3.826834e+000  7.000000e+001 -9.238795e+000
      vertex  1.836910e-015  7.000000e+001 -1.000000e+001
    endloop
  endfacet
  facet normal  0.000000e+000  1.000000e+000  -0.000000e+000
    outer loop
      vertex  1.668907e+000  7.000000e+001 -7.311959e+000
      vertex  1.836910e-015  7.000000e+001 -1.000000e+001
      vertex -1.668907e+000  7.000000e+001 -7.311959e+000
    endloop
  endfacet
  facet normal  0.000000e+000  1.000000e+000  0.000000e+000
    outer loop
      vertex -1.668907e+000  7.000000e+001 -7.311959e+000
      vertex  1.836910e-015  7.000000e+001 -1.000000e+001
      vertex -3.826834e+000  7.000000e+001 -9.238795e+000
    endloop
  endfacet
  facet normal  0.000000e+000  9.999999e-001  -0.000000e+000
    outer loop
      vertex -1.668907e+000  7.000000e+001 -7.311959e+000
      vertex -3.826834e+000  7.000000e+001 -9.238795e+000
      vertex -7.071068e+000  7.000000e+001 -7.071068e+000
    endloop
  endfacet
  facet normal  0.000000e+000  1.000000e+000  0.000000e+000
    outer loop
      vertex -6.123032e-016  7.000000e+001  1.000000e+001
      vertex  1.668907e+000  7.000000e+001  7.311959e+000
      vertex -3.826834e+000  7.000000e+001  9.238795e+000
    endloop
  endfacet
  facet normal  0.000000e+000  1.000000e+000  0.000000e+000
    outer loop
      vertex -3.826834e+000  7.000000e+001  9.238795e+000
      vertex  1.668907e+000  7.000000e+001  7.311959e+000
      vertex -1.668907e+000  7.000000e+001  7.311959e+000
    endloop
  endfacet
  facet normal  0.000000e+000  9.999999e-001  0.000000e+000
    outer loop
      vertex -3.826834e+000  7.000000e+001  9.238795e+000
      vertex -1.668907e+000  7.000000e+001  7.311959e+000
      vertex -7.071068e+000  7.000000e+001  7.071068e+000
    endloop
  endfacet
  facet normal  0.000000e+000  1.000000e+000  0.000000e+000
    outer loop
      vertex -6.123032e-016  7.000000e+001  1.000000e+001
      vertex  3.826834e+000  7.000000e+001  9.238795e+000
      vertex  1.668907e+000  7.000000e+001  7.311959e+000
    endloop
  endfacet
  facet normal  -0.000000e+000  9.999999e-001  0.000000e+000
    outer loop
      vertex  1.668907e+000  7.000000e+001  7.311959e+000
      vertex  3.826834e+000  7.000000e+001  9.238795e+000
      vertex  7.071068e+000  7.000000e+001  7.071068e+000
    endloop
  endfacet
  facet normal  0.000000e+000  1.000000e+000  0.000000e+000
    outer loop
      vertex  1.668907e+000  7.000000e+001  7.311959e+000
      vertex  7.071068e+000  7.000000e+001  7.071068e+000
      vertex  4.676174e+000  7.000000e+001  5.863736e+000
    endloop
  endfacet
  facet normal  -0.000000e+000  9.999999e-001  0.000000e+000
    outer loop
      vertex  4.676174e+000  7.000000e+001  5.863736e+000
      vertex  7.071068e+000  7.000000e+001  7.071068e+000
      vertex  9.238795e+000  7.000000e+001  3.826834e+000
    endloop
  endfacet
  facet normal  0.000000e+000  1.000000e+000  0.000000e+000
    outer loop
      vertex  4.676174e+000  7.000000e+001  5.863736e+000
      vertex  9.238795e+000  7.000000e+001  3.826834e+000
      vertex  6.757267e+000  7.000000e+001  3.254128e+000
    endloop
  endfacet
  facet normal  0.000000e+000  1.000000e+000  0.000000e+000
    outer loop
      vertex  6.757267e+000  7.000000e+001  3.254128e+000
      vertex  9.238795e+000  7.000000e+001  3.826834e+000
      vertex  7.500000e+000  7.000000e+001  4.249124e-015
    endloop
  endfacet
  facet normal  -0.000000e+000  1.000000e+000  0.000000e+000
    outer loop
      vertex  7.500000e+000  7.000000e+001  4.249124e-015
      vertex  9.238795e+000  7.000000e+001  3.826834e+000
      vertex  1.000000e+001  7.000000e+001  1.224606e-015
    endloop
  endfacet
  facet normal  0.000000e+000  1.000000e+000  0.000000e+000
    outer loop
      vertex  7.500000e+000  7.000000e+001  4.249124e-015
      vertex  1.000000e+001  7.000000e+001  1.224606e-015
      vertex  6.757267e+000  7.000000e+001 -3.254128e+000
    endloop
  endfacet
  facet normal  -0.000000e+000  1.000000e+000  0.000000e+000
    outer loop
      vertex  6.757267e+000  7.000000e+001 -3.254128e+000
      vertex  1.000000e+001  7.000000e+001  1.224606e-015
      vertex  9.238795e+000  7.000000e+001 -3.826834e+000
    endloop
  endfacet
  facet normal  0.000000e+000  1.000000e+000  0.000000e+000
    outer loop
      vertex  6.757267e+000  7.000000e+001 -3.254128e+000
      vertex  9.238795e+000  7.000000e+001 -3.826834e+000
      vertex  4.676174e+000  7.000000e+001 -5.863736e+000
    endloop
  endfacet
  facet normal  -0.000000e+000  9.999999e-001  0.000000e+000
    outer loop
      vertex  4.676174e+000  7.000000e+001 -5.863736e+000
      vertex  9.238795e+000  7.000000e+001 -3.826834e+000
      vertex  7.071068e+000  7.000000e+001 -7.071068e+000
    endloop
  endfacet
  facet normal  0.000000e+000  1.000000e+000  0.000000e+000
    outer loop
      vertex  4.676174e+000  7.000000e+001 -5.863736e+000
      vertex  7.071068e+000  7.000000e+001 -7.071068e+000
      vertex  1.668907e+000  7.000000e+001 -7.311959e+000
    endloop
  endfacet
  facet normal  0.000000e+000  1.000000e+000  0.000000e+000
    outer loop
      vertex -7.071068e+000  7.000000e+001  7.071068e+000
      vertex -1.668907e+000  7.000000e+001  7.311959e+000
      vertex -9.238795e+000  7.000000e+001  3.826834e+000
    endloop
  endfacet
  facet normal  0.000000e+000  1.000000e+000  0.000000e+000
    outer loop
      vertex -9.238795e+000  7.000000e+001  3.826834e+000
      vertex -1.668907e+000  7.000000e+001  7.311959e+000
      vertex -4.676174e+000  7.000000e+001  5.863736e+000
    endloop
  endfacet
  facet normal  0.000000e+000  1.000000e+000  0.000000e+000
    outer loop
      vertex -9.238795e+000  7.000000e+001  3.826834e+000
      vertex -4.676174e+000  7.000000e+001  5.863736e+000
      vertex -6.757267e+000  7.000000e+001  3.254128e+000
    endloop
  endfacet
  facet normal  0.000000e+000  1.000000e+000  0.000000e+000
    outer loop
      vertex -9.238795e+000  7.000000e+001  3.826834e+000
      vertex -6.757267e+000  7.000000e+001  3.254128e+000
      vertex -1.000000e+001  7.000000e+001  0.000000e+000
    endloop
  endfacet
  facet normal  0.000000e+000  1.000000e+000  0.000000e+000
    outer loop
      vertex -1.000000e+001  7.000000e+001  0.000000e+000
      vertex -6.757267e+000  7.000000e+001  3.254128e+000
      vertex -7.500000e+000  7.000000e+001  0.000000e+000
    endloop
  endfacet
  facet normal  0.000000e+000  1.000000e+000  0.000000e+000
    outer loop
      vertex -1.000000e+001  7.000000e+001  0.000000e+000
      vertex -7.500000e+000  7.000000e+001  0.000000e+000
      vertex -9.238795e+000  7.000000e+001 -3.826834e+000
    endloop
  endfacet
  facet normal  0.000000e+000  1.000000e+000  0.000000e+000
    outer loop
      vertex -9.238795e+000  7.000000e+001 -3.826834e+000
      vertex -7.500000e+000  7.000000e+001  0.000000e+000
      vertex -6.757267e+000  7.000000e+001 -3.254128e+000
    endloop
  endfacet
  facet normal  0.000000e+000  1.000000e+000  0.000000e+000
    outer loop
      vertex -9.238795e+000  7.000000e+001 -3.826834e+000
      vertex -6.757267e+000  7.000000e+001 -3.254128e+000
      vertex -7.071068e+000  7.000000e+001 -7.071068e+000
    endloop
  endfacet
  facet normal  0.000000e+000  1.000000e+000  0.000000e+000
    outer loop
      vertex -7.071068e+000  7.000000e+001 -7.071068e+000
      vertex -6.757267e+000  7.000000e+001 -3.254128e+000
      vertex -4.676174e+000  7.000000e+001 -5.863736e+000
    endloop
  endfacet
  facet normal  0.000000e+000  1.000000e+000  0.000000e+000
    outer loop
      vertex -7.071068e+000  7.000000e+001 -7.071068e+000
      vertex -4.676174e+000  7.000000e+001 -5.863736e+000
      vertex -1.668907e+000  7.000000e+001 -7.311959e+000
    endloop
  endfacet
  facet normal -9.749278e-001  -0.000000e+000 -2.225209e-001
    outer loop
      vertex -7.500000e+000  7.000000e+001  0.000000e+000
      vertex -7.500000e+000  1.000000e+002  0.000000e+000
      vertex -6.757267e+000  7.000000e+001 -3.254128e+000
    endloop
  endfacet
  facet normal -9.749278e-001  0.000000e+000 -2.225209e-001
    outer loop
      vertex -6.757267e+000  7.000000e+001 -3.254128e+000
      vertex -7.500000e+000  1.000000e+002  0.000000e+000
      vertex -6.757267e+000  1.000000e+002 -3.254128e+000
    endloop
  endfacet
  facet normal -7.818315e-001  -0.000000e+000 -6.234897e-001
    outer loop
      vertex -6.757267e+000  7.000000e+001 -3.254128e+000
      vertex -6.757267e+000  1.000000e+002 -3.254128e+000
      vertex -4.676174e+000  7.000000e+001 -5.863736e+000
    endloop
  endfacet
  facet normal -7.818315e-001  0.000000e+000 -6.234897e-001
    outer loop
      vertex -4.676174e+000  7.000000e+001 -5.863736e+000
      vertex -6.757267e+000  1.000000e+002 -3.254128e+000
      vertex -4.676174e+000  1.000000e+002 -5.863736e+000
    endloop
  endfacet
  facet normal -4.338837e-001  -0.000000e+000 -9.009689e-001
    outer loop
      vertex -4.676174e+000  7.000000e+001 -5.863736e+000
      vertex -4.676174e+000  1.000000e+002 -5.863736e+000
      vertex -1.668907e+000  7.000000e+001 -7.311959e+000
    endloop
  endfacet
  facet normal -4.338837e-001  0.000000e+000 -9.009689e-001
    outer loop
      vertex -1.668907e+000  7.000000e+001 -7.311959e+000
      vertex -4.676174e+000  1.000000e+002 -5.863736e+000
      vertex -1.668907e+000  1.000000e+002 -7.311959e+000
    endloop
  endfacet
  facet normal  0.000000e+000  0.000000e+000 -1.000000e+000
    outer loop
      vertex -1.668907e+000  7.000000e+001 -7.311959e+000
      vertex -1.668907e+000  1.000000e+002 -7.311959e+000
      vertex  1.668907e+000  7.000000e+001 -7.311959e+000
    endloop
  endfacet
  facet normal  0.000000e+000  0.000000e+000 -1.000000e+000
    outer loop
      vertex  1.668907e+000  7.000000e+001 -7.311959e+000
      vertex -1.668907e+000  1.000000e+002 -7.311959e+000
      vertex  1.668907e+000  1.000000e+002 -7.311959e+000
    endloop
  endfacet
  facet normal  4.338837e-001  0.000000e+000 -9.009689e-001
    outer loop
      vertex  1.668907e+000  7.000000e+001 -7.311959e+000
      vertex  1.668907e+000  1.000000e+002 -7.311959e+000
      vertex  4.676174e+000  7.000000e+001 -5.863736e+000
    endloop
  endfacet
  facet normal  4.338837e-001  0.000000e+000 -9.009689e-001
    outer loop
      vertex  4.676174e+000  7.000000e+001 -5.863736e+000
      vertex  1.668907e+000  1.000000e+002 -7.311959e+000
      vertex  4.676174e+000  1.000000e+002 -5.863736e+000
    endloop
  endfacet
  facet normal  7.818315e-001  0.000000e+000 -6.234897e-001
    outer loop
      vertex  4.676174e+000  7.000000e+001 -5.863736e+000
      vertex  4.676174e+000  1.000000e+002 -5.863736e+000
      vertex  6.757267e+000  7.000000e+001 -3.254128e+000
    endloop
  endfacet
  facet normal  7.818315e-001  0.000000e+000 -6.234897e-001
    outer loop
      vertex  6.757267e+000  7.000000e+001 -3.254128e+000
      vertex  4.676174e+000  1.000000e+002 -5.863736e+000
      vertex  6.757267e+000  1.000000e+002 -3.254128e+000
    endloop
  endfacet
  facet normal  9.749278e-001  0.000000e+000 -2.225209e-001
    outer loop
      vertex  6.757267e+000  7.000000e+001 -3.254128e+000
      vertex  6.757267e+000  1.000000e+002 -3.254128e+000
      vertex  7.500000e+000  7.000000e+001  4.249124e-015
    endloop
  endfacet
  facet normal  9.749278e-001  0.000000e+000 -2.225209e-001
    outer loop
      vertex  7.500000e+000  7.000000e+001  4.249124e-015
      vertex  6.757267e+000  1.000000e+002 -3.254128e+000
      vertex  7.500000e+000  1.000000e+002  4.249124e-015
    endloop
  endfacet
  facet normal  9.749278e-001  0.000000e+000  2.225209e-001
    outer loop
      vertex  7.500000e+000  7.000000e+001  4.249124e-015
      vertex  7.500000e+000  1.000000e+002  4.249124e-015
      vertex  6.757267e+000  7.000000e+001  3.254128e+000
    endloop
  endfacet
  facet normal  9.749278e-001  -0.000000e+000  2.225209e-001
    outer loop
      vertex  6.757267e+000  7.000000e+001  3.254128e+000
      vertex  7.500000e+000  1.000000e+002  4.249124e-015
      vertex  6.757267e+000  1.000000e+002  3.254128e+000
    endloop
  endfacet
  facet normal  7.818315e-001  0.000000e+000  6.234897e-001
    outer loop
      vertex  6.757267e+000  7.000000e+001  3.254128e+000
      vertex  6.757267e+000  1.000000e+002  3.254128e+000
      vertex  4.676174e+000  7.000000e+001  5.863736e+000
    endloop
  endfacet
  facet normal  7.818315e-001  -0.000000e+000  6.234897e-001
    outer loop
      vertex  4.676174e+000  7.000000e+001  5.863736e+000
      vertex  6.757267e+000  1.000000e+002  3.254128e+000
      vertex  4.676174e+000  1.000000e+002  5.863736e+000
    endloop
  endfacet
  facet normal  4.338837e-001  0.000000e+000  9.009689e-001
    outer loop
      vertex  4.676174e+000  7.000000e+001  5.863736e+000
      vertex  4.676174e+000  1.000000e+002  5.863736e+000
      vertex  1.668907e+000  7.000000e+001  7.311959e+000
    endloop
  endfacet
  facet normal  4.338837e-001  -0.000000e+000  9.009689e-001
    outer loop
      vertex  1.668907e+000  7.000000e+001  7.311959e+000
      vertex  4.676174e+000  1.000000e+002  5.863736e+000
      vertex  1.668907e+000  1.000000e+002  7.311959e+000
    endloop
  endfacet
  facet normal  0.000000e+000  0.000000e+000  1.000000e+000
    outer loop
      vertex  1.668907e+000  7.000000e+001  7.311959e+000
      vertex  1.668907e+000  1.000000e+002  7.311959e+000
      vertex -1.668907e+000  7.000000e+001  7.311959e+000
    endloop
  endfacet
  facet normal  0.000000e+000  0.000000e+000  1.000000e+000
    outer loop
      vertex -1.668907e+000  7.000000e+001  7.311959e+000
      vertex  1.668907e+000  1.000000e+002  7.311959e+000
      vertex -1.668907e+000  1.000000e+002  7.311959e+000
    endloop
  endfacet
  facet normal -4.338837e-001  0.000000e+000  9.009689e-001
    outer loop
      vertex -1.668907e+000  7.000000e+001  7.311959e+000
      vertex -1.668907e+000  1.000000e+002  7.311959e+000
      vertex -4.676174e+000  7.000000e+001  5.863736e+000
    endloop
  endfacet
  facet normal -4.338837e-001  0.000000e+000  9.009689e-001
    outer loop
      vertex -4.676174e+000  7.000000e+001  5.863736e+000
      vertex -1.668907e+000  1.000000e+002  7.311959e+000
      vertex -4.676174e+000  1.000000e+002  5.863736e+000
    endloop
  endfacet
  facet normal -7.818315e-001  0.000000e+000  6.234897e-001
    outer loop
      vertex -4.676174e+000  7.000000e+001  5.863736e+000
      vertex -4.676174e+000  1.000000e+002  5.863736e+000
      vertex -6.757267e+000  7.000000e+001  3.254128e+000
    endloop
  endfacet
  facet normal -7.818315e-001  0.000000e+000  6.234897e-001
    outer loop
      vertex -6.757267e+000  7.000000e+001  3.254128e+000
      vertex -4.676174e+000  1.000000e+002  5.863736e+000
      vertex -6.757267e+000  1.000000e+002  3.254128e+000
    endloop
  endfacet
  facet normal -9.749278e-001  0.000000e+000  2.225209e-001
    outer loop
      vertex -6.757267e+000  7.000000e+001  3.254128e+000
      vertex -6.757267e+000  1.000000e+002  3.254128e+000
      vertex -7.500000e+000  7.000000e+001  0.000000e+000
    endloop
  endfacet
  facet normal -9.749278e-001  0.000000e+000  2.225209e-001
    outer loop
      vertex -7.500000e+000  7.000000e+001  0.000000e+000
      vertex -6.757267e+000  1.000000e+002  3.254128e+000
      vertex -7.500000e+000  1.000000e+002  0.000000e+000
    endloop
  endfacet
  facet normal  0.000000e+000  1.000000e+000  0.000000e+000
    outer loop
      vertex -1.668907e+000  1.000000e+002  7.311959e+000
      vertex  1.668907e+000  1.000000e+002  7.311959e+000
      vertex -4.676174e+000  1.000000e+002  5.863736e+000
    endloop
  endfacet
  facet normal  0.000000e+000  9.999999e-001  0.000000e+000
    outer loop
      vertex -4.676174e+000  1.000000e+002  5.863736e+000
      vertex  1.668907e+000  1.000000e+002  7.311959e+000
      vertex  4.676174e+000  1.000000e+002  5.863736e+000
    endloop
  endfacet
  facet normal  0.000000e+000  1.000000e+000  0.000000e+000
    outer loop
      vertex -4.676174e+000  1.000000e+002  5.863736e+000
      vertex  4.676174e+000  1.000000e+002  5.863736e+000
      vertex -6.757267e+000  1.000000e+002  3.254128e+000
    endloop
  endfacet
  facet normal  0.000000e+000  1.000000e+000  0.000000e+000
    outer loop
      vertex -6.757267e+000  1.000000e+002  3.254128e+000
      vertex  4.676174e+000  1.000000e+002  5.863736e+000
      vertex  6.757267e+000  1.000000e+002  3.254128e+000
    endloop
  endfacet
  facet normal  0.000000e+000  1.000000e+000  0.000000e+000
    outer loop
      vertex -6.757267e+000  1.000000e+002  3.254128e+000
      vertex  6.757267e+000  1.000000e+002  3.254128e+000
      vertex -7.500000e+000  1.000000e+002  0.000000e+000
    endloop
  endfacet
  facet normal  0.000000e+000  9.999999e-001  0.000000e+000
    outer loop
      vertex -7.500000e+000  1.000000e+002  0.000000e+000
      vertex  6.757267e+000  1.000000e+002  3.254128e+000
      vertex  7.500000e+000  1.000000e+002  4.249124e-015
    endloop
  endfacet
  facet normal  0.000000e+000  9.999999e-001  0.000000e+000
    outer loop
      vertex -7.500000e+000  1.000000e+002  0.000000e+000
      vertex  7.500000e+000  1.000000e+002  4.249124e-015
      vertex -6.757267e+000  1.000000e+002 -3.254128e+000
    endloop
  endfacet
  facet normal  0.000000e+000  1.000000e+000  0.000000e+000
    outer loop
      vertex -6.757267e+000  1.000000e+002 -3.254128e+000
      vertex  7.500000e+000  1.000000e+002  4.249124e-015
      vertex  6.757267e+000  1.000000e+002 -3.254128e+000
    endloop
  endfacet
  facet normal  0.000000e+000  1.000000e+000  0.000000e+000
    outer loop
      vertex -6.757267e+000  1.000000e+002 -3.254128e+000
      vertex  6.757267e+000  1.000000e+002 -3.254128e+000
      vertex -4.676174e+000  1.000000e+002 -5.863736e+000
    endloop
  endfacet
  facet normal  0.000000e+000  1.000000e+000  0.000000e+000
    outer loop
      vertex -4.676174e+000  1.000000e+002 -5.863736e+000
      vertex  6.757267e+000  1.000000e+002 -3.254128e+000
      vertex  4.676174e+000  1.000000e+002 -5.863736e+000
    endloop
  endfacet
  facet normal  0.000000e+000  9.999999e-001  0.000000e+000
    outer loop
      vertex -4.676174e+000  1.000000e+002 -5.863736e+000
      vertex  4.676174e+000  1.000000e+002 -5.863736e+000
      vertex -1.668907e+000  1.000000e+002 -7.311959e+000
    endloop
  endfacet
  facet normal  0.000000e+000  1.000000e+000  0.000000e+000
    outer loop
      vertex -1.668907e+000  1.000000e+002 -7.311959e+000
      vertex  4.676174e+000  1.000000e+002 -5.863736e+000
      vertex  1.668907e+000  1.000000e+002 -7.311959e+000
    endloop
  endfacet
  facet normal  0.000000e+000  1.000000e+000  0.000000e+000
    outer loop
      vertex  1.083289e+001  5.000000e+001 -1.910130e+000
      vertex  9.526279e+000  5.000000e+001 -5.500000e+000
      vertex  1.083289e+001  5.000000e+001  1.910130e+000
    endloop
  endfacet
  facet normal  0.000000e+000  1.000000e+000  0.000000e+000
    outer loop
      vertex  1.083289e+001  5.000000e+001  1.910130e+000
      vertex  9.526279e+000  5.000000e+001 -5.500000e+000
      vertex  1.000000e+001  5.000000e+001  1.224606e-015
    endloop
  endfacet
  facet normal  0.000000e+000  1.000000e+000  -0.000000e+000
    outer loop
      vertex  1.083289e+001  5.000000e+001  1.910130e+000
      vertex  1.000000e+001  5.000000e+001  1.224606e-015
      vertex  9.526279e+000  5.000000e+001  5.500000e+000
    endloop
  endfacet
  facet normal  0.000000e+000  1.000000e+000  0.000000e+000
    outer loop
      vertex  9.526279e+000  5.000000e+001  5.500000e+000
      vertex  1.000000e+001  5.000000e+001  1.224606e-015
      vertex  9.238795e+000  5.000000e+001  3.826834e+000
    endloop
  endfacet
  facet normal  0.000000e+000  1.000000e+000  -0.000000e+000
    outer loop
      vertex  9.526279e+000  5.000000e+001  5.500000e+000
      vertex  9.238795e+000  5.000000e+001  3.826834e+000
      vertex  7.070664e+000  5.000000e+001  8.426489e+000
    endloop
  endfacet
  facet normal  0.000000e+000  1.000000e+000  0.000000e+000
    outer loop
      vertex  7.070664e+000  5.000000e+001  8.426489e+000
      vertex  9.238795e+000  5.000000e+001  3.826834e+000
      vertex  7.071068e+000  5.000000e+001  7.071068e+000
    endloop
  endfacet
  facet normal  0.000000e+000  1.000000e+000  0.000000e+000
    outer loop
      vertex  7.070664e+000  5.000000e+001  8.426489e+000
      vertex  7.071068e+000  5.000000e+001  7.071068e+000
      vertex  3.762222e+000  5.000000e+001  1.033662e+001
    endloop
  endfacet
  facet normal  0.000000e+000  1.000000e+000  0.000000e+000
    outer loop
      vertex  3.762222e+000  5.000000e+001  1.033662e+001
      vertex  7.071068e+000  5.000000e+001  7.071068e+000
      vertex  3.826834e+000  5.000000e+001  9.238795e+000
    endloop
  endfacet
  facet normal  0.000000e+000  1.000000e+000  0.000000e+000
    outer loop
      vertex  3.762222e+000  5.000000e+001  1.033662e+001
      vertex  3.826834e+000  5.000000e+001  9.238795e+000
      vertex  0.000000e+000  5.000000e+001  1.100000e+001
    endloop
  endfacet
  facet normal  0.000000e+000  9.999999e-001  0.000000e+000
    outer loop
      vertex  0.000000e+000  5.000000e+001  1.100000e+001
      vertex  3.826834e+000  5.000000e+001  9.238795e+000
      vertex -6.123032e-016  5.000000e+001  1.000000e+001
    endloop
  endfacet
  facet normal  0.000000e+000  9.999999e-001  -0.000000e+000
    outer loop
      vertex  0.000000e+000  5.000000e+001  1.100000e+001
      vertex -6.123032e-016  5.000000e+001  1.000000e+001
      vertex -3.762222e+000  5.000000e+001  1.033662e+001
    endloop
  endfacet
  facet normal  0.000000e+000  1.000000e+000  0.000000e+000
    outer loop
      vertex -3.762222e+000  5.000000e+001  1.033662e+001
      vertex -6.123032e-016  5.000000e+001  1.000000e+001
      vertex -3.826834e+000  5.000000e+001  9.238795e+000
    endloop
  endfacet
  facet normal  0.000000e+000  1.000000e+000  -0.000000e+000
    outer loop
      vertex -3.762222e+000  5.000000e+001  1.033662e+001
      vertex -3.826834e+000  5.000000e+001  9.238795e+000
      vertex -7.070664e+000  5.000000e+001  8.426489e+000
    endloop
  endfacet
  facet normal  -0.000000e+000  1.000000e+000  0.000000e+000
    outer loop
      vertex -7.070664e+000  5.000000e+001  8.426489e+000
      vertex -3.826834e+000  5.000000e+001  9.238795e+000
      vertex -7.071068e+000  5.000000e+001  7.071068e+000
    endloop
  endfacet
  facet normal  0.000000e+000  1.000000e+000  -0.000000e+000
    outer loop
      vertex -7.070664e+000  5.000000e+001  8.426489e+000
      vertex -7.071068e+000  5.000000e+001  7.071068e+000
      vertex -9.526279e+000  5.000000e+001  5.500000e+000
    endloop
  endfacet
  facet normal  -0.000000e+000  1.000000e+000  0.000000e+000
    outer loop
      vertex -9.526279e+000  5.000000e+001  5.500000e+000
      vertex -7.071068e+000  5.000000e+001  7.071068e+000
      vertex -9.238795e+000  5.000000e+001  3.826834e+000
    endloop
  endfacet
  facet normal  0.000000e+000  1.000000e+000  0.000000e+000
    outer loop
      vertex -9.526279e+000  5.000000e+001  5.500000e+000
      vertex -9.238795e+000  5.000000e+001  3.826834e+000
      vertex -1.083289e+001  5.000000e+001  1.910130e+000
    endloop
  endfacet
  facet normal  -0.000000e+000  1.000000e+000  0.000000e+000
    outer loop
      vertex -1.083289e+001  5.000000e+001  1.910130e+000
      vertex -9.238795e+000  5.000000e+001  3.826834e+000
      vertex -1.000000e+001  5.000000e+001  0.000000e+000
    endloop
  endfacet
  facet normal  0.000000e+000  1.000000e+000  0.000000e+000
    outer loop
      vertex -1.083289e+001  5.000000e+001  1.910130e+000
      vertex -1.000000e+001  5.000000e+001  0.000000e+000
      vertex -1.083289e+001  5.000000e+001 -1.910130e+000
    endloop
  endfacet
  facet normal  0.000000e+000  1.000000e+000  0.000000e+000
    outer loop
      vertex -1.083289e+001  5.000000e+001 -1.910130e+000
      vertex -1.000000e+001  5.000000e+001  0.000000e+000
      vertex -9.526279e+000  5.000000e+001 -5.500000e+000
    endloop
  endfacet
  facet normal  0.000000e+000  1.000000e+000  -0.000000e+000
    outer loop
      vertex -9.526279e+000  5.000000e+001 -5.500000e+000
      vertex -1.000000e+001  5.000000e+001  0.000000e+000
      vertex -9.238795e+000  5.000000e+001 -3.826834e+000
    endloop
  endfacet
  facet normal  0.000000e+000  1.000000e+000  0.000000e+000
    outer loop
      vertex -9.526279e+000  5.000000e+001 -5.500000e+000
      vertex -9.238795e+000  5.000000e+001 -3.826834e+000
      vertex -7.070664e+000  5.000000e+001 -8.426489e+000
    endloop
  endfacet
  facet normal  0.000000e+000  1.000000e+000  0.000000e+000
    outer loop
      vertex -7.070664e+000  5.000000e+001 -8.426489e+000
      vertex -9.238795e+000  5.000000e+001 -3.826834e+000
      vertex -7.071068e+000  5.000000e+001 -7.071068e+000
    endloop
  endfacet
  facet normal  0.000000e+000  1.000000e+000  0.000000e+000
    outer loop
      vertex -7.070664e+000  5.000000e+001 -8.426489e+000
      vertex -7.071068e+000  5.000000e+001 -7.071068e+000
      vertex -3.762222e+000  5.000000e+001 -1.033662e+001
    endloop
  endfacet
  facet normal  0.000000e+000  1.000000e+000  0.000000e+000
    outer loop
      vertex -3.762222e+000  5.000000e+001 -1.033662e+001
      vertex -7.071068e+000  5.000000e+001 -7.071068e+000
      vertex -3.826834e+000  5.000000e+001 -9.238795e+000
    endloop
  endfacet
  facet normal  0.000000e+000  1.000000e+000  0.000000e+000
    outer loop
      vertex -3.762222e+000  5.000000e+001 -1.033662e+001
      vertex -3.826834e+000  5.000000e+001 -9.238795e+000
      vertex  6.232048e-015  5.000000e+001 -1.100000e+001
    endloop
  endfacet
  facet normal  0.000000e+000  9.999999e-001  0.000000e+000
    outer loop
      vertex  6.232048e-015  5.000000e+001 -1.100000e+001
      vertex -3.826834e+000  5.000000e+001 -9.238795e+000
      vertex  1.836910e-015  5.000000e+001 -1.000000e+001
    endloop
  endfacet
  facet normal  0.000000e+000  9.999999e-001  0.000000e+000
    outer loop
      vertex  6.232048e-015  5.000000e+001 -1.100000e+001
      vertex  1.836910e-015  5.000000e+001 -1.000000e+001
      vertex  3.762222e+000  5.000000e+001 -1.033662e+001
    endloop
  endfacet
  facet normal  0.000000e+000  1.000000e+000  -0.000000e+000
    outer loop
      vertex  3.762222e+000  5.000000e+001 -1.033662e+001
      vertex  1.836910e-015  5.000000e+001 -1.000000e+001
      vertex  3.826834e+000  5.000000e+001 -9.238795e+000
    endloop
  endfacet
  facet normal  -0.000000e+000  1.000000e+000  0.000000e+000
    outer loop
      vertex  3.762222e+000  5.000000e+001 -1.033662e+001
      vertex  3.826834e+000  5.000000e+001 -9.238795e+000
      vertex  7.070664e+000  5.000000e+001 -8.426489e+000
    endloop
  endfacet
  facet normal  0.000000e+000  1.000000e+000  -0.000000e+000
    outer loop
      vertex  7.070664e+000  5.000000e+001 -8.426489e+000
      vertex  3.826834e+000  5.000000e+001 -9.238795e+000
      vertex  7.071068e+000  5.000000e+001 -7.071068e+000
    endloop
  endfacet
  facet normal  -0.000000e+000  1.000000e+000  0.000000e+000
    outer loop
      vertex  7.070664e+000  5.000000e+001 -8.426489e+000
      vertex  7.071068e+000  5.000000e+001 -7.071068e+000
      vertex  9.526279e+000  5.000000e+001 -5.500000e+000
    endloop
  endfacet
  facet normal  0.000000e+000  1.000000e+000  0.000000e+000
    outer loop
      vertex  9.526279e+000  5.000000e+001 -5.500000e+000
      vertex  7.071068e+000  5.000000e+001 -7.071068e+000
      vertex  9.238795e+000  5.000000e+001 -3.826834e+000
    endloop
  endfacet
  facet normal  -0.000000e+000  1.000000e+000  0.000000e+000
    outer loop
      vertex  9.526279e+000  5.000000e+001 -5.500000e+000
      vertex  9.238795e+000  5.000000e+001 -3.826834e+000
      vertex  1.000000e+001  5.000000e+001  1.224606e-015
    endloop
  endfacet
  facet normal -9.807853e-001  -0.000000e+000 -1.950903e-001
    outer loop
      vertex -1.000000e+001  5.000000e+001  0.000000e+000
      vertex -1.000000e+001  7.000000e+001  0.000000e+000
      vertex -9.238795e+000  5.000000e+001 -3.826834e+000
    endloop
  endfacet
  facet normal -9.807853e-001  0.000000e+000 -1.950903e-001
    outer loop
      vertex -9.238795e+000  5.000000e+001 -3.826834e+000
      vertex -1.000000e+001  7.000000e+001  0.000000e+000
      vertex -9.238795e+000  7.000000e+001 -3.826834e+000
    endloop
  endfacet
  facet normal -8.314696e-001  -0.000000e+000 -5.555702e-001
    outer loop
      vertex -9.238795e+000  5.000000e+001 -3.826834e+000
      vertex -9.238795e+000  7.000000e+001 -3.826834e+000
      vertex -7.071068e+000  5.000000e+001 -7.071068e+000
    endloop
  endfacet
  facet normal -8.314696e-001  0.000000e+000 -5.555702e-001
    outer loop
      vertex -7.071068e+000  5.000000e+001 -7.071068e+000
      vertex -9.238795e+000  7.000000e+001 -3.826834e+000
      vertex -7.071068e+000  7.000000e+001 -7.071068e+000
    endloop
  endfacet
  facet normal -5.555702e-001  -0.000000e+000 -8.314696e-001
    outer loop
      vertex -7.071068e+000  5.000000e+001 -7.071068e+000
      vertex -7.071068e+000  7.000000e+001 -7.071068e+000
      vertex -3.826834e+000  5.000000e+001 -9.238795e+000
    endloop
  endfacet
  facet normal -5.555702e-001  0.000000e+000 -8.314696e-001
    outer loop
      vertex -3.826834e+000  5.000000e+001 -9.238795e+000
      vertex -7.071068e+000  7.000000e+001 -7.071068e+000
      vertex -3.826834e+000  7.000000e+001 -9.238795e+000
    endloop
  endfacet
  facet normal -1.950903e-001  -0.000000e+000 -9.807853e-001
    outer loop
      vertex -3.826834e+000  5.000000e+001 -9.238795e+000
      vertex -3.826834e+000  7.000000e+001 -9.238795e+000
      vertex  1.836910e-015  5.000000e+001 -1.000000e+001
    endloop
  endfacet
  facet normal -1.950903e-001  0.000000e+000 -9.807853e-001
    outer loop
      vertex  1.836910e-015  5.000000e+001 -1.000000e+001
      vertex -3.826834e+000  7.000000e+001 -9.238795e+000
      vertex  1.836910e-015  7.000000e+001 -1.000000e+001
    endloop
  endfacet
  facet normal  1.950903e-001  0.000000e+000 -9.807853e-001
    outer loop
      vertex  1.836910e-015  5.000000e+001 -1.000000e+001
      vertex  1.836910e-015  7.000000e+001 -1.000000e+001
      vertex  3.826834e+000  5.000000e+001 -9.238795e+000
    endloop
  endfacet
  facet normal  1.950903e-001  0.000000e+000 -9.807853e-001
    outer loop
      vertex  3.826834e+000  5.000000e+001 -9.238795e+000
      vertex  1.836910e-015  7.000000e+001 -1.000000e+001
      vertex  3.826834e+000  7.000000e+001 -9.238795e+000
    endloop
  endfacet
  facet normal  5.555702e-001  0.000000e+000 -8.314696e-001
    outer loop
      vertex  3.826834e+000  5.000000e+001 -9.238795e+000
      vertex  3.826834e+000  7.000000e+001 -9.238795e+000
      vertex  7.071068e+000  5.000000e+001 -7.071068e+000
    endloop
  endfacet
  facet normal  5.555702e-001  0.000000e+000 -8.314696e-001
    outer loop
      vertex  7.071068e+000  5.000000e+001 -7.071068e+000
      vertex  3.826834e+000  7.000000e+001 -9.238795e+000
      vertex  7.071068e+000  7.000000e+001 -7.071068e+000
    endloop
  endfacet
  facet normal  8.314696e-001  0.000000e+000 -5.555702e-001
    outer loop
      vertex  7.071068e+000  5.000000e+001 -7.071068e+000
      vertex  7.071068e+000  7.000000e+001 -7.071068e+000
      vertex  9.238795e+000  5.000000e+001 -3.826834e+000
    endloop
  endfacet
  facet normal  8.314696e-001  0.000000e+000 -5.555702e-001
    outer loop
      vertex  9.238795e+000  5.000000e+001 -3.826834e+000
      vertex  7.071068e+000  7.000000e+001 -7.071068e+000
      vertex  9.238795e+000  7.000000e+001 -3.826834e+000
    endloop
  endfacet
  facet normal  9.807853e-001  0.000000e+000 -1.950903e-001
    outer loop
      vertex  9.238795e+000  5.000000e+001 -3.826834e+000
      vertex  9.238795e+000  7.000000e+001 -3.826834e+000
      vertex  1.000000e+001  5.000000e+001  1.224606e-015
    endloop
  endfacet
  facet normal  9.807853e-001  0.000000e+000 -1.950903e-001
    outer loop
      vertex  1.000000e+001  5.000000e+001  1.224606e-015
      vertex  9.238795e+000  7.000000e+001 -3.826834e+000
      vertex  1.000000e+001  7.000000e+001  1.224606e-015
    endloop
  endfacet
  facet normal  9.807853e-001  0.000000e+000  1.950903e-001
    outer loop
      vertex  1.000000e+001  5.000000e+001  1.224606e-015
      vertex  1.000000e+001  7.000000e+001  1.224606e-015
      vertex  9.238795e+000  5.000000e+001  3.826834e+000
    endloop
  endfacet
  facet normal  9.807853e-001  -0.000000e+000  1.950903e-001
    outer loop
      vertex  9.238795e+000  5.000000e+001  3.826834e+000
      vertex  1.000000e+001  7.000000e+001  1.224606e-015
      vertex  9.238795e+000  7.000000e+001  3.826834e+000
    endloop
  endfacet
  facet normal  8.314696e-001  0.000000e+000  5.555702e-001
    outer loop
      vertex  9.238795e+000  5.000000e+001  3.826834e+000
      vertex  9.238795e+000  7.000000e+001  3.826834e+000
      vertex  7.071068e+000  5.000000e+001  7.071068e+000
    endloop
  endfacet
  facet normal  8.314696e-001  -0.000000e+000  5.555702e-001
    outer loop
      vertex  7.071068e+000  5.000000e+001  7.071068e+000
      vertex  9.238795e+000  7.000000e+001  3.826834e+000
      vertex  7.071068e+000  7.000000e+001  7.071068e+000
    endloop
  endfacet
  facet normal  5.555702e-001  0.000000e+000  8.314696e-001
    outer loop
      vertex  7.071068e+000  5.000000e+001  7.071068e+000
      vertex  7.071068e+000  7.000000e+001  7.071068e+000
      vertex  3.826834e+000  5.000000e+001  9.238795e+000
    endloop
  endfacet
  facet normal  5.555702e-001  -0.000000e+000  8.314696e-001
    outer loop
      vertex  3.826834e+000  5.000000e+001  9.238795e+000
      vertex  7.071068e+000  7.000000e+001  7.071068e+000
      vertex  3.826834e+000  7.000000e+001  9.238795e+000
    endloop
  endfacet
  facet normal  1.950903e-001  0.000000e+000  9.807853e-001
    outer loop
      vertex  3.826834e+000  5.000000e+001  9.238795e+000
      vertex  3.826834e+000  7.000000e+001  9.238795e+000
      vertex -6.123032e-016  5.000000e+001  1.000000e+001
    endloop
  endfacet
  facet normal  1.950903e-001  -0.000000e+000  9.807853e-001
    outer loop
      vertex -6.123032e-016  5.000000e+001  1.000000e+001
      vertex  3.826834e+000  7.000000e+001  9.238795e+000
      vertex -6.123032e-016  7.000000e+001  1.000000e+001
    endloop
  endfacet
  facet normal -1.950903e-001  0.000000e+000  9.807853e-001
    outer loop
      vertex -6.123032e-016  5.000000e+001  1.000000e+001
      vertex -6.123032e-016  7.000000e+001  1.000000e+001
      vertex -3.826834e+000  5.000000e+001  9.238795e+000
    endloop
  endfacet
  facet normal -1.950903e-001  0.000000e+000  9.807853e-001
    outer loop
      vertex -3.826834e+000  5.000000e+001  9.238795e+000
      vertex -6.123032e-016  7.000000e+001  1.000000e+001
      vertex -3.826834e+000  7.000000e+001  9.238795e+000
    endloop
  endfacet
  facet normal -5.555702e-001  0.000000e+000  8.314696e-001
    outer loop
      vertex -3.826834e+000  5.000000e+001  9.238795e+000
      vertex -3.826834e+000  7.000000e+001  9.238795e+000
      vertex -7.071068e+000  5.000000e+001  7.071068e+000
    endloop
  endfacet
  facet normal -5.555702e-001  0.000000e+000  8.314696e-001
    outer loop
      vertex -7.071068e+000  5.000000e+001  7.071068e+000
      vertex -3.826834e+000  7.000000e+001  9.238795e+000
      vertex -7.071068e+000  7.000000e+001  7.071068e+000
    endloop
  endfacet
  facet normal -8.314696e-001  0.000000e+000  5.555702e-001
    outer loop
      vertex -7.071068e+000  5.000000e+001  7.071068e+000
      vertex -7.071068e+000  7.000000e+001  7.071068e+000
      vertex -9.238795e+000  5.000000e+001  3.826834e+000
    endloop
  endfacet
  facet normal -8.314696e-001  0.000000e+000  5.555702e-001
    outer loop
      vertex -9.238795e+000  5.000000e+001  3.826834e+000
      vertex -7.071068e+000  7.000000e+001  7.071068e+000
      vertex -9.238795e+000  7.000000e+001  3.826834e+000
    endloop
  endfacet
  facet normal -9.807853e-001  0.000000e+000  1.950903e-001
    outer loop
      vertex -9.238795e+000  5.000000e+001  3.826834e+000
      vertex -9.238795e+000  7.000000e+001  3.826834e+000
      vertex -1.000000e+001  5.000000e+001  0.000000e+000
    endloop
  endfacet
  facet normal -9.807853e-001  0.000000e+000  1.950903e-001
    outer loop
      vertex -1.000000e+001  5.000000e+001  0.000000e+000
      vertex -9.238795e+000  7.000000e+001  3.826834e+000
      vertex -1.000000e+001  7.000000e+001  0.000000e+000
    endloop
  endfacet
  facet normal  0.000000e+000 -1.000000e+000  0.000000e+000
    outer loop
      vertex  0.000000e+000  0.000000e+000  1.100000e+001
      vertex  3.762222e+000  0.000000e+000 -1.033662e+001
      vertex  3.762222e+000  0.000000e+000  1.033662e+001
    endloop
  endfacet
  facet normal  0.000000e+000 -1.000000e+000  0.000000e+000
    outer loop
      vertex  3.762222e+000  0.000000e+000  1.033662e+001
      vertex  3.762222e+000  0.000000e+000 -1.033662e+001
      vertex  7.070664e+000  0.000000e+000 -8.426489e+000
    endloop
  endfacet
  facet normal  0.000000e+000 -1.000000e+000  0.000000e+000
    outer loop
      vertex  3.762222e+000  0.000000e+000  1.033662e+001
      vertex  7.070664e+000  0.000000e+000 -8.426489e+000
      vertex  7.070664e+000  0.000000e+000  8.426489e+000
    endloop
  endfacet
  facet normal  0.000000e+000 -1.000000e+000  0.000000e+000
    outer loop
      vertex  7.070664e+000  0.000000e+000  8.426489e+000
      vertex  7.070664e+000  0.000000e+000 -8.426489e+000
      vertex  9.526279e+000  0.000000e+000 -5.500000e+000
    endloop
  endfacet
  facet normal  0.000000e+000 -1.000000e+000  0.000000e+000
    outer loop
      vertex  7.070664e+000  0.000000e+000  8.426489e+000
      vertex  9.526279e+000  0.000000e+000 -5.500000e+000
      vertex  9.526279e+000  0.000000e+000  5.500000e+000
    endloop
  endfacet
  facet normal  0.000000e+000 -1.000000e+000  0.000000e+000
    outer loop
      vertex  9.526279e+000  0.000000e+000  5.500000e+000
      vertex  9.526279e+000  0.000000e+000 -5.500000e+000
      vertex  1.083289e+001  0.000000e+000 -1.910130e+000
    endloop
  endfacet
  facet normal  0.000000e+000 -1.000000e+000  0.000000e+000
    outer loop
      vertex  9.526279e+000  0.000000e+000  5.500000e+000
      vertex  1.083289e+001  0.000000e+000 -1.910130e+000
      vertex  1.083289e+001  0.000000e+000  1.910130e+000
    endloop
  endfacet
  facet normal  0.000000e+000 -1.000000e+000  0.000000e+000
    outer loop
      vertex  3.762222e+000  0.000000e+000 -1.033662e+001
      vertex  0.000000e+000  0.000000e+000  1.100000e+001
      vertex  6.232048e-015  0.000000e+000 -1.100000e+001
    endloop
  endfacet
  facet normal  0.000000e+000 -1.000000e+000  0.000000e+000
    outer loop
      vertex  6.232048e-015  0.000000e+000 -1.100000e+001
      vertex  0.000000e+000  0.000000e+000  1.100000e+001
      vertex -3.762222e+000  0.000000e+000  1.033662e+001
    endloop
  endfacet
  facet normal  0.000000e+000 -1.000000e+000  0.000000e+000
    outer loop
      vertex  6.232048e-015  0.000000e+000 -1.100000e+001
      vertex -3.762222e+000  0.000000e+000  1.033662e+001
      vertex -3.762222e+000  0.000000e+000 -1.033662e+001
    endloop
  endfacet
  facet normal  0.000000e+000 -1.000000e+000  0.000000e+000
    outer loop
      vertex -3.762222e+000  0.000000e+000 -1.033662e+001
      vertex -3.762222e+000  0.000000e+000  1.033662e+001
      vertex -7.070664e+000  0.000000e+000  8.426489e+000
    endloop
  endfacet
  facet normal  0.000000e+000 -1.000000e+000  0.000000e+000
    outer loop
      vertex -3.762222e+000  0.000000e+000 -1.033662e+001
      vertex -7.070664e+000  0.000000e+000  8.426489e+000
      vertex -7.070664e+000  0.000000e+000 -8.426489e+000
    endloop
  endfacet
  facet normal  0.000000e+000 -1.000000e+000  0.000000e+000
    outer loop
      vertex -7.070664e+000  0.000000e+000 -8.426489e+000
      vertex -7.070664e+000  0.000000e+000  8.426489e+000
      vertex -9.526279e+000  0.000000e+000  5.500000e+000
    endloop
  endfacet
  facet normal  0.000000e+000 -1.000000e+000  0.000000e+000
    outer loop
      vertex -7.070664e+000  0.000000e+000 -8.426489e+000
      vertex -9.526279e+000  0.000000e+000  5.500000e+000
      vertex -9.526279e+000  0.000000e+000 -5.500000e+000
    endloop
  endfacet
  facet normal  0.000000e+000 -1.000000e+000  0.000000e+000
    outer loop
      vertex -9.526279e+000  0.000000e+000 -5.500000e+000
      vertex -9.526279e+000  0.000000e+000  5.500000e+000
      vertex -1.083289e+001  0.000000e+000  1.910130e+000
    endloop
  endfacet
  facet normal  0.000000e+000 -1.000000e+000  0.000000e+000
    outer loop
      vertex -9.526279e+000  0.000000e+000 -5.500000e+000
      vertex -1.083289e+001  0.000000e+000  1.910130e+000
      vertex -1.083289e+001  0.000000e+000 -1.910130e+000
    endloop
  endfacet
  facet normal -1.736483e-001  0.000000e+000  9.848078e-001
    outer loop
      vertex  0.000000e+000  0.000000e+000  1.100000e+001
      vertex  0.000000e+000  5.000000e+001  1.100000e+001
      vertex -3.762222e+000  0.000000e+000  1.033662e+001
    endloop
  endfacet
  facet normal -1.736483e-001  0.000000e+000  9.848078e-001
    outer loop
      vertex -3.762222e+000  0.000000e+000  1.033662e+001
      vertex  0.000000e+000  5.000000e+001  1.100000e+001
      vertex -3.762222e+000  5.000000e+001  1.033662e+001
    endloop
  endfacet
  facet normal -4.999999e-001  0.000000e+000  8.660254e-001
    outer loop
      vertex -3.762222e+000  0.000000e+000  1.033662e+001
      vertex -3.762222e+000  5.000000e+001  1.033662e+001
      vertex -7.070664e+000  0.000000e+000  8.426489e+000
    endloop
  endfacet
  facet normal -4.999999e-001  0.000000e+000  8.660254e-001
    outer loop
      vertex -7.070664e+000  0.000000e+000  8.426489e+000
      vertex -3.762222e+000  5.000000e+001  1.033662e+001
      vertex -7.070664e+000  5.000000e+001  8.426489e+000
    endloop
  endfacet
  facet normal -7.660444e-001  0.000000e+000  6.427876e-001
    outer loop
      vertex -7.070664e+000  0.000000e+000  8.426489e+000
      vertex -7.070664e+000  5.000000e+001  8.426489e+000
      vertex -9.526279e+000  0.000000e+000  5.500000e+000
    endloop
  endfacet
  facet normal -7.660444e-001  0.000000e+000  6.427876e-001
    outer loop
      vertex -9.526279e+000  0.000000e+000  5.500000e+000
      vertex -7.070664e+000  5.000000e+001  8.426489e+000
      vertex -9.526279e+000  5.000000e+001  5.500000e+000
    endloop
  endfacet
  facet normal -9.396926e-001  0.000000e+000  3.420203e-001
    outer loop
      vertex -9.526279e+000  0.000000e+000  5.500000e+000
      vertex -9.526279e+000  5.000000e+001  5.500000e+000
      vertex -1.083289e+001  0.000000e+000  1.910130e+000
    endloop
  endfacet
  facet normal -9.396926e-001  0.000000e+000  3.420203e-001
    outer loop
      vertex -1.083289e+001  0.000000e+000  1.910130e+000
      vertex -9.526279e+000  5.000000e+001  5.500000e+000
      vertex -1.083289e+001  5.000000e+001  1.910130e+000
    endloop
  endfacet
  facet normal -1.000000e+000  -0.000000e+000  0.000000e+000
    outer loop
      vertex -1.083289e+001  0.000000e+000  1.910130e+000
      vertex -1.083289e+001  5.000000e+001  1.910130e+000
      vertex -1.083289e+001  0.000000e+000 -1.910130e+000
    endloop
  endfacet
  facet normal -1.000000e+000  0.000000e+000  0.000000e+000
    outer loop
      vertex -1.083289e+001  0.000000e+000 -1.910130e+000
      vertex -1.083289e+001  5.000000e+001  1.910130e+000
      vertex -1.083289e+001  5.000000e+001 -1.910130e+000
    endloop
  endfacet
  facet normal -9.396926e-001  -0.000000e+000 -3.420203e-001
    outer loop
      vertex -1.083289e+001  0.000000e+000 -1.910130e+000
      vertex -1.083289e+001  5.000000e+001 -1.910130e+000
      vertex -9.526279e+000  0.000000e+000 -5.500000e+000
    endloop
  endfacet
  facet normal -9.396926e-001  0.000000e+000 -3.420203e-001
    outer loop
      vertex -9.526279e+000  0.000000e+000 -5.500000e+000
      vertex -1.083289e+001  5.000000e+001 -1.910130e+000
      vertex -9.526279e+000  5.000000e+001 -5.500000e+000
    endloop
  endfacet
  facet normal -7.660444e-001  -0.000000e+000 -6.427876e-001
    outer loop
      vertex -9.526279e+000  0.000000e+000 -5.500000e+000
      vertex -9.526279e+000  5.000000e+001 -5.500000e+000
      vertex -7.070664e+000  0.000000e+000 -8.426489e+000
    endloop
  endfacet
  facet normal -7.660444e-001  0.000000e+000 -6.427876e-001
    outer loop
      vertex -7.070664e+000  0.000000e+000 -8.426489e+000
      vertex -9.526279e+000  5.000000e+001 -5.500000e+000
      vertex -7.070664e+000  5.000000e+001 -8.426489e+000
    endloop
  endfacet
  facet normal -4.999999e-001  -0.000000e+000 -8.660254e-001
    outer loop
      vertex -7.070664e+000  0.000000e+000 -8.426489e+000
      vertex -7.070664e+000  5.000000e+001 -8.426489e+000
      vertex -3.762222e+000  0.000000e+000 -1.033662e+001
    endloop
  endfacet
  facet normal -4.999999e-001  0.000000e+000 -8.660254e-001
    outer loop
      vertex -3.762222e+000  0.000000e+000 -1.033662e+001
      vertex -7.070664e+000  5.000000e+001 -8.426489e+000
      vertex -3.762222e+000  5.000000e+001 -1.033662e+001
    endloop
  endfacet
  facet normal -1.736483e-001  -0.000000e+000 -9.848078e-001
    outer loop
      vertex -3.762222e+000  0.000000e+000 -1.033662e+001
      vertex -3.762222e+000  5.000000e+001 -1.033662e+001
      vertex  6.232048e-015  0.000000e+000 -1.100000e+001
    endloop
  endfacet
  facet normal -1.736483e-001  0.000000e+000 -9.848078e-001
    outer loop
      vertex  6.232048e-015  0.000000e+000 -1.100000e+001
      vertex -3.762222e+000  5.000000e+001 -1.033662e+001
      vertex  6.232048e-015  5.000000e+001 -1.100000e+001
    endloop
  endfacet
  facet normal  1.736483e-001  0.000000e+000 -9.848078e-001
    outer loop
      vertex  6.232048e-015  0.000000e+000 -1.100000e+001
      vertex  6.232048e-015  5.000000e+001 -1.100000e+001
      vertex  3.762222e+000  0.000000e+000 -1.033662e+001
    endloop
  endfacet
  facet normal  1.736483e-001  0.000000e+000 -9.848078e-001
    outer loop
      vertex  3.762222e+000  0.000000e+000 -1.033662e+001
      vertex  6.232048e-015  5.000000e+001 -1.100000e+001
      vertex  3.762222e+000  5.000000e+001 -1.033662e+001
    endloop
  endfacet
  facet normal  4.999999e-001  0.000000e+000 -8.660254e-001
    outer loop
      vertex  3.762222e+000  0.000000e+000 -1.033662e+001
      vertex  3.762222e+000  5.000000e+001 -1.033662e+001
      vertex  7.070664e+000  0.000000e+000 -8.426489e+000
    endloop
  endfacet
  facet normal  4.999999e-001  0.000000e+000 -8.660254e-001
    outer loop
      vertex  7.070664e+000  0.000000e+000 -8.426489e+000
      vertex  3.762222e+000  5.000000e+001 -1.033662e+001
      vertex  7.070664e+000  5.000000e+001 -8.426489e+000
    endloop
  endfacet
  facet normal  7.660444e-001  0.000000e+000 -6.427876e-001
    outer loop
      vertex  7.070664e+000  0.000000e+000 -8.426489e+000
      vertex  7.070664e+000  5.000000e+001 -8.426489e+000
      vertex  9.526279e+000  0.000000e+000 -5.500000e+000
    endloop
  endfacet
  facet normal  7.660444e-001  0.000000e+000 -6.427876e-001
    outer loop
      vertex  9.526279e+000  0.000000e+000 -5.500000e+000
      vertex  7.070664e+000  5.000000e+001 -8.426489e+000
      vertex  9.526279e+000  5.000000e+001 -5.500000e+000
    endloop
  endfacet
  facet normal  9.396926e-001  0.000000e+000 -3.420203e-001
    outer loop
      vertex  9.526279e+000  0.000000e+000 -5.500000e+000
      vertex  9.526279e+000  5.000000e+001 -5.500000e+000
      vertex  1.083289e+001  0.000000e+000 -1.910130e+000
    endloop
  endfacet
  facet normal  9.396926e-001  0.000000e+000 -3.420203e-001
    outer loop
      vertex  1.083289e+001  0.000000e+000 -1.910130e+000
      vertex  9.526279e+000  5.000000e+001 -5.500000e+000
      vertex  1.083289e+001  5.000000e+001 -1.910130e+000
    endloop
  endfacet
  facet normal  1.000000e+000  0.000000e+000  0.000000e+000
    outer loop
      vertex  1.083289e+001  0.000000e+000 -1.910130e+000
      vertex  1.083289e+001  5.000000e+001 -1.910130e+000
      vertex  1.083289e+001  0.000000e+000  1.910130e+000
    endloop
  endfacet
  facet normal  1.000000e+000  -0.000000e+000  0.000000e+000
    outer loop
      vertex  1.083289e+001  0.000000e+000  1.910130e+000
      vertex  1.083289e+001  5.000000e+001 -1.910130e+000
      vertex  1.083289e+001  5.000000e+001  1.910130e+000
    endloop
  endfacet
  facet normal  9.396926e-001  0.000000e+000  3.420203e-001
    outer loop
      vertex  1.083289e+001  0.000000e+000  1.910130e+000
      vertex  1.083289e+001  5.000000e+001  1.910130e+000
      vertex  9.526279e+000  0.000000e+000  5.500000e+000
    endloop
  endfacet
  facet normal  9.396926e-001  -0.000000e+000  3.420203e-001
    outer loop
      vertex  9.526279e+000  0.000000e+000  5.500000e+000
      vertex  1.083289e+001  5.000000e+001  1.910130e+000
      vertex  9.526279e+000  5.000000e+001  5.500000e+000
    endloop
  endfacet
  facet normal  7.660444e-001  0.000000e+000  6.427876e-001
    outer loop
      vertex  9.526279e+000  0.000000e+000  5.500000e+000
      vertex  9.526279e+000  5.000000e+001  5.500000e+000
      vertex  7.070664e+000  0.000000e+000  8.426489e+000
    endloop
  endfacet
  facet normal  7.660444e-001  -0.000000e+000  6.427876e-001
    outer loop
      vertex  7.070664e+000  0.000000e+000  8.426489e+000
      vertex  9.526279e+000  5.000000e+001  5.500000e+000
      vertex  7.070664e+000  5.000000e+001  8.426489e+000
    endloop
  endfacet
  facet normal  4.999999e-001  0.000000e+000  8.660254e-001
    outer loop
      vertex  7.070664e+000  0.000000e+000  8.426489e+000
      vertex  7.070664e+000  5.000000e+001  8.426489e+000
      vertex  3.762222e+000  0.000000e+000  1.033662e+001
    endloop
  endfacet
  facet normal  4.999999e-001  -0.000000e+000  8.660254e-001
    outer loop
      vertex  3.762222e+000  0.000000e+000  1.033662e+001
      vertex  7.070664e+000  5.000000e+001  8.426489e+000
      vertex  3.762222e+000  5.000000e+001  1.033662e+001
    endloop
  endfacet
  facet normal  1.736483e-001  0.000000e+000  9.848078e-001
    outer loop
      vertex  3.762222e+000  0.000000e+000  1.033662e+001
      vertex  3.762222e+000  5.000000e+001  1.033662e+001
      vertex  0.000000e+000  0.000000e+000  1.100000e+001
    endloop
  endfacet
  facet normal  1.736483e-001  -0.000000e+000  9.848078e-001
    outer loop
      vertex  0.000000e+000  0.000000e+000  1.100000e+001
      vertex  3.762222e+000  5.000000e+001  1.033662e+001
      vertex  0.000000e+000  5.000000e+001  1.100000e+001
    endloop
  endfacet
endsolid CATIA STL
