solid CATIA STL
  facet normal  0.000000e+000  -0.000000e+000  1.000000e+000
    outer loop
      vertex -4.500000e+001 -9.000000e+000  1.000000e+001
      vertex -4.067376e+001 -8.314792e+000  1.000000e+001
      vertex -3.677101e+001 -6.326238e+000  1.000000e+001
    endloop
  endfacet
  facet normal  0.000000e+000  -0.000000e+000  1.000000e+000
    outer loop
      vertex -4.500000e+001 -9.000000e+000  1.000000e+001
      vertex -3.677101e+001 -6.326238e+000  1.000000e+001
      vertex -3.367376e+001 -3.228993e+000  1.000000e+001
    endloop
  endfacet
  facet normal  0.000000e+000  -0.000000e+000  1.000000e+000
    outer loop
      vertex -4.500000e+001 -9.000000e+000  1.000000e+001
      vertex -3.367376e+001 -3.228993e+000  1.000000e+001
      vertex -3.168521e+001  6.737621e-001  1.000000e+001
    endloop
  endfacet
  facet normal  0.000000e+000  -0.000000e+000  1.000000e+000
    outer loop
      vertex -4.500000e+001 -9.000000e+000  1.000000e+001
      vertex -3.168521e+001  6.737621e-001  1.000000e+001
      vertex -3.100000e+001  5.000000e+000  1.000000e+001
    endloop
  endfacet
  facet normal  0.000000e+000  0.000000e+000  9.999999e-001
    outer loop
      vertex -4.500000e+001 -9.000000e+000  1.000000e+001
      vertex -3.100000e+001  5.000000e+000  1.000000e+001
      vertex -6.000000e+001  3.000000e+001  1.000000e+001
    endloop
  endfacet
  facet normal  0.000000e+000  0.000000e+000  1.000000e+000
    outer loop
      vertex -4.500000e+001 -9.000000e+000  1.000000e+001
      vertex -6.000000e+001  3.000000e+001  1.000000e+001
      vertex -6.000000e+001 -6.000000e+001  1.000000e+001
    endloop
  endfacet
  facet normal  0.000000e+000  0.000000e+000  1.000000e+000
    outer loop
      vertex -4.500000e+001 -9.000000e+000  1.000000e+001
      vertex -6.000000e+001 -6.000000e+001  1.000000e+001
      vertex -4.500000e+001 -4.500000e+001  1.000000e+001
    endloop
  endfacet
  facet normal  0.000000e+000  0.000000e+000  1.000000e+000
    outer loop
      vertex  3.000000e+001 -6.000000e+001  1.000000e+001
      vertex  3.000000e+001  3.000000e+001  1.000000e+001
      vertex  1.500000e+001 -7.000000e+000  1.000000e+001
    endloop
  endfacet
  facet normal  0.000000e+000  0.000000e+000  9.999999e-001
    outer loop
      vertex  3.000000e+001 -6.000000e+001  1.000000e+001
      vertex  1.500000e+001 -7.000000e+000  1.000000e+001
      vertex  1.500000e+001 -2.900000e+001  1.000000e+001
    endloop
  endfacet
  facet normal  0.000000e+000  0.000000e+000  1.000000e+000
    outer loop
      vertex  3.000000e+001 -6.000000e+001  1.000000e+001
      vertex  1.500000e+001 -2.900000e+001  1.000000e+001
      vertex  1.421690e+001 -3.394427e+001  1.000000e+001
    endloop
  endfacet
  facet normal  0.000000e+000  0.000000e+000  1.000000e+000
    outer loop
      vertex  3.000000e+001 -6.000000e+001  1.000000e+001
      vertex  1.421690e+001 -3.394427e+001  1.000000e+001
      vertex  1.194427e+001 -3.840456e+001  1.000000e+001
    endloop
  endfacet
  facet normal  0.000000e+000  0.000000e+000  1.000000e+000
    outer loop
      vertex  3.000000e+001 -6.000000e+001  1.000000e+001
      vertex  1.194427e+001 -3.840456e+001  1.000000e+001
      vertex  8.404564e+000 -4.194427e+001  1.000000e+001
    endloop
  endfacet
  facet normal  0.000000e+000  0.000000e+000  1.000000e+000
    outer loop
      vertex  3.000000e+001 -6.000000e+001  1.000000e+001
      vertex  8.404564e+000 -4.194427e+001  1.000000e+001
      vertex  3.944272e+000 -4.421690e+001  1.000000e+001
    endloop
  endfacet
  facet normal  0.000000e+000  0.000000e+000  9.999999e-001
    outer loop
      vertex  3.000000e+001 -6.000000e+001  1.000000e+001
      vertex  3.944272e+000 -4.421690e+001  1.000000e+001
      vertex -1.000000e+000 -4.500000e+001  1.000000e+001
    endloop
  endfacet
  facet normal  0.000000e+000  0.000000e+000  9.999999e-001
    outer loop
      vertex  3.000000e+001 -6.000000e+001  1.000000e+001
      vertex -1.000000e+000 -4.500000e+001  1.000000e+001
      vertex -4.500000e+001 -4.500000e+001  1.000000e+001
    endloop
  endfacet
  facet normal  0.000000e+000  0.000000e+000  1.000000e+000
    outer loop
      vertex  3.000000e+001 -6.000000e+001  1.000000e+001
      vertex -4.500000e+001 -4.500000e+001  1.000000e+001
      vertex -6.000000e+001 -6.000000e+001  1.000000e+001
    endloop
  endfacet
  facet normal  0.000000e+000  -0.000000e+000  1.000000e+000
    outer loop
      vertex -6.000000e+001  3.000000e+001  1.000000e+001
      vertex -3.100000e+001  5.000000e+000  1.000000e+001
      vertex  3.000000e+001  3.000000e+001  1.000000e+001
    endloop
  endfacet
  facet normal  0.000000e+000  0.000000e+000  9.999999e-001
    outer loop
      vertex  3.000000e+001  3.000000e+001  1.000000e+001
      vertex -3.100000e+001  5.000000e+000  1.000000e+001
      vertex  3.000000e+000  5.000000e+000  1.000000e+001
    endloop
  endfacet
  facet normal  -0.000000e+000  0.000000e+000  1.000000e+000
    outer loop
      vertex  3.000000e+001  3.000000e+001  1.000000e+001
      vertex  3.000000e+000  5.000000e+000  1.000000e+001
      vertex  1.500000e+001 -7.000000e+000  1.000000e+001
    endloop
  endfacet
  facet normal  9.876882e-001 -1.564346e-001  0.000000e+000
    outer loop
      vertex -3.100000e+001  5.000000e+000  6.000000e+000
      vertex -3.100000e+001  5.000000e+000  1.000000e+001
      vertex -3.168521e+001  6.737621e-001  6.000000e+000
    endloop
  endfacet
  facet normal  9.876882e-001 -1.564346e-001  0.000000e+000
    outer loop
      vertex -3.168521e+001  6.737621e-001  6.000000e+000
      vertex -3.100000e+001  5.000000e+000  1.000000e+001
      vertex -3.168521e+001  6.737621e-001  1.000000e+001
    endloop
  endfacet
  facet normal  8.910065e-001 -4.539906e-001  0.000000e+000
    outer loop
      vertex -3.168521e+001  6.737621e-001  6.000000e+000
      vertex -3.168521e+001  6.737621e-001  1.000000e+001
      vertex -3.367376e+001 -3.228993e+000  6.000000e+000
    endloop
  endfacet
  facet normal  8.910065e-001 -4.539906e-001  0.000000e+000
    outer loop
      vertex -3.367376e+001 -3.228993e+000  6.000000e+000
      vertex -3.168521e+001  6.737621e-001  1.000000e+001
      vertex -3.367376e+001 -3.228993e+000  1.000000e+001
    endloop
  endfacet
  facet normal  7.071068e-001 -7.071068e-001  0.000000e+000
    outer loop
      vertex -3.367376e+001 -3.228993e+000  6.000000e+000
      vertex -3.367376e+001 -3.228993e+000  1.000000e+001
      vertex -3.677101e+001 -6.326238e+000  6.000000e+000
    endloop
  endfacet
  facet normal  7.071068e-001 -7.071068e-001  0.000000e+000
    outer loop
      vertex -3.677101e+001 -6.326238e+000  6.000000e+000
      vertex -3.367376e+001 -3.228993e+000  1.000000e+001
      vertex -3.677101e+001 -6.326238e+000  1.000000e+001
    endloop
  endfacet
  facet normal  4.539905e-001 -8.910065e-001  0.000000e+000
    outer loop
      vertex -3.677101e+001 -6.326238e+000  6.000000e+000
      vertex -3.677101e+001 -6.326238e+000  1.000000e+001
      vertex -4.067376e+001 -8.314792e+000  6.000000e+000
    endloop
  endfacet
  facet normal  4.539905e-001 -8.910065e-001  0.000000e+000
    outer loop
      vertex -4.067376e+001 -8.314792e+000  6.000000e+000
      vertex -3.677101e+001 -6.326238e+000  1.000000e+001
      vertex -4.067376e+001 -8.314792e+000  1.000000e+001
    endloop
  endfacet
  facet normal  1.564344e-001 -9.876884e-001  0.000000e+000
    outer loop
      vertex -4.067376e+001 -8.314792e+000  6.000000e+000
      vertex -4.067376e+001 -8.314792e+000  1.000000e+001
      vertex -4.500000e+001 -9.000000e+000  6.000000e+000
    endloop
  endfacet
  facet normal  1.564344e-001 -9.876884e-001  0.000000e+000
    outer loop
      vertex -4.500000e+001 -9.000000e+000  6.000000e+000
      vertex -4.067376e+001 -8.314792e+000  1.000000e+001
      vertex -4.500000e+001 -9.000000e+000  1.000000e+001
    endloop
  endfacet
  facet normal  0.000000e+000 -1.000000e+000  -0.000000e+000
    outer loop
      vertex  3.000000e+000  5.000000e+000  6.000000e+000
      vertex  3.000000e+000  5.000000e+000  1.000000e+001
      vertex -3.100000e+001  5.000000e+000  6.000000e+000
    endloop
  endfacet
  facet normal  0.000000e+000 -1.000000e+000  0.000000e+000
    outer loop
      vertex -3.100000e+001  5.000000e+000  6.000000e+000
      vertex  3.000000e+000  5.000000e+000  1.000000e+001
      vertex -3.100000e+001  5.000000e+000  1.000000e+001
    endloop
  endfacet
  facet normal -7.071068e-001 -7.071068e-001  -0.000000e+000
    outer loop
      vertex  1.500000e+001 -7.000000e+000  6.000000e+000
      vertex  1.500000e+001 -7.000000e+000  1.000000e+001
      vertex  3.000000e+000  5.000000e+000  6.000000e+000
    endloop
  endfacet
  facet normal -7.071068e-001 -7.071068e-001  0.000000e+000
    outer loop
      vertex  3.000000e+000  5.000000e+000  6.000000e+000
      vertex  1.500000e+001 -7.000000e+000  1.000000e+001
      vertex  3.000000e+000  5.000000e+000  1.000000e+001
    endloop
  endfacet
  facet normal -1.000000e+000  0.000000e+000  0.000000e+000
    outer loop
      vertex  1.500000e+001 -2.900000e+001  6.000000e+000
      vertex  1.500000e+001 -2.900000e+001  1.000000e+001
      vertex  1.500000e+001 -7.000000e+000  6.000000e+000
    endloop
  endfacet
  facet normal -1.000000e+000  0.000000e+000  0.000000e+000
    outer loop
      vertex  1.500000e+001 -7.000000e+000  6.000000e+000
      vertex  1.500000e+001 -2.900000e+001  1.000000e+001
      vertex  1.500000e+001 -7.000000e+000  1.000000e+001
    endloop
  endfacet
  facet normal -8.910065e-001  4.539905e-001  0.000000e+000
    outer loop
      vertex  1.194427e+001 -3.840456e+001  6.000000e+000
      vertex  1.421690e+001 -3.394427e+001  1.000000e+001
      vertex  1.421690e+001 -3.394427e+001  6.000000e+000
    endloop
  endfacet
  facet normal -9.876884e-001  1.564344e-001  0.000000e+000
    outer loop
      vertex  1.421690e+001 -3.394427e+001  6.000000e+000
      vertex  1.421690e+001 -3.394427e+001  1.000000e+001
      vertex  1.500000e+001 -2.900000e+001  1.000000e+001
    endloop
  endfacet
  facet normal -9.876884e-001  1.564344e-001  0.000000e+000
    outer loop
      vertex  1.421690e+001 -3.394427e+001  6.000000e+000
      vertex  1.500000e+001 -2.900000e+001  1.000000e+001
      vertex  1.500000e+001 -2.900000e+001  6.000000e+000
    endloop
  endfacet
  facet normal -8.910065e-001  4.539905e-001  0.000000e+000
    outer loop
      vertex  1.421690e+001 -3.394427e+001  1.000000e+001
      vertex  1.194427e+001 -3.840456e+001  6.000000e+000
      vertex  1.194427e+001 -3.840456e+001  1.000000e+001
    endloop
  endfacet
  facet normal -7.071066e-001  7.071068e-001  0.000000e+000
    outer loop
      vertex  1.194427e+001 -3.840456e+001  1.000000e+001
      vertex  1.194427e+001 -3.840456e+001  6.000000e+000
      vertex  8.404564e+000 -4.194427e+001  6.000000e+000
    endloop
  endfacet
  facet normal -7.071066e-001  7.071068e-001  0.000000e+000
    outer loop
      vertex  1.194427e+001 -3.840456e+001  1.000000e+001
      vertex  8.404564e+000 -4.194427e+001  6.000000e+000
      vertex  8.404564e+000 -4.194427e+001  1.000000e+001
    endloop
  endfacet
  facet normal -4.539905e-001  8.910065e-001  0.000000e+000
    outer loop
      vertex  8.404564e+000 -4.194427e+001  1.000000e+001
      vertex  8.404564e+000 -4.194427e+001  6.000000e+000
      vertex  3.944272e+000 -4.421690e+001  6.000000e+000
    endloop
  endfacet
  facet normal -4.539905e-001  8.910065e-001  0.000000e+000
    outer loop
      vertex  8.404564e+000 -4.194427e+001  1.000000e+001
      vertex  3.944272e+000 -4.421690e+001  6.000000e+000
      vertex  3.944272e+000 -4.421690e+001  1.000000e+001
    endloop
  endfacet
  facet normal -1.564346e-001  9.876883e-001  0.000000e+000
    outer loop
      vertex  3.944272e+000 -4.421690e+001  1.000000e+001
      vertex  3.944272e+000 -4.421690e+001  6.000000e+000
      vertex -1.000000e+000 -4.500000e+001  6.000000e+000
    endloop
  endfacet
  facet normal -1.564346e-001  9.876883e-001  0.000000e+000
    outer loop
      vertex  3.944272e+000 -4.421690e+001  1.000000e+001
      vertex -1.000000e+000 -4.500000e+001  6.000000e+000
      vertex -1.000000e+000 -4.500000e+001  1.000000e+001
    endloop
  endfacet
  facet normal  0.000000e+000  1.000000e+000  0.000000e+000
    outer loop
      vertex -4.500000e+001 -4.500000e+001  6.000000e+000
      vertex -4.500000e+001 -4.500000e+001  1.000000e+001
      vertex -1.000000e+000 -4.500000e+001  6.000000e+000
    endloop
  endfacet
  facet normal  0.000000e+000  1.000000e+000  -0.000000e+000
    outer loop
      vertex -1.000000e+000 -4.500000e+001  6.000000e+000
      vertex -4.500000e+001 -4.500000e+001  1.000000e+001
      vertex -1.000000e+000 -4.500000e+001  1.000000e+001
    endloop
  endfacet
  facet normal  1.000000e+000  0.000000e+000  0.000000e+000
    outer loop
      vertex -4.500000e+001 -9.000000e+000  6.000000e+000
      vertex -4.500000e+001 -9.000000e+000  1.000000e+001
      vertex -4.500000e+001 -4.500000e+001  6.000000e+000
    endloop
  endfacet
  facet normal  1.000000e+000  0.000000e+000  0.000000e+000
    outer loop
      vertex -4.500000e+001 -4.500000e+001  6.000000e+000
      vertex -4.500000e+001 -9.000000e+000  1.000000e+001
      vertex -4.500000e+001 -4.500000e+001  1.000000e+001
    endloop
  endfacet
  facet normal  0.000000e+000  0.000000e+000  1.000000e+000
    outer loop
      vertex  1.500000e+001 -7.000000e+000  6.000000e+000
      vertex  3.000000e+000  5.000000e+000  6.000000e+000
      vertex -3.100000e+001  5.000000e+000  6.000000e+000
    endloop
  endfacet
  facet normal  0.000000e+000  0.000000e+000  1.000000e+000
    outer loop
      vertex  1.500000e+001 -7.000000e+000  6.000000e+000
      vertex -3.100000e+001  5.000000e+000  6.000000e+000
      vertex -3.168521e+001  6.737621e-001  6.000000e+000
    endloop
  endfacet
  facet normal  0.000000e+000  0.000000e+000  1.000000e+000
    outer loop
      vertex  1.500000e+001 -7.000000e+000  6.000000e+000
      vertex -3.168521e+001  6.737621e-001  6.000000e+000
      vertex -3.367376e+001 -3.228993e+000  6.000000e+000
    endloop
  endfacet
  facet normal  0.000000e+000  0.000000e+000  1.000000e+000
    outer loop
      vertex  1.500000e+001 -7.000000e+000  6.000000e+000
      vertex -3.367376e+001 -3.228993e+000  6.000000e+000
      vertex -3.677101e+001 -6.326238e+000  6.000000e+000
    endloop
  endfacet
  facet normal  0.000000e+000  0.000000e+000  1.000000e+000
    outer loop
      vertex  1.500000e+001 -7.000000e+000  6.000000e+000
      vertex -3.677101e+001 -6.326238e+000  6.000000e+000
      vertex -4.067376e+001 -8.314792e+000  6.000000e+000
    endloop
  endfacet
  facet normal  -0.000000e+000  0.000000e+000  1.000000e+000
    outer loop
      vertex  1.500000e+001 -7.000000e+000  6.000000e+000
      vertex -4.067376e+001 -8.314792e+000  6.000000e+000
      vertex -4.500000e+001 -9.000000e+000  6.000000e+000
    endloop
  endfacet
  facet normal  -0.000000e+000  0.000000e+000  1.000000e+000
    outer loop
      vertex  1.500000e+001 -7.000000e+000  6.000000e+000
      vertex -4.500000e+001 -9.000000e+000  6.000000e+000
      vertex -4.500000e+001 -4.500000e+001  6.000000e+000
    endloop
  endfacet
  facet normal  0.000000e+000  0.000000e+000  9.999999e-001
    outer loop
      vertex  1.500000e+001 -7.000000e+000  6.000000e+000
      vertex -4.500000e+001 -4.500000e+001  6.000000e+000
      vertex  1.500000e+001 -2.900000e+001  6.000000e+000
    endloop
  endfacet
  facet normal  0.000000e+000  -0.000000e+000  1.000000e+000
    outer loop
      vertex -4.500000e+001 -4.500000e+001  6.000000e+000
      vertex -1.000000e+000 -4.500000e+001  6.000000e+000
      vertex  3.944272e+000 -4.421690e+001  6.000000e+000
    endloop
  endfacet
  facet normal  0.000000e+000  -0.000000e+000  1.000000e+000
    outer loop
      vertex -4.500000e+001 -4.500000e+001  6.000000e+000
      vertex  3.944272e+000 -4.421690e+001  6.000000e+000
      vertex  8.404564e+000 -4.194427e+001  6.000000e+000
    endloop
  endfacet
  facet normal  0.000000e+000  -0.000000e+000  1.000000e+000
    outer loop
      vertex -4.500000e+001 -4.500000e+001  6.000000e+000
      vertex  8.404564e+000 -4.194427e+001  6.000000e+000
      vertex  1.194427e+001 -3.840456e+001  6.000000e+000
    endloop
  endfacet
  facet normal  0.000000e+000  -0.000000e+000  1.000000e+000
    outer loop
      vertex -4.500000e+001 -4.500000e+001  6.000000e+000
      vertex  1.194427e+001 -3.840456e+001  6.000000e+000
      vertex  1.421690e+001 -3.394427e+001  6.000000e+000
    endloop
  endfacet
  facet normal  0.000000e+000  -0.000000e+000  1.000000e+000
    outer loop
      vertex -4.500000e+001 -4.500000e+001  6.000000e+000
      vertex  1.421690e+001 -3.394427e+001  6.000000e+000
      vertex  1.500000e+001 -2.900000e+001  6.000000e+000
    endloop
  endfacet
  facet normal  0.000000e+000  0.000000e+000 -1.000000e+000
    outer loop
      vertex -6.000000e+001 -6.000000e+001  0.000000e+000
      vertex -6.000000e+001  3.000000e+001  0.000000e+000
      vertex  3.000000e+001 -6.000000e+001  0.000000e+000
    endloop
  endfacet
  facet normal  0.000000e+000  0.000000e+000 -1.000000e+000
    outer loop
      vertex  3.000000e+001 -6.000000e+001  0.000000e+000
      vertex -6.000000e+001  3.000000e+001  0.000000e+000
      vertex  3.000000e+001  3.000000e+001  0.000000e+000
    endloop
  endfacet
  facet normal  0.000000e+000 -1.000000e+000  0.000000e+000
    outer loop
      vertex  3.000000e+001 -6.000000e+001  1.000000e+001
      vertex -6.000000e+001 -6.000000e+001  1.000000e+001
      vertex  3.000000e+001 -6.000000e+001  0.000000e+000
    endloop
  endfacet
  facet normal  0.000000e+000 -1.000000e+000  0.000000e+000
    outer loop
      vertex  3.000000e+001 -6.000000e+001  0.000000e+000
      vertex -6.000000e+001 -6.000000e+001  1.000000e+001
      vertex -6.000000e+001 -6.000000e+001  0.000000e+000
    endloop
  endfacet
  facet normal -1.000000e+000  -0.000000e+000  0.000000e+000
    outer loop
      vertex -6.000000e+001 -6.000000e+001  1.000000e+001
      vertex -6.000000e+001  3.000000e+001  1.000000e+001
      vertex -6.000000e+001 -6.000000e+001  0.000000e+000
    endloop
  endfacet
  facet normal -1.000000e+000  0.000000e+000  0.000000e+000
    outer loop
      vertex -6.000000e+001 -6.000000e+001  0.000000e+000
      vertex -6.000000e+001  3.000000e+001  1.000000e+001
      vertex -6.000000e+001  3.000000e+001  0.000000e+000
    endloop
  endfacet
  facet normal  0.000000e+000  1.000000e+000  0.000000e+000
    outer loop
      vertex -6.000000e+001  3.000000e+001  1.000000e+001
      vertex  3.000000e+001  3.000000e+001  1.000000e+001
      vertex -6.000000e+001  3.000000e+001  0.000000e+000
    endloop
  endfacet
  facet normal  0.000000e+000  1.000000e+000  0.000000e+000
    outer loop
      vertex -6.000000e+001  3.000000e+001  0.000000e+000
      vertex  3.000000e+001  3.000000e+001  1.000000e+001
      vertex  3.000000e+001  3.000000e+001  0.000000e+000
    endloop
  endfacet
  facet normal  1.000000e+000  -0.000000e+000  0.000000e+000
    outer loop
      vertex  3.000000e+001  3.000000e+001  1.000000e+001
      vertex  3.000000e+001 -6.000000e+001  1.000000e+001
      vertex  3.000000e+001  3.000000e+001  0.000000e+000
    endloop
  endfacet
  facet normal  1.000000e+000  0.000000e+000  0.000000e+000
    outer loop
      vertex  3.000000e+001  3.000000e+001  0.000000e+000
      vertex  3.000000e+001 -6.000000e+001  1.000000e+001
      vertex  3.000000e+001 -6.000000e+001  0.000000e+000
    endloop
  endfacet
endsolid CATIA STL
