solid CATIA STL
  facet normal -7.474868e-001  3.123498e-001 -5.862603e-001
    outer loop
      vertex -6.581869e+000  6.500000e+001 -3.595691e+000
      vertex -8.434111e+000  5.000000e+001 -9.225821e+000
      vertex -1.096978e+001  5.000000e+001 -5.992819e+000
    endloop
  endfacet
  facet normal -7.087740e-001  3.229288e-001 -6.271813e-001
    outer loop
      vertex -6.581869e+000  6.500000e+001 -3.595691e+000
      vertex -4.369947e+000  6.500000e+001 -6.095372e+000
      vertex -8.434111e+000  5.000000e+001 -9.225821e+000
    endloop
  endfacet
  facet normal  9.094808e-001  3.266400e-001  2.571985e-001
    outer loop
      vertex  6.581869e+000  6.500000e+001  3.595691e+000
      vertex  1.211141e+001  5.000000e+001  3.092550e+000
      vertex  7.490171e+000  6.500000e+001  3.838401e-001
    endloop
  endfacet
  facet normal  8.834438e-001  3.140046e-001  3.477470e-001
    outer loop
      vertex  6.581869e+000  6.500000e+001  3.595691e+000
      vertex  1.096978e+001  5.000000e+001  5.992819e+000
      vertex  1.211141e+001  5.000000e+001  3.092550e+000
    endloop
  endfacet
  facet normal -5.179754e-001  3.069696e-001 -7.984178e-001
    outer loop
      vertex -4.369947e+000  6.500000e+001 -6.095372e+000
      vertex -4.987181e+000  5.000000e+001 -1.146203e+001
      vertex -8.434111e+000  5.000000e+001 -9.225821e+000
    endloop
  endfacet
  facet normal -3.659430e-001  3.268129e-001 -8.713662e-001
    outer loop
      vertex -1.292503e+000  6.500000e+001 -7.387790e+000
      vertex -4.987181e+000  5.000000e+001 -1.146203e+001
      vertex -4.369947e+000  6.500000e+001 -6.095372e+000
    endloop
  endfacet
  facet normal  3.833240e-001  3.106836e-001 -8.697921e-001
    outer loop
      vertex  3.092550e+000  5.000000e+001 -1.211141e+001
      vertex  2.040936e+000  6.500000e+001 -7.216965e+000
      vertex  6.852381e+000  5.000000e+001 -1.045442e+001
    endloop
  endfacet
  facet normal  6.455290e-001  3.065977e-001 -6.994927e-001
    outer loop
      vertex  4.970144e+000  6.500000e+001 -5.616731e+000
      vertex  9.871851e+000  5.000000e+001 -7.667892e+000
      vertex  6.852381e+000  5.000000e+001 -1.045442e+001
    endloop
  endfacet
  facet normal  4.534643e-001  3.246067e-001 -8.300606e-001
    outer loop
      vertex  4.970144e+000  6.500000e+001 -5.616731e+000
      vertex  6.852381e+000  5.000000e+001 -1.045442e+001
      vertex  2.040936e+000  6.500000e+001 -7.216965e+000
    endloop
  endfacet
  facet normal  8.368962e-001  3.085579e-001 -4.521025e-001
    outer loop
      vertex  6.914953e+000  6.500000e+001 -2.904036e+000
      vertex  1.182472e+001  5.000000e+001 -4.052892e+000
      vertex  9.871851e+000  5.000000e+001 -7.667892e+000
    endloop
  endfacet
  facet normal  7.682187e-001  3.263518e-001 -5.507581e-001
    outer loop
      vertex  6.914953e+000  6.500000e+001 -2.904036e+000
      vertex  9.871851e+000  5.000000e+001 -7.667892e+000
      vertex  4.970144e+000  6.500000e+001 -5.616731e+000
    endloop
  endfacet
  facet normal  9.351863e-001  3.180373e-001 -1.558172e-001
    outer loop
      vertex  1.250000e+001  5.000000e+001  1.530758e-015
      vertex  1.182472e+001  5.000000e+001 -4.052892e+000
      vertex  6.914953e+000  6.500000e+001 -2.904036e+000
    endloop
  endfacet
  facet normal  9.344705e-001  3.162860e-001 -1.634869e-001
    outer loop
      vertex  1.250000e+001  5.000000e+001  1.530758e-015
      vertex  6.914953e+000  6.500000e+001 -2.904036e+000
      vertex  7.490171e+000  6.500000e+001  3.838401e-001
    endloop
  endfacet
  facet normal  9.427252e-001  3.118282e-001  1.184582e-001
    outer loop
      vertex  1.250000e+001  5.000000e+001  1.530758e-015
      vertex  7.490171e+000  6.500000e+001  3.838401e-001
      vertex  1.211141e+001  5.000000e+001  3.092550e+000
    endloop
  endfacet
  facet normal  4.860862e-002  3.129119e-001 -9.485375e-001
    outer loop
      vertex  2.040936e+000  6.500000e+001 -7.216965e+000
      vertex  3.092550e+000  5.000000e+001 -1.211141e+001
      vertex -1.292503e+000  6.500000e+001 -7.387790e+000
    endloop
  endfacet
  facet normal  8.032009e-002  3.206826e-001 -9.437751e-001
    outer loop
      vertex -1.292503e+000  6.500000e+001 -7.387790e+000
      vertex  3.092550e+000  5.000000e+001 -1.211141e+001
      vertex -1.001414e+000  5.000000e+001 -1.245982e+001
    endloop
  endfacet
  facet normal -2.310701e-001  3.076233e-001 -9.230247e-001
    outer loop
      vertex -1.292503e+000  6.500000e+001 -7.387790e+000
      vertex -1.001414e+000  5.000000e+001 -1.245982e+001
      vertex -4.987181e+000  5.000000e+001 -1.146203e+001
    endloop
  endfacet
  facet normal  7.474868e-001  3.123498e-001  5.862603e-001
    outer loop
      vertex  6.581869e+000  6.500000e+001  3.595691e+000
      vertex  8.434111e+000  5.000000e+001  9.225821e+000
      vertex  1.096978e+001  5.000000e+001  5.992819e+000
    endloop
  endfacet
  facet normal  7.087740e-001  3.229288e-001  6.271813e-001
    outer loop
      vertex  6.581869e+000  6.500000e+001  3.595691e+000
      vertex  4.369947e+000  6.500000e+001  6.095372e+000
      vertex  8.434111e+000  5.000000e+001  9.225821e+000
    endloop
  endfacet
  facet normal -9.094808e-001  3.266400e-001 -2.571985e-001
    outer loop
      vertex -6.581869e+000  6.500000e+001 -3.595691e+000
      vertex -1.211141e+001  5.000000e+001 -3.092550e+000
      vertex -7.490171e+000  6.500000e+001 -3.838401e-001
    endloop
  endfacet
  facet normal -8.834438e-001  3.140046e-001 -3.477470e-001
    outer loop
      vertex -6.581869e+000  6.500000e+001 -3.595691e+000
      vertex -1.096978e+001  5.000000e+001 -5.992819e+000
      vertex -1.211141e+001  5.000000e+001 -3.092550e+000
    endloop
  endfacet
  facet normal  5.179754e-001  3.069696e-001  7.984178e-001
    outer loop
      vertex  4.369947e+000  6.500000e+001  6.095372e+000
      vertex  4.987181e+000  5.000000e+001  1.146203e+001
      vertex  8.434111e+000  5.000000e+001  9.225821e+000
    endloop
  endfacet
  facet normal  3.659430e-001  3.268129e-001  8.713662e-001
    outer loop
      vertex  1.292503e+000  6.500000e+001  7.387790e+000
      vertex  4.987181e+000  5.000000e+001  1.146203e+001
      vertex  4.369947e+000  6.500000e+001  6.095372e+000
    endloop
  endfacet
  facet normal -3.833240e-001  3.106836e-001  8.697921e-001
    outer loop
      vertex -3.092550e+000  5.000000e+001  1.211141e+001
      vertex -2.040936e+000  6.500000e+001  7.216965e+000
      vertex -6.852381e+000  5.000000e+001  1.045442e+001
    endloop
  endfacet
  facet normal -6.455290e-001  3.065977e-001  6.994927e-001
    outer loop
      vertex -4.970144e+000  6.500000e+001  5.616731e+000
      vertex -9.871851e+000  5.000000e+001  7.667892e+000
      vertex -6.852381e+000  5.000000e+001  1.045442e+001
    endloop
  endfacet
  facet normal -4.534643e-001  3.246067e-001  8.300606e-001
    outer loop
      vertex -4.970144e+000  6.500000e+001  5.616731e+000
      vertex -6.852381e+000  5.000000e+001  1.045442e+001
      vertex -2.040936e+000  6.500000e+001  7.216965e+000
    endloop
  endfacet
  facet normal -8.368962e-001  3.085579e-001  4.521025e-001
    outer loop
      vertex -6.914953e+000  6.500000e+001  2.904036e+000
      vertex -1.182472e+001  5.000000e+001  4.052892e+000
      vertex -9.871851e+000  5.000000e+001  7.667892e+000
    endloop
  endfacet
  facet normal -7.682187e-001  3.263518e-001  5.507581e-001
    outer loop
      vertex -6.914953e+000  6.500000e+001  2.904036e+000
      vertex -9.871851e+000  5.000000e+001  7.667892e+000
      vertex -4.970144e+000  6.500000e+001  5.616731e+000
    endloop
  endfacet
  facet normal -9.351863e-001  3.180373e-001  1.558172e-001
    outer loop
      vertex -1.250000e+001  5.000000e+001 -3.061516e-015
      vertex -1.182472e+001  5.000000e+001  4.052892e+000
      vertex -6.914953e+000  6.500000e+001  2.904036e+000
    endloop
  endfacet
  facet normal -9.344705e-001  3.162860e-001  1.634869e-001
    outer loop
      vertex -1.250000e+001  5.000000e+001 -3.061516e-015
      vertex -6.914953e+000  6.500000e+001  2.904036e+000
      vertex -7.490171e+000  6.500000e+001 -3.838401e-001
    endloop
  endfacet
  facet normal -9.427252e-001  3.118282e-001 -1.184582e-001
    outer loop
      vertex -1.250000e+001  5.000000e+001 -3.061516e-015
      vertex -7.490171e+000  6.500000e+001 -3.838401e-001
      vertex -1.211141e+001  5.000000e+001 -3.092550e+000
    endloop
  endfacet
  facet normal -4.860862e-002  3.129119e-001  9.485375e-001
    outer loop
      vertex -2.040936e+000  6.500000e+001  7.216965e+000
      vertex -3.092550e+000  5.000000e+001  1.211141e+001
      vertex  1.292503e+000  6.500000e+001  7.387790e+000
    endloop
  endfacet
  facet normal -8.032009e-002  3.206826e-001  9.437751e-001
    outer loop
      vertex  1.292503e+000  6.500000e+001  7.387790e+000
      vertex -3.092550e+000  5.000000e+001  1.211141e+001
      vertex  1.001414e+000  5.000000e+001  1.245982e+001
    endloop
  endfacet
  facet normal  2.310701e-001  3.076233e-001  9.230247e-001
    outer loop
      vertex  1.292503e+000  6.500000e+001  7.387790e+000
      vertex  1.001414e+000  5.000000e+001  1.245982e+001
      vertex  4.987181e+000  5.000000e+001  1.146203e+001
    endloop
  endfacet
  facet normal -6.427761e-001 -5.954362e-003 -7.660310e-001
    outer loop
      vertex -6.250000e+000  2.000000e+001 -1.082532e+001
      vertex -9.575556e+000  2.000000e+001 -8.034845e+000
      vertex -8.434111e+000  5.000000e+001 -9.225821e+000
    endloop
  endfacet
  facet normal -5.442453e-001  5.104739e-003 -8.389107e-001
    outer loop
      vertex -8.434111e+000  5.000000e+001 -9.225821e+000
      vertex -4.987181e+000  5.000000e+001 -1.146203e+001
      vertex -6.250000e+000  2.000000e+001 -1.082532e+001
    endloop
  endfacet
  facet normal -3.420149e-001 -5.546595e-003 -9.396781e-001
    outer loop
      vertex -2.170602e+000  2.000000e+001 -1.231010e+001
      vertex -6.250000e+000  2.000000e+001 -1.082532e+001
      vertex -4.987181e+000  5.000000e+001 -1.146203e+001
    endloop
  endfacet
  facet normal -2.428435e-001  4.622915e-003 -9.700545e-001
    outer loop
      vertex -4.987181e+000  5.000000e+001 -1.146203e+001
      vertex -1.001414e+000  5.000000e+001 -1.245982e+001
      vertex -2.170602e+000  2.000000e+001 -1.231010e+001
    endloop
  endfacet
  facet normal  0.000000e+000 -4.990802e-003 -9.999876e-001
    outer loop
      vertex  2.170602e+000  2.000000e+001 -1.231010e+001
      vertex -2.170602e+000  2.000000e+001 -1.231010e+001
      vertex -1.001414e+000  5.000000e+001 -1.245982e+001
    endloop
  endfacet
  facet normal  8.479791e-002  3.993164e-003 -9.963902e-001
    outer loop
      vertex -1.001414e+000  5.000000e+001 -1.245982e+001
      vertex  3.092550e+000  5.000000e+001 -1.211141e+001
      vertex  2.170602e+000  2.000000e+001 -1.231010e+001
    endloop
  endfacet
  facet normal  3.420170e-001 -4.287152e-003 -9.396840e-001
    outer loop
      vertex  6.250000e+000  2.000000e+001 -1.082532e+001
      vertex  2.170602e+000  2.000000e+001 -1.231010e+001
      vertex  3.092550e+000  5.000000e+001 -1.211141e+001
    endloop
  endfacet
  facet normal  4.032789e-001  3.215697e-003 -9.150714e-001
    outer loop
      vertex  3.092550e+000  5.000000e+001 -1.211141e+001
      vertex  6.852381e+000  5.000000e+001 -1.045442e+001
      vertex  6.250000e+000  2.000000e+001 -1.082532e+001
    endloop
  endfacet
  facet normal  6.427837e-001 -3.435922e-003 -7.660400e-001
    outer loop
      vertex  9.575556e+000  2.000000e+001 -8.034845e+000
      vertex  6.250000e+000  2.000000e+001 -1.082532e+001
      vertex  6.852381e+000  5.000000e+001 -1.045442e+001
    endloop
  endfacet
  facet normal  6.781895e-001  2.290791e-003 -7.348835e-001
    outer loop
      vertex  6.852381e+000  5.000000e+001 -1.045442e+001
      vertex  9.871851e+000  5.000000e+001 -7.667892e+000
      vertex  9.575556e+000  2.000000e+001 -8.034845e+000
    endloop
  endfacet
  facet normal  8.660229e-001 -2.437409e-003 -4.999985e-001
    outer loop
      vertex  1.174616e+001  2.000000e+001 -4.275252e+000
      vertex  9.575556e+000  2.000000e+001 -8.034845e+000
      vertex  9.871851e+000  5.000000e+001 -7.667892e+000
    endloop
  endfacet
  facet normal -7.868438e-001  5.438465e-003 -6.171283e-001
    outer loop
      vertex -1.096978e+001  5.000000e+001 -5.992819e+000
      vertex -8.434111e+000  5.000000e+001 -9.225821e+000
      vertex -9.575556e+000  2.000000e+001 -8.034845e+000
    endloop
  endfacet
  facet normal -8.660088e-001 -6.213961e-003 -4.999903e-001
    outer loop
      vertex -1.096978e+001  5.000000e+001 -5.992819e+000
      vertex -9.575556e+000  2.000000e+001 -8.034845e+000
      vertex -1.174616e+001  2.000000e+001 -4.275252e+000
    endloop
  endfacet
  facet normal -9.305031e-001  3.110840e-003 -3.662708e-001
    outer loop
      vertex -1.096978e+001  5.000000e+001 -5.992819e+000
      vertex -1.174616e+001  2.000000e+001 -4.275252e+000
      vertex -1.211141e+001  5.000000e+001 -3.092550e+000
    endloop
  endfacet
  facet normal -9.921722e-001 -7.164646e-003 -1.246715e-001
    outer loop
      vertex -1.211141e+001  5.000000e+001 -3.092550e+000
      vertex -1.174616e+001  2.000000e+001 -4.275252e+000
      vertex -1.250000e+001  5.000000e+001 -3.061516e-015
    endloop
  endfacet
  facet normal -9.848077e-001 -1.772089e-017 -1.736482e-001
    outer loop
      vertex -1.250000e+001  5.000000e+001 -3.061516e-015
      vertex -1.174616e+001  2.000000e+001 -4.275252e+000
      vertex -1.250000e+001  2.000000e+001  0.000000e+000
    endloop
  endfacet
  facet normal  9.864019e-001 -3.041097e-017 -1.643506e-001
    outer loop
      vertex  1.250000e+001  5.000000e+001  1.530758e-015
      vertex  1.250000e+001  2.000000e+001  7.081873e-015
      vertex  1.182472e+001  5.000000e+001 -4.052892e+000
    endloop
  endfacet
  facet normal  9.848070e-001 -1.291956e-003 -1.736481e-001
    outer loop
      vertex  1.182472e+001  5.000000e+001 -4.052892e+000
      vertex  1.250000e+001  2.000000e+001  7.081873e-015
      vertex  1.174616e+001  2.000000e+001 -4.275252e+000
    endloop
  endfacet
  facet normal  8.798263e-001  1.218765e-003 -4.752939e-001
    outer loop
      vertex  1.182472e+001  5.000000e+001 -4.052892e+000
      vertex  1.174616e+001  2.000000e+001 -4.275252e+000
      vertex  9.871851e+000  5.000000e+001 -7.667892e+000
    endloop
  endfacet
  facet normal  6.427761e-001 -5.954362e-003  7.660310e-001
    outer loop
      vertex  6.250000e+000  2.000000e+001  1.082532e+001
      vertex  9.575556e+000  2.000000e+001  8.034845e+000
      vertex  8.434111e+000  5.000000e+001  9.225821e+000
    endloop
  endfacet
  facet normal  5.442453e-001  5.104739e-003  8.389107e-001
    outer loop
      vertex  8.434111e+000  5.000000e+001  9.225821e+000
      vertex  4.987181e+000  5.000000e+001  1.146203e+001
      vertex  6.250000e+000  2.000000e+001  1.082532e+001
    endloop
  endfacet
  facet normal  3.420149e-001 -5.546595e-003  9.396781e-001
    outer loop
      vertex  2.170602e+000  2.000000e+001  1.231010e+001
      vertex  6.250000e+000  2.000000e+001  1.082532e+001
      vertex  4.987181e+000  5.000000e+001  1.146203e+001
    endloop
  endfacet
  facet normal  2.428435e-001  4.622915e-003  9.700545e-001
    outer loop
      vertex  4.987181e+000  5.000000e+001  1.146203e+001
      vertex  1.001414e+000  5.000000e+001  1.245982e+001
      vertex  2.170602e+000  2.000000e+001  1.231010e+001
    endloop
  endfacet
  facet normal  0.000000e+000 -4.990802e-003  9.999876e-001
    outer loop
      vertex -2.170602e+000  2.000000e+001  1.231010e+001
      vertex  2.170602e+000  2.000000e+001  1.231010e+001
      vertex  1.001414e+000  5.000000e+001  1.245982e+001
    endloop
  endfacet
  facet normal -8.479791e-002  3.993164e-003  9.963902e-001
    outer loop
      vertex  1.001414e+000  5.000000e+001  1.245982e+001
      vertex -3.092550e+000  5.000000e+001  1.211141e+001
      vertex -2.170602e+000  2.000000e+001  1.231010e+001
    endloop
  endfacet
  facet normal -3.420170e-001 -4.287152e-003  9.396840e-001
    outer loop
      vertex -6.250000e+000  2.000000e+001  1.082532e+001
      vertex -2.170602e+000  2.000000e+001  1.231010e+001
      vertex -3.092550e+000  5.000000e+001  1.211141e+001
    endloop
  endfacet
  facet normal -4.032789e-001  3.215697e-003  9.150714e-001
    outer loop
      vertex -3.092550e+000  5.000000e+001  1.211141e+001
      vertex -6.852381e+000  5.000000e+001  1.045442e+001
      vertex -6.250000e+000  2.000000e+001  1.082532e+001
    endloop
  endfacet
  facet normal -6.427837e-001 -3.435922e-003  7.660400e-001
    outer loop
      vertex -9.575556e+000  2.000000e+001  8.034845e+000
      vertex -6.250000e+000  2.000000e+001  1.082532e+001
      vertex -6.852381e+000  5.000000e+001  1.045442e+001
    endloop
  endfacet
  facet normal -6.781895e-001  2.290791e-003  7.348835e-001
    outer loop
      vertex -6.852381e+000  5.000000e+001  1.045442e+001
      vertex -9.871851e+000  5.000000e+001  7.667892e+000
      vertex -9.575556e+000  2.000000e+001  8.034845e+000
    endloop
  endfacet
  facet normal -8.660229e-001 -2.437409e-003  4.999985e-001
    outer loop
      vertex -1.174616e+001  2.000000e+001  4.275252e+000
      vertex -9.575556e+000  2.000000e+001  8.034845e+000
      vertex -9.871851e+000  5.000000e+001  7.667892e+000
    endloop
  endfacet
  facet normal  7.868438e-001  5.438465e-003  6.171283e-001
    outer loop
      vertex  1.096978e+001  5.000000e+001  5.992819e+000
      vertex  8.434111e+000  5.000000e+001  9.225821e+000
      vertex  9.575556e+000  2.000000e+001  8.034845e+000
    endloop
  endfacet
  facet normal  8.660088e-001 -6.213961e-003  4.999903e-001
    outer loop
      vertex  1.096978e+001  5.000000e+001  5.992819e+000
      vertex  9.575556e+000  2.000000e+001  8.034845e+000
      vertex  1.174616e+001  2.000000e+001  4.275252e+000
    endloop
  endfacet
  facet normal  9.305031e-001  3.110840e-003  3.662708e-001
    outer loop
      vertex  1.096978e+001  5.000000e+001  5.992819e+000
      vertex  1.174616e+001  2.000000e+001  4.275252e+000
      vertex  1.211141e+001  5.000000e+001  3.092550e+000
    endloop
  endfacet
  facet normal  9.921722e-001 -7.164646e-003  1.246715e-001
    outer loop
      vertex  1.211141e+001  5.000000e+001  3.092550e+000
      vertex  1.174616e+001  2.000000e+001  4.275252e+000
      vertex  1.250000e+001  5.000000e+001  1.530758e-015
    endloop
  endfacet
  facet normal  9.848077e-001  3.213137e-017  1.736482e-001
    outer loop
      vertex  1.250000e+001  5.000000e+001  1.530758e-015
      vertex  1.174616e+001  2.000000e+001  4.275252e+000
      vertex  1.250000e+001  2.000000e+001  7.081873e-015
    endloop
  endfacet
  facet normal -9.864019e-001  1.677206e-017  1.643506e-001
    outer loop
      vertex -1.250000e+001  5.000000e+001 -3.061516e-015
      vertex -1.250000e+001  2.000000e+001  0.000000e+000
      vertex -1.182472e+001  5.000000e+001  4.052892e+000
    endloop
  endfacet
  facet normal -9.848070e-001 -1.291956e-003  1.736481e-001
    outer loop
      vertex -1.182472e+001  5.000000e+001  4.052892e+000
      vertex -1.250000e+001  2.000000e+001  0.000000e+000
      vertex -1.174616e+001  2.000000e+001  4.275252e+000
    endloop
  endfacet
  facet normal -8.798263e-001  1.218765e-003  4.752939e-001
    outer loop
      vertex -1.182472e+001  5.000000e+001  4.052892e+000
      vertex -1.174616e+001  2.000000e+001  4.275252e+000
      vertex -9.871851e+000  5.000000e+001  7.667892e+000
    endloop
  endfacet
  facet normal  -0.000000e+000  1.000000e+000  0.000000e+000
    outer loop
      vertex  7.490171e+000  6.500000e+001  3.838401e-001
      vertex -6.914953e+000  6.500000e+001  2.904036e+000
      vertex  6.581869e+000  6.500000e+001  3.595691e+000
    endloop
  endfacet
  facet normal  0.000000e+000  1.000000e+000  0.000000e+000
    outer loop
      vertex  6.581869e+000  6.500000e+001  3.595691e+000
      vertex -6.914953e+000  6.500000e+001  2.904036e+000
      vertex -4.970144e+000  6.500000e+001  5.616731e+000
    endloop
  endfacet
  facet normal  -0.000000e+000  1.000000e+000  0.000000e+000
    outer loop
      vertex  6.581869e+000  6.500000e+001  3.595691e+000
      vertex -4.970144e+000  6.500000e+001  5.616731e+000
      vertex  4.369947e+000  6.500000e+001  6.095372e+000
    endloop
  endfacet
  facet normal  0.000000e+000  1.000000e+000  0.000000e+000
    outer loop
      vertex  4.369947e+000  6.500000e+001  6.095372e+000
      vertex -4.970144e+000  6.500000e+001  5.616731e+000
      vertex -2.040936e+000  6.500000e+001  7.216965e+000
    endloop
  endfacet
  facet normal  -0.000000e+000  1.000000e+000  0.000000e+000
    outer loop
      vertex  4.369947e+000  6.500000e+001  6.095372e+000
      vertex -2.040936e+000  6.500000e+001  7.216965e+000
      vertex  1.292503e+000  6.500000e+001  7.387790e+000
    endloop
  endfacet
  facet normal  0.000000e+000  9.999999e-001  0.000000e+000
    outer loop
      vertex -6.914953e+000  6.500000e+001  2.904036e+000
      vertex  7.490171e+000  6.500000e+001  3.838401e-001
      vertex -7.490171e+000  6.500000e+001 -3.838401e-001
    endloop
  endfacet
  facet normal  -0.000000e+000  9.999999e-001  0.000000e+000
    outer loop
      vertex -7.490171e+000  6.500000e+001 -3.838401e-001
      vertex  7.490171e+000  6.500000e+001  3.838401e-001
      vertex  6.914953e+000  6.500000e+001 -2.904036e+000
    endloop
  endfacet
  facet normal  0.000000e+000  1.000000e+000  0.000000e+000
    outer loop
      vertex -7.490171e+000  6.500000e+001 -3.838401e-001
      vertex  6.914953e+000  6.500000e+001 -2.904036e+000
      vertex -6.581869e+000  6.500000e+001 -3.595691e+000
    endloop
  endfacet
  facet normal  -0.000000e+000  1.000000e+000  0.000000e+000
    outer loop
      vertex -6.581869e+000  6.500000e+001 -3.595691e+000
      vertex  6.914953e+000  6.500000e+001 -2.904036e+000
      vertex  4.970144e+000  6.500000e+001 -5.616731e+000
    endloop
  endfacet
  facet normal  0.000000e+000  1.000000e+000  0.000000e+000
    outer loop
      vertex -6.581869e+000  6.500000e+001 -3.595691e+000
      vertex  4.970144e+000  6.500000e+001 -5.616731e+000
      vertex -4.369947e+000  6.500000e+001 -6.095372e+000
    endloop
  endfacet
  facet normal  -0.000000e+000  1.000000e+000  0.000000e+000
    outer loop
      vertex -4.369947e+000  6.500000e+001 -6.095372e+000
      vertex  4.970144e+000  6.500000e+001 -5.616731e+000
      vertex  2.040936e+000  6.500000e+001 -7.216965e+000
    endloop
  endfacet
  facet normal  0.000000e+000  1.000000e+000  0.000000e+000
    outer loop
      vertex -4.369947e+000  6.500000e+001 -6.095372e+000
      vertex  2.040936e+000  6.500000e+001 -7.216965e+000
      vertex -1.292503e+000  6.500000e+001 -7.387790e+000
    endloop
  endfacet
  facet normal  0.000000e+000  1.000000e+000  -0.000000e+000
    outer loop
      vertex  1.174616e+001  2.000000e+001 -4.275252e+000
      vertex  1.000000e+001  2.000000e+001 -1.732051e+001
      vertex  9.575556e+000  2.000000e+001 -8.034845e+000
    endloop
  endfacet
  facet normal  -0.000000e+000  1.000000e+000  0.000000e+000
    outer loop
      vertex  1.174616e+001  2.000000e+001  4.275252e+000
      vertex  9.575556e+000  2.000000e+001  8.034845e+000
      vertex  1.000000e+001  2.000000e+001  1.732051e+001
    endloop
  endfacet
  facet normal  -0.000000e+000  1.000000e+000  -0.000000e+000
    outer loop
      vertex  1.250000e+001  2.000000e+001  7.081873e-015
      vertex  1.174616e+001  2.000000e+001  4.275252e+000
      vertex  1.000000e+001  2.000000e+001  1.732051e+001
    endloop
  endfacet
  facet normal  0.000000e+000  9.999999e-001  0.000000e+000
    outer loop
      vertex  1.250000e+001  2.000000e+001  7.081873e-015
      vertex  1.000000e+001  2.000000e+001  1.732051e+001
      vertex  1.414214e+001  2.000000e+001  1.414214e+001
    endloop
  endfacet
  facet normal  0.000000e+000  1.000000e+000  0.000000e+000
    outer loop
      vertex  1.250000e+001  2.000000e+001  7.081873e-015
      vertex  1.414214e+001  2.000000e+001  1.414214e+001
      vertex  1.732051e+001  2.000000e+001  1.000000e+001
    endloop
  endfacet
  facet normal  0.000000e+000  1.000000e+000  0.000000e+000
    outer loop
      vertex  1.250000e+001  2.000000e+001  7.081873e-015
      vertex  1.732051e+001  2.000000e+001  1.000000e+001
      vertex  1.931852e+001  2.000000e+001  5.176381e+000
    endloop
  endfacet
  facet normal  0.000000e+000  1.000000e+000  0.000000e+000
    outer loop
      vertex  1.250000e+001  2.000000e+001  7.081873e-015
      vertex  1.931852e+001  2.000000e+001  5.176381e+000
      vertex  2.000000e+001  2.000000e+001  1.224606e-015
    endloop
  endfacet
  facet normal  0.000000e+000  1.000000e+000  0.000000e+000
    outer loop
      vertex  1.250000e+001  2.000000e+001  7.081873e-015
      vertex  2.000000e+001  2.000000e+001  1.224606e-015
      vertex  1.931852e+001  2.000000e+001 -5.176381e+000
    endloop
  endfacet
  facet normal  0.000000e+000  1.000000e+000  0.000000e+000
    outer loop
      vertex  1.250000e+001  2.000000e+001  7.081873e-015
      vertex  1.931852e+001  2.000000e+001 -5.176381e+000
      vertex  1.732051e+001  2.000000e+001 -1.000000e+001
    endloop
  endfacet
  facet normal  0.000000e+000  1.000000e+000  0.000000e+000
    outer loop
      vertex  1.250000e+001  2.000000e+001  7.081873e-015
      vertex  1.732051e+001  2.000000e+001 -1.000000e+001
      vertex  1.414214e+001  2.000000e+001 -1.414214e+001
    endloop
  endfacet
  facet normal  0.000000e+000  9.999999e-001  0.000000e+000
    outer loop
      vertex  1.250000e+001  2.000000e+001  7.081873e-015
      vertex  1.414214e+001  2.000000e+001 -1.414214e+001
      vertex  1.000000e+001  2.000000e+001 -1.732051e+001
    endloop
  endfacet
  facet normal  0.000000e+000  1.000000e+000  0.000000e+000
    outer loop
      vertex  1.250000e+001  2.000000e+001  7.081873e-015
      vertex  1.000000e+001  2.000000e+001 -1.732051e+001
      vertex  1.174616e+001  2.000000e+001 -4.275252e+000
    endloop
  endfacet
  facet normal  -0.000000e+000  1.000000e+000  0.000000e+000
    outer loop
      vertex -2.000000e+001  2.000000e+001 -3.673819e-015
      vertex -1.931852e+001  2.000000e+001  5.176381e+000
      vertex -1.732051e+001  2.000000e+001  1.000000e+001
    endloop
  endfacet
  facet normal  -0.000000e+000  1.000000e+000  0.000000e+000
    outer loop
      vertex -2.000000e+001  2.000000e+001 -3.673819e-015
      vertex -1.732051e+001  2.000000e+001  1.000000e+001
      vertex -1.414214e+001  2.000000e+001  1.414214e+001
    endloop
  endfacet
  facet normal  0.000000e+000  1.000000e+000  0.000000e+000
    outer loop
      vertex -2.000000e+001  2.000000e+001 -3.673819e-015
      vertex -1.414214e+001  2.000000e+001  1.414214e+001
      vertex -1.250000e+001  2.000000e+001  0.000000e+000
    endloop
  endfacet
  facet normal  0.000000e+000  1.000000e+000  0.000000e+000
    outer loop
      vertex -2.000000e+001  2.000000e+001 -3.673819e-015
      vertex -1.250000e+001  2.000000e+001  0.000000e+000
      vertex -1.414214e+001  2.000000e+001 -1.414214e+001
    endloop
  endfacet
  facet normal  0.000000e+000  1.000000e+000  0.000000e+000
    outer loop
      vertex -2.000000e+001  2.000000e+001 -3.673819e-015
      vertex -1.414214e+001  2.000000e+001 -1.414214e+001
      vertex -1.732051e+001  2.000000e+001 -1.000000e+001
    endloop
  endfacet
  facet normal  0.000000e+000  1.000000e+000  0.000000e+000
    outer loop
      vertex -2.000000e+001  2.000000e+001 -3.673819e-015
      vertex -1.732051e+001  2.000000e+001 -1.000000e+001
      vertex -1.931852e+001  2.000000e+001 -5.176381e+000
    endloop
  endfacet
  facet normal  0.000000e+000  1.000000e+000  0.000000e+000
    outer loop
      vertex  9.575556e+000  2.000000e+001 -8.034845e+000
      vertex  1.000000e+001  2.000000e+001 -1.732051e+001
      vertex  6.250000e+000  2.000000e+001 -1.082532e+001
    endloop
  endfacet
  facet normal  0.000000e+000  1.000000e+000  0.000000e+000
    outer loop
      vertex  6.250000e+000  2.000000e+001 -1.082532e+001
      vertex  1.000000e+001  2.000000e+001 -1.732051e+001
      vertex  5.176381e+000  2.000000e+001 -1.931852e+001
    endloop
  endfacet
  facet normal  0.000000e+000  1.000000e+000  -0.000000e+000
    outer loop
      vertex  6.250000e+000  2.000000e+001 -1.082532e+001
      vertex  5.176381e+000  2.000000e+001 -1.931852e+001
      vertex  2.170602e+000  2.000000e+001 -1.231010e+001
    endloop
  endfacet
  facet normal  0.000000e+000  1.000000e+000  0.000000e+000
    outer loop
      vertex  2.170602e+000  2.000000e+001 -1.231010e+001
      vertex  5.176381e+000  2.000000e+001 -1.931852e+001
      vertex  2.449213e-015  2.000000e+001 -2.000000e+001
    endloop
  endfacet
  facet normal  0.000000e+000  1.000000e+000  -0.000000e+000
    outer loop
      vertex  2.170602e+000  2.000000e+001 -1.231010e+001
      vertex  2.449213e-015  2.000000e+001 -2.000000e+001
      vertex -2.170602e+000  2.000000e+001 -1.231010e+001
    endloop
  endfacet
  facet normal  0.000000e+000  1.000000e+000  0.000000e+000
    outer loop
      vertex -2.170602e+000  2.000000e+001 -1.231010e+001
      vertex  2.449213e-015  2.000000e+001 -2.000000e+001
      vertex -5.176381e+000  2.000000e+001 -1.931852e+001
    endloop
  endfacet
  facet normal  0.000000e+000  1.000000e+000  -0.000000e+000
    outer loop
      vertex -2.170602e+000  2.000000e+001 -1.231010e+001
      vertex -5.176381e+000  2.000000e+001 -1.931852e+001
      vertex -6.250000e+000  2.000000e+001 -1.082532e+001
    endloop
  endfacet
  facet normal  0.000000e+000  1.000000e+000  0.000000e+000
    outer loop
      vertex -6.250000e+000  2.000000e+001 -1.082532e+001
      vertex -5.176381e+000  2.000000e+001 -1.931852e+001
      vertex -9.575556e+000  2.000000e+001 -8.034845e+000
    endloop
  endfacet
  facet normal  0.000000e+000  1.000000e+000  0.000000e+000
    outer loop
      vertex -9.575556e+000  2.000000e+001 -8.034845e+000
      vertex -5.176381e+000  2.000000e+001 -1.931852e+001
      vertex -1.000000e+001  2.000000e+001 -1.732051e+001
    endloop
  endfacet
  facet normal  0.000000e+000  1.000000e+000  -0.000000e+000
    outer loop
      vertex -9.575556e+000  2.000000e+001 -8.034845e+000
      vertex -1.000000e+001  2.000000e+001 -1.732051e+001
      vertex -1.174616e+001  2.000000e+001 -4.275252e+000
    endloop
  endfacet
  facet normal  0.000000e+000  9.999999e-001  0.000000e+000
    outer loop
      vertex -1.174616e+001  2.000000e+001 -4.275252e+000
      vertex -1.000000e+001  2.000000e+001 -1.732051e+001
      vertex -1.414214e+001  2.000000e+001 -1.414214e+001
    endloop
  endfacet
  facet normal  0.000000e+000  1.000000e+000  0.000000e+000
    outer loop
      vertex -1.174616e+001  2.000000e+001 -4.275252e+000
      vertex -1.414214e+001  2.000000e+001 -1.414214e+001
      vertex -1.250000e+001  2.000000e+001  0.000000e+000
    endloop
  endfacet
  facet normal  0.000000e+000  1.000000e+000  -0.000000e+000
    outer loop
      vertex  1.000000e+001  2.000000e+001  1.732051e+001
      vertex  9.575556e+000  2.000000e+001  8.034845e+000
      vertex  5.176381e+000  2.000000e+001  1.931852e+001
    endloop
  endfacet
  facet normal  0.000000e+000  1.000000e+000  0.000000e+000
    outer loop
      vertex  5.176381e+000  2.000000e+001  1.931852e+001
      vertex  9.575556e+000  2.000000e+001  8.034845e+000
      vertex  6.250000e+000  2.000000e+001  1.082532e+001
    endloop
  endfacet
  facet normal  0.000000e+000  1.000000e+000  0.000000e+000
    outer loop
      vertex  5.176381e+000  2.000000e+001  1.931852e+001
      vertex  6.250000e+000  2.000000e+001  1.082532e+001
      vertex  0.000000e+000  2.000000e+001  2.000000e+001
    endloop
  endfacet
  facet normal  0.000000e+000  9.999999e-001  0.000000e+000
    outer loop
      vertex  0.000000e+000  2.000000e+001  2.000000e+001
      vertex  6.250000e+000  2.000000e+001  1.082532e+001
      vertex  2.170602e+000  2.000000e+001  1.231010e+001
    endloop
  endfacet
  facet normal  0.000000e+000  1.000000e+000  0.000000e+000
    outer loop
      vertex  0.000000e+000  2.000000e+001  2.000000e+001
      vertex  2.170602e+000  2.000000e+001  1.231010e+001
      vertex -5.176381e+000  2.000000e+001  1.931852e+001
    endloop
  endfacet
  facet normal  0.000000e+000  1.000000e+000  0.000000e+000
    outer loop
      vertex -5.176381e+000  2.000000e+001  1.931852e+001
      vertex  2.170602e+000  2.000000e+001  1.231010e+001
      vertex -2.170602e+000  2.000000e+001  1.231010e+001
    endloop
  endfacet
  facet normal  0.000000e+000  1.000000e+000  0.000000e+000
    outer loop
      vertex -5.176381e+000  2.000000e+001  1.931852e+001
      vertex -2.170602e+000  2.000000e+001  1.231010e+001
      vertex -6.250000e+000  2.000000e+001  1.082532e+001
    endloop
  endfacet
  facet normal  0.000000e+000  1.000000e+000  -0.000000e+000
    outer loop
      vertex -5.176381e+000  2.000000e+001  1.931852e+001
      vertex -6.250000e+000  2.000000e+001  1.082532e+001
      vertex -1.000000e+001  2.000000e+001  1.732051e+001
    endloop
  endfacet
  facet normal  0.000000e+000  1.000000e+000  0.000000e+000
    outer loop
      vertex -1.000000e+001  2.000000e+001  1.732051e+001
      vertex -6.250000e+000  2.000000e+001  1.082532e+001
      vertex -9.575556e+000  2.000000e+001  8.034845e+000
    endloop
  endfacet
  facet normal  0.000000e+000  1.000000e+000  0.000000e+000
    outer loop
      vertex -1.000000e+001  2.000000e+001  1.732051e+001
      vertex -9.575556e+000  2.000000e+001  8.034845e+000
      vertex -1.414214e+001  2.000000e+001  1.414214e+001
    endloop
  endfacet
  facet normal  0.000000e+000  1.000000e+000  0.000000e+000
    outer loop
      vertex -1.414214e+001  2.000000e+001  1.414214e+001
      vertex -9.575556e+000  2.000000e+001  8.034845e+000
      vertex -1.174616e+001  2.000000e+001  4.275252e+000
    endloop
  endfacet
  facet normal  0.000000e+000  1.000000e+000  0.000000e+000
    outer loop
      vertex -1.414214e+001  2.000000e+001  1.414214e+001
      vertex -1.174616e+001  2.000000e+001  4.275252e+000
      vertex -1.250000e+001  2.000000e+001  0.000000e+000
    endloop
  endfacet
  facet normal  0.000000e+000 -1.000000e+000  0.000000e+000
    outer loop
      vertex  2.000000e+001  0.000000e+000  1.224606e-015
      vertex  1.931852e+001  0.000000e+000  5.176381e+000
      vertex  1.931852e+001  0.000000e+000 -5.176381e+000
    endloop
  endfacet
  facet normal  0.000000e+000 -1.000000e+000  0.000000e+000
    outer loop
      vertex -2.000000e+001  0.000000e+000 -3.673819e-015
      vertex -1.931852e+001  0.000000e+000 -5.176381e+000
      vertex -1.931852e+001  0.000000e+000  5.176381e+000
    endloop
  endfacet
  facet normal  0.000000e+000 -1.000000e+000  0.000000e+000
    outer loop
      vertex -1.931852e+001  0.000000e+000  5.176381e+000
      vertex -1.931852e+001  0.000000e+000 -5.176381e+000
      vertex -1.732051e+001  0.000000e+000 -1.000000e+001
    endloop
  endfacet
  facet normal  0.000000e+000 -1.000000e+000  0.000000e+000
    outer loop
      vertex -1.931852e+001  0.000000e+000  5.176381e+000
      vertex -1.732051e+001  0.000000e+000 -1.000000e+001
      vertex -1.732051e+001  0.000000e+000  1.000000e+001
    endloop
  endfacet
  facet normal  0.000000e+000 -1.000000e+000  0.000000e+000
    outer loop
      vertex -1.732051e+001  0.000000e+000  1.000000e+001
      vertex -1.732051e+001  0.000000e+000 -1.000000e+001
      vertex -1.414214e+001  0.000000e+000 -1.414214e+001
    endloop
  endfacet
  facet normal  0.000000e+000 -1.000000e+000  0.000000e+000
    outer loop
      vertex -1.732051e+001  0.000000e+000  1.000000e+001
      vertex -1.414214e+001  0.000000e+000 -1.414214e+001
      vertex -1.414214e+001  0.000000e+000  1.414214e+001
    endloop
  endfacet
  facet normal  0.000000e+000 -1.000000e+000  0.000000e+000
    outer loop
      vertex -1.414214e+001  0.000000e+000  1.414214e+001
      vertex -1.414214e+001  0.000000e+000 -1.414214e+001
      vertex -1.000000e+001  0.000000e+000 -1.732051e+001
    endloop
  endfacet
  facet normal  0.000000e+000 -1.000000e+000  0.000000e+000
    outer loop
      vertex -1.414214e+001  0.000000e+000  1.414214e+001
      vertex -1.000000e+001  0.000000e+000 -1.732051e+001
      vertex -1.000000e+001  0.000000e+000  1.732051e+001
    endloop
  endfacet
  facet normal  0.000000e+000 -1.000000e+000  0.000000e+000
    outer loop
      vertex -1.000000e+001  0.000000e+000  1.732051e+001
      vertex -1.000000e+001  0.000000e+000 -1.732051e+001
      vertex -5.176381e+000  0.000000e+000 -1.931852e+001
    endloop
  endfacet
  facet normal  0.000000e+000 -1.000000e+000  0.000000e+000
    outer loop
      vertex -1.000000e+001  0.000000e+000  1.732051e+001
      vertex -5.176381e+000  0.000000e+000 -1.931852e+001
      vertex -5.176381e+000  0.000000e+000  1.931852e+001
    endloop
  endfacet
  facet normal  0.000000e+000 -1.000000e+000  0.000000e+000
    outer loop
      vertex -5.176381e+000  0.000000e+000  1.931852e+001
      vertex -5.176381e+000  0.000000e+000 -1.931852e+001
      vertex  2.449213e-015  0.000000e+000 -2.000000e+001
    endloop
  endfacet
  facet normal  0.000000e+000 -1.000000e+000  0.000000e+000
    outer loop
      vertex -5.176381e+000  0.000000e+000  1.931852e+001
      vertex  2.449213e-015  0.000000e+000 -2.000000e+001
      vertex  0.000000e+000  0.000000e+000  2.000000e+001
    endloop
  endfacet
  facet normal  0.000000e+000 -1.000000e+000  0.000000e+000
    outer loop
      vertex  0.000000e+000  0.000000e+000  2.000000e+001
      vertex  2.449213e-015  0.000000e+000 -2.000000e+001
      vertex  5.176381e+000  0.000000e+000 -1.931852e+001
    endloop
  endfacet
  facet normal  0.000000e+000 -1.000000e+000  0.000000e+000
    outer loop
      vertex  0.000000e+000  0.000000e+000  2.000000e+001
      vertex  5.176381e+000  0.000000e+000 -1.931852e+001
      vertex  5.176381e+000  0.000000e+000  1.931852e+001
    endloop
  endfacet
  facet normal  0.000000e+000 -1.000000e+000  0.000000e+000
    outer loop
      vertex  5.176381e+000  0.000000e+000  1.931852e+001
      vertex  5.176381e+000  0.000000e+000 -1.931852e+001
      vertex  1.000000e+001  0.000000e+000 -1.732051e+001
    endloop
  endfacet
  facet normal  0.000000e+000 -1.000000e+000  0.000000e+000
    outer loop
      vertex  5.176381e+000  0.000000e+000  1.931852e+001
      vertex  1.000000e+001  0.000000e+000 -1.732051e+001
      vertex  1.000000e+001  0.000000e+000  1.732051e+001
    endloop
  endfacet
  facet normal  0.000000e+000 -1.000000e+000  0.000000e+000
    outer loop
      vertex  1.000000e+001  0.000000e+000  1.732051e+001
      vertex  1.000000e+001  0.000000e+000 -1.732051e+001
      vertex  1.414214e+001  0.000000e+000 -1.414214e+001
    endloop
  endfacet
  facet normal  0.000000e+000 -1.000000e+000  0.000000e+000
    outer loop
      vertex  1.000000e+001  0.000000e+000  1.732051e+001
      vertex  1.414214e+001  0.000000e+000 -1.414214e+001
      vertex  1.414214e+001  0.000000e+000  1.414214e+001
    endloop
  endfacet
  facet normal  0.000000e+000 -1.000000e+000  0.000000e+000
    outer loop
      vertex  1.414214e+001  0.000000e+000  1.414214e+001
      vertex  1.414214e+001  0.000000e+000 -1.414214e+001
      vertex  1.732051e+001  0.000000e+000 -1.000000e+001
    endloop
  endfacet
  facet normal  0.000000e+000 -1.000000e+000  0.000000e+000
    outer loop
      vertex  1.414214e+001  0.000000e+000  1.414214e+001
      vertex  1.732051e+001  0.000000e+000 -1.000000e+001
      vertex  1.732051e+001  0.000000e+000  1.000000e+001
    endloop
  endfacet
  facet normal  0.000000e+000 -1.000000e+000  0.000000e+000
    outer loop
      vertex  1.732051e+001  0.000000e+000  1.000000e+001
      vertex  1.732051e+001  0.000000e+000 -1.000000e+001
      vertex  1.931852e+001  0.000000e+000 -5.176381e+000
    endloop
  endfacet
  facet normal  0.000000e+000 -1.000000e+000  0.000000e+000
    outer loop
      vertex  1.732051e+001  0.000000e+000  1.000000e+001
      vertex  1.931852e+001  0.000000e+000 -5.176381e+000
      vertex  1.931852e+001  0.000000e+000  5.176381e+000
    endloop
  endfacet
  facet normal -1.305263e-001  0.000000e+000  9.914448e-001
    outer loop
      vertex  0.000000e+000  0.000000e+000  2.000000e+001
      vertex  0.000000e+000  2.000000e+001  2.000000e+001
      vertex -5.176381e+000  0.000000e+000  1.931852e+001
    endloop
  endfacet
  facet normal -1.305263e-001  0.000000e+000  9.914448e-001
    outer loop
      vertex -5.176381e+000  0.000000e+000  1.931852e+001
      vertex  0.000000e+000  2.000000e+001  2.000000e+001
      vertex -5.176381e+000  2.000000e+001  1.931852e+001
    endloop
  endfacet
  facet normal -3.826831e-001  0.000000e+000  9.238796e-001
    outer loop
      vertex -5.176381e+000  0.000000e+000  1.931852e+001
      vertex -5.176381e+000  2.000000e+001  1.931852e+001
      vertex -1.000000e+001  0.000000e+000  1.732051e+001
    endloop
  endfacet
  facet normal -3.826831e-001  0.000000e+000  9.238796e-001
    outer loop
      vertex -1.000000e+001  0.000000e+000  1.732051e+001
      vertex -5.176381e+000  2.000000e+001  1.931852e+001
      vertex -1.000000e+001  2.000000e+001  1.732051e+001
    endloop
  endfacet
  facet normal -6.087615e-001  0.000000e+000  7.933532e-001
    outer loop
      vertex -1.000000e+001  0.000000e+000  1.732051e+001
      vertex -1.000000e+001  2.000000e+001  1.732051e+001
      vertex -1.414214e+001  0.000000e+000  1.414214e+001
    endloop
  endfacet
  facet normal -6.087615e-001  0.000000e+000  7.933532e-001
    outer loop
      vertex -1.414214e+001  0.000000e+000  1.414214e+001
      vertex -1.000000e+001  2.000000e+001  1.732051e+001
      vertex -1.414214e+001  2.000000e+001  1.414214e+001
    endloop
  endfacet
  facet normal -7.933532e-001  0.000000e+000  6.087615e-001
    outer loop
      vertex -1.414214e+001  0.000000e+000  1.414214e+001
      vertex -1.414214e+001  2.000000e+001  1.414214e+001
      vertex -1.732051e+001  0.000000e+000  1.000000e+001
    endloop
  endfacet
  facet normal -7.933532e-001  0.000000e+000  6.087615e-001
    outer loop
      vertex -1.732051e+001  0.000000e+000  1.000000e+001
      vertex -1.414214e+001  2.000000e+001  1.414214e+001
      vertex -1.732051e+001  2.000000e+001  1.000000e+001
    endloop
  endfacet
  facet normal -9.238796e-001  0.000000e+000  3.826831e-001
    outer loop
      vertex -1.732051e+001  0.000000e+000  1.000000e+001
      vertex -1.732051e+001  2.000000e+001  1.000000e+001
      vertex -1.931852e+001  0.000000e+000  5.176381e+000
    endloop
  endfacet
  facet normal -9.238796e-001  0.000000e+000  3.826831e-001
    outer loop
      vertex -1.931852e+001  0.000000e+000  5.176381e+000
      vertex -1.732051e+001  2.000000e+001  1.000000e+001
      vertex -1.931852e+001  2.000000e+001  5.176381e+000
    endloop
  endfacet
  facet normal -9.914448e-001  0.000000e+000  1.305263e-001
    outer loop
      vertex -1.931852e+001  0.000000e+000  5.176381e+000
      vertex -1.931852e+001  2.000000e+001  5.176381e+000
      vertex -2.000000e+001  0.000000e+000 -3.673819e-015
    endloop
  endfacet
  facet normal -9.914448e-001  0.000000e+000  1.305263e-001
    outer loop
      vertex -2.000000e+001  0.000000e+000 -3.673819e-015
      vertex -1.931852e+001  2.000000e+001  5.176381e+000
      vertex -2.000000e+001  2.000000e+001 -3.673819e-015
    endloop
  endfacet
  facet normal -9.914448e-001  -0.000000e+000 -1.305263e-001
    outer loop
      vertex -2.000000e+001  0.000000e+000 -3.673819e-015
      vertex -2.000000e+001  2.000000e+001 -3.673819e-015
      vertex -1.931852e+001  0.000000e+000 -5.176381e+000
    endloop
  endfacet
  facet normal -9.914448e-001  0.000000e+000 -1.305263e-001
    outer loop
      vertex -1.931852e+001  0.000000e+000 -5.176381e+000
      vertex -2.000000e+001  2.000000e+001 -3.673819e-015
      vertex -1.931852e+001  2.000000e+001 -5.176381e+000
    endloop
  endfacet
  facet normal -9.238796e-001  -0.000000e+000 -3.826831e-001
    outer loop
      vertex -1.931852e+001  0.000000e+000 -5.176381e+000
      vertex -1.931852e+001  2.000000e+001 -5.176381e+000
      vertex -1.732051e+001  0.000000e+000 -1.000000e+001
    endloop
  endfacet
  facet normal -9.238796e-001  0.000000e+000 -3.826831e-001
    outer loop
      vertex -1.732051e+001  0.000000e+000 -1.000000e+001
      vertex -1.931852e+001  2.000000e+001 -5.176381e+000
      vertex -1.732051e+001  2.000000e+001 -1.000000e+001
    endloop
  endfacet
  facet normal -7.933532e-001  -0.000000e+000 -6.087615e-001
    outer loop
      vertex -1.732051e+001  0.000000e+000 -1.000000e+001
      vertex -1.732051e+001  2.000000e+001 -1.000000e+001
      vertex -1.414214e+001  0.000000e+000 -1.414214e+001
    endloop
  endfacet
  facet normal -7.933532e-001  0.000000e+000 -6.087615e-001
    outer loop
      vertex -1.414214e+001  0.000000e+000 -1.414214e+001
      vertex -1.732051e+001  2.000000e+001 -1.000000e+001
      vertex -1.414214e+001  2.000000e+001 -1.414214e+001
    endloop
  endfacet
  facet normal -6.087615e-001  -0.000000e+000 -7.933532e-001
    outer loop
      vertex -1.414214e+001  0.000000e+000 -1.414214e+001
      vertex -1.414214e+001  2.000000e+001 -1.414214e+001
      vertex -1.000000e+001  0.000000e+000 -1.732051e+001
    endloop
  endfacet
  facet normal -6.087615e-001  0.000000e+000 -7.933532e-001
    outer loop
      vertex -1.000000e+001  0.000000e+000 -1.732051e+001
      vertex -1.414214e+001  2.000000e+001 -1.414214e+001
      vertex -1.000000e+001  2.000000e+001 -1.732051e+001
    endloop
  endfacet
  facet normal -3.826831e-001  -0.000000e+000 -9.238796e-001
    outer loop
      vertex -1.000000e+001  0.000000e+000 -1.732051e+001
      vertex -1.000000e+001  2.000000e+001 -1.732051e+001
      vertex -5.176381e+000  0.000000e+000 -1.931852e+001
    endloop
  endfacet
  facet normal -3.826831e-001  0.000000e+000 -9.238796e-001
    outer loop
      vertex -5.176381e+000  0.000000e+000 -1.931852e+001
      vertex -1.000000e+001  2.000000e+001 -1.732051e+001
      vertex -5.176381e+000  2.000000e+001 -1.931852e+001
    endloop
  endfacet
  facet normal -1.305263e-001  -0.000000e+000 -9.914448e-001
    outer loop
      vertex -5.176381e+000  0.000000e+000 -1.931852e+001
      vertex -5.176381e+000  2.000000e+001 -1.931852e+001
      vertex  2.449213e-015  0.000000e+000 -2.000000e+001
    endloop
  endfacet
  facet normal -1.305263e-001  0.000000e+000 -9.914448e-001
    outer loop
      vertex  2.449213e-015  0.000000e+000 -2.000000e+001
      vertex -5.176381e+000  2.000000e+001 -1.931852e+001
      vertex  2.449213e-015  2.000000e+001 -2.000000e+001
    endloop
  endfacet
  facet normal  1.305263e-001  0.000000e+000 -9.914448e-001
    outer loop
      vertex  2.449213e-015  0.000000e+000 -2.000000e+001
      vertex  2.449213e-015  2.000000e+001 -2.000000e+001
      vertex  5.176381e+000  0.000000e+000 -1.931852e+001
    endloop
  endfacet
  facet normal  1.305263e-001  0.000000e+000 -9.914448e-001
    outer loop
      vertex  5.176381e+000  0.000000e+000 -1.931852e+001
      vertex  2.449213e-015  2.000000e+001 -2.000000e+001
      vertex  5.176381e+000  2.000000e+001 -1.931852e+001
    endloop
  endfacet
  facet normal  3.826831e-001  0.000000e+000 -9.238796e-001
    outer loop
      vertex  5.176381e+000  0.000000e+000 -1.931852e+001
      vertex  5.176381e+000  2.000000e+001 -1.931852e+001
      vertex  1.000000e+001  0.000000e+000 -1.732051e+001
    endloop
  endfacet
  facet normal  3.826831e-001  0.000000e+000 -9.238796e-001
    outer loop
      vertex  1.000000e+001  0.000000e+000 -1.732051e+001
      vertex  5.176381e+000  2.000000e+001 -1.931852e+001
      vertex  1.000000e+001  2.000000e+001 -1.732051e+001
    endloop
  endfacet
  facet normal  6.087615e-001  0.000000e+000 -7.933532e-001
    outer loop
      vertex  1.000000e+001  0.000000e+000 -1.732051e+001
      vertex  1.000000e+001  2.000000e+001 -1.732051e+001
      vertex  1.414214e+001  0.000000e+000 -1.414214e+001
    endloop
  endfacet
  facet normal  6.087615e-001  0.000000e+000 -7.933532e-001
    outer loop
      vertex  1.414214e+001  0.000000e+000 -1.414214e+001
      vertex  1.000000e+001  2.000000e+001 -1.732051e+001
      vertex  1.414214e+001  2.000000e+001 -1.414214e+001
    endloop
  endfacet
  facet normal  7.933532e-001  0.000000e+000 -6.087615e-001
    outer loop
      vertex  1.414214e+001  0.000000e+000 -1.414214e+001
      vertex  1.414214e+001  2.000000e+001 -1.414214e+001
      vertex  1.732051e+001  0.000000e+000 -1.000000e+001
    endloop
  endfacet
  facet normal  7.933532e-001  0.000000e+000 -6.087615e-001
    outer loop
      vertex  1.732051e+001  0.000000e+000 -1.000000e+001
      vertex  1.414214e+001  2.000000e+001 -1.414214e+001
      vertex  1.732051e+001  2.000000e+001 -1.000000e+001
    endloop
  endfacet
  facet normal  9.238796e-001  0.000000e+000 -3.826831e-001
    outer loop
      vertex  1.732051e+001  0.000000e+000 -1.000000e+001
      vertex  1.732051e+001  2.000000e+001 -1.000000e+001
      vertex  1.931852e+001  0.000000e+000 -5.176381e+000
    endloop
  endfacet
  facet normal  9.238796e-001  0.000000e+000 -3.826831e-001
    outer loop
      vertex  1.931852e+001  0.000000e+000 -5.176381e+000
      vertex  1.732051e+001  2.000000e+001 -1.000000e+001
      vertex  1.931852e+001  2.000000e+001 -5.176381e+000
    endloop
  endfacet
  facet normal  9.914448e-001  0.000000e+000 -1.305263e-001
    outer loop
      vertex  1.931852e+001  0.000000e+000 -5.176381e+000
      vertex  1.931852e+001  2.000000e+001 -5.176381e+000
      vertex  2.000000e+001  0.000000e+000  1.224606e-015
    endloop
  endfacet
  facet normal  9.914448e-001  0.000000e+000 -1.305263e-001
    outer loop
      vertex  2.000000e+001  0.000000e+000  1.224606e-015
      vertex  1.931852e+001  2.000000e+001 -5.176381e+000
      vertex  2.000000e+001  2.000000e+001  1.224606e-015
    endloop
  endfacet
  facet normal  9.914448e-001  0.000000e+000  1.305263e-001
    outer loop
      vertex  2.000000e+001  0.000000e+000  1.224606e-015
      vertex  2.000000e+001  2.000000e+001  1.224606e-015
      vertex  1.931852e+001  0.000000e+000  5.176381e+000
    endloop
  endfacet
  facet normal  9.914448e-001  -0.000000e+000  1.305263e-001
    outer loop
      vertex  1.931852e+001  0.000000e+000  5.176381e+000
      vertex  2.000000e+001  2.000000e+001  1.224606e-015
      vertex  1.931852e+001  2.000000e+001  5.176381e+000
    endloop
  endfacet
  facet normal  9.238796e-001  0.000000e+000  3.826831e-001
    outer loop
      vertex  1.931852e+001  0.000000e+000  5.176381e+000
      vertex  1.931852e+001  2.000000e+001  5.176381e+000
      vertex  1.732051e+001  0.000000e+000  1.000000e+001
    endloop
  endfacet
  facet normal  9.238796e-001  -0.000000e+000  3.826831e-001
    outer loop
      vertex  1.732051e+001  0.000000e+000  1.000000e+001
      vertex  1.931852e+001  2.000000e+001  5.176381e+000
      vertex  1.732051e+001  2.000000e+001  1.000000e+001
    endloop
  endfacet
  facet normal  7.933532e-001  0.000000e+000  6.087615e-001
    outer loop
      vertex  1.732051e+001  0.000000e+000  1.000000e+001
      vertex  1.732051e+001  2.000000e+001  1.000000e+001
      vertex  1.414214e+001  0.000000e+000  1.414214e+001
    endloop
  endfacet
  facet normal  7.933532e-001  -0.000000e+000  6.087615e-001
    outer loop
      vertex  1.414214e+001  0.000000e+000  1.414214e+001
      vertex  1.732051e+001  2.000000e+001  1.000000e+001
      vertex  1.414214e+001  2.000000e+001  1.414214e+001
    endloop
  endfacet
  facet normal  6.087615e-001  0.000000e+000  7.933532e-001
    outer loop
      vertex  1.414214e+001  0.000000e+000  1.414214e+001
      vertex  1.414214e+001  2.000000e+001  1.414214e+001
      vertex  1.000000e+001  0.000000e+000  1.732051e+001
    endloop
  endfacet
  facet normal  6.087615e-001  -0.000000e+000  7.933532e-001
    outer loop
      vertex  1.000000e+001  0.000000e+000  1.732051e+001
      vertex  1.414214e+001  2.000000e+001  1.414214e+001
      vertex  1.000000e+001  2.000000e+001  1.732051e+001
    endloop
  endfacet
  facet normal  3.826831e-001  0.000000e+000  9.238796e-001
    outer loop
      vertex  1.000000e+001  0.000000e+000  1.732051e+001
      vertex  1.000000e+001  2.000000e+001  1.732051e+001
      vertex  5.176381e+000  0.000000e+000  1.931852e+001
    endloop
  endfacet
  facet normal  3.826831e-001  -0.000000e+000  9.238796e-001
    outer loop
      vertex  5.176381e+000  0.000000e+000  1.931852e+001
      vertex  1.000000e+001  2.000000e+001  1.732051e+001
      vertex  5.176381e+000  2.000000e+001  1.931852e+001
    endloop
  endfacet
  facet normal  1.305263e-001  0.000000e+000  9.914448e-001
    outer loop
      vertex  5.176381e+000  0.000000e+000  1.931852e+001
      vertex  5.176381e+000  2.000000e+001  1.931852e+001
      vertex  0.000000e+000  0.000000e+000  2.000000e+001
    endloop
  endfacet
  facet normal  1.305263e-001  -0.000000e+000  9.914448e-001
    outer loop
      vertex  0.000000e+000  0.000000e+000  2.000000e+001
      vertex  5.176381e+000  2.000000e+001  1.931852e+001
      vertex  0.000000e+000  2.000000e+001  2.000000e+001
    endloop
  endfacet
endsolid CATIA STL
