solid CATIA STL
  facet normal  0.000000e+000  0.000000e+000 -1.000000e+000
    outer loop
      vertex -1.750000e+001 -1.750000e+001  0.000000e+000
      vertex -1.750000e+001  1.750000e+001  0.000000e+000
      vertex  1.750000e+001 -1.750000e+001  0.000000e+000
    endloop
  endfacet
  facet normal  0.000000e+000  0.000000e+000 -1.000000e+000
    outer loop
      vertex  1.750000e+001 -1.750000e+001  0.000000e+000
      vertex -1.750000e+001  1.750000e+001  0.000000e+000
      vertex  1.750000e+001  1.750000e+001  0.000000e+000
    endloop
  endfacet
  facet normal -1.119646e-001 -9.937122e-001  -0.000000e+000
    outer loop
      vertex  1.151859e+001  1.165339e+001  8.000000e+000
      vertex  9.221177e+000  1.191225e+001  1.000000e+001
      vertex  9.221177e+000  1.191225e+001  8.000000e+000
    endloop
  endfacet
  facet normal  5.320318e-001 -8.467243e-001  0.000000e+000
    outer loop
      vertex  9.221177e+000  1.191225e+001  8.000000e+000
      vertex  9.221177e+000  1.191225e+001  1.000000e+001
      vertex  7.263590e+000  1.068221e+001  1.000000e+001
    endloop
  endfacet
  facet normal  5.320318e-001 -8.467243e-001  0.000000e+000
    outer loop
      vertex  9.221177e+000  1.191225e+001  8.000000e+000
      vertex  7.263590e+000  1.068221e+001  1.000000e+001
      vertex  7.263590e+000  1.068221e+001  8.000000e+000
    endloop
  endfacet
  facet normal  9.438834e-001 -3.302791e-001  0.000000e+000
    outer loop
      vertex  7.263590e+000  1.068221e+001  8.000000e+000
      vertex  7.263590e+000  1.068221e+001  1.000000e+001
      vertex  6.500000e+000  8.500000e+000  1.000000e+001
    endloop
  endfacet
  facet normal  9.438834e-001 -3.302791e-001  0.000000e+000
    outer loop
      vertex  7.263590e+000  1.068221e+001  8.000000e+000
      vertex  6.500000e+000  8.500000e+000  1.000000e+001
      vertex  6.500000e+000  8.500000e+000  8.000000e+000
    endloop
  endfacet
  facet normal -1.119646e-001 -9.937122e-001  0.000000e+000
    outer loop
      vertex  9.221177e+000  1.191225e+001  1.000000e+001
      vertex  1.151859e+001  1.165339e+001  8.000000e+000
      vertex  1.151859e+001  1.165339e+001  1.000000e+001
    endloop
  endfacet
  facet normal -7.071068e-001 -7.071068e-001  -0.000000e+000
    outer loop
      vertex  1.151859e+001  1.165339e+001  1.000000e+001
      vertex  1.151859e+001  1.165339e+001  8.000000e+000
      vertex  1.315339e+001  1.001859e+001  8.000000e+000
    endloop
  endfacet
  facet normal -7.071068e-001 -7.071068e-001  0.000000e+000
    outer loop
      vertex  1.151859e+001  1.165339e+001  1.000000e+001
      vertex  1.315339e+001  1.001859e+001  8.000000e+000
      vertex  1.315339e+001  1.001859e+001  1.000000e+001
    endloop
  endfacet
  facet normal -9.937122e-001 -1.119645e-001  -0.000000e+000
    outer loop
      vertex  1.315339e+001  1.001859e+001  1.000000e+001
      vertex  1.315339e+001  1.001859e+001  8.000000e+000
      vertex  1.341225e+001  7.721177e+000  8.000000e+000
    endloop
  endfacet
  facet normal -9.937122e-001 -1.119645e-001  0.000000e+000
    outer loop
      vertex  1.315339e+001  1.001859e+001  1.000000e+001
      vertex  1.341225e+001  7.721177e+000  8.000000e+000
      vertex  1.341225e+001  7.721177e+000  1.000000e+001
    endloop
  endfacet
  facet normal -8.467243e-001  5.320320e-001  0.000000e+000
    outer loop
      vertex  1.341225e+001  7.721177e+000  1.000000e+001
      vertex  1.341225e+001  7.721177e+000  8.000000e+000
      vertex  1.218221e+001  5.763590e+000  8.000000e+000
    endloop
  endfacet
  facet normal -8.467243e-001  5.320320e-001  0.000000e+000
    outer loop
      vertex  1.341225e+001  7.721177e+000  1.000000e+001
      vertex  1.218221e+001  5.763590e+000  8.000000e+000
      vertex  1.218221e+001  5.763590e+000  1.000000e+001
    endloop
  endfacet
  facet normal -3.302791e-001  9.438834e-001  0.000000e+000
    outer loop
      vertex  1.218221e+001  5.763590e+000  1.000000e+001
      vertex  1.218221e+001  5.763590e+000  8.000000e+000
      vertex  1.000000e+001  5.000000e+000  8.000000e+000
    endloop
  endfacet
  facet normal -3.302791e-001  9.438834e-001  0.000000e+000
    outer loop
      vertex  1.218221e+001  5.763590e+000  1.000000e+001
      vertex  1.000000e+001  5.000000e+000  8.000000e+000
      vertex  1.000000e+001  5.000000e+000  1.000000e+001
    endloop
  endfacet
  facet normal -1.000000e+000  0.000000e+000  0.000000e+000
    outer loop
      vertex  1.000000e+001  5.000000e+000  8.000000e+000
      vertex  1.000000e+001 -5.000000e+000  8.000000e+000
      vertex  1.000000e+001  5.000000e+000  1.000000e+001
    endloop
  endfacet
  facet normal -1.000000e+000  -0.000000e+000  0.000000e+000
    outer loop
      vertex  1.000000e+001  5.000000e+000  1.000000e+001
      vertex  1.000000e+001 -5.000000e+000  8.000000e+000
      vertex  1.000000e+001 -5.000000e+000  1.000000e+001
    endloop
  endfacet
  facet normal  0.000000e+000 -1.000000e+000  0.000000e+000
    outer loop
      vertex -6.500000e+000  8.500000e+000  1.000000e+001
      vertex -6.500000e+000  8.500000e+000  8.000000e+000
      vertex  6.500000e+000  8.500000e+000  1.000000e+001
    endloop
  endfacet
  facet normal  0.000000e+000 -1.000000e+000  -0.000000e+000
    outer loop
      vertex  6.500000e+000  8.500000e+000  1.000000e+001
      vertex -6.500000e+000  8.500000e+000  8.000000e+000
      vertex  6.500000e+000  8.500000e+000  8.000000e+000
    endloop
  endfacet
  facet normal -9.937122e-001  1.119645e-001  0.000000e+000
    outer loop
      vertex  1.315339e+001 -1.001859e+001  8.000000e+000
      vertex  1.341225e+001 -7.721177e+000  1.000000e+001
      vertex  1.341225e+001 -7.721177e+000  8.000000e+000
    endloop
  endfacet
  facet normal -8.467243e-001 -5.320320e-001  0.000000e+000
    outer loop
      vertex  1.341225e+001 -7.721177e+000  8.000000e+000
      vertex  1.341225e+001 -7.721177e+000  1.000000e+001
      vertex  1.218221e+001 -5.763590e+000  1.000000e+001
    endloop
  endfacet
  facet normal -8.467243e-001 -5.320320e-001  -0.000000e+000
    outer loop
      vertex  1.341225e+001 -7.721177e+000  8.000000e+000
      vertex  1.218221e+001 -5.763590e+000  1.000000e+001
      vertex  1.218221e+001 -5.763590e+000  8.000000e+000
    endloop
  endfacet
  facet normal -3.302791e-001 -9.438834e-001  0.000000e+000
    outer loop
      vertex  1.218221e+001 -5.763590e+000  8.000000e+000
      vertex  1.218221e+001 -5.763590e+000  1.000000e+001
      vertex  1.000000e+001 -5.000000e+000  1.000000e+001
    endloop
  endfacet
  facet normal -3.302791e-001 -9.438834e-001  -0.000000e+000
    outer loop
      vertex  1.218221e+001 -5.763590e+000  8.000000e+000
      vertex  1.000000e+001 -5.000000e+000  1.000000e+001
      vertex  1.000000e+001 -5.000000e+000  8.000000e+000
    endloop
  endfacet
  facet normal -9.937122e-001  1.119645e-001  0.000000e+000
    outer loop
      vertex  1.341225e+001 -7.721177e+000  1.000000e+001
      vertex  1.315339e+001 -1.001859e+001  8.000000e+000
      vertex  1.315339e+001 -1.001859e+001  1.000000e+001
    endloop
  endfacet
  facet normal -7.071068e-001  7.071068e-001  0.000000e+000
    outer loop
      vertex  1.315339e+001 -1.001859e+001  1.000000e+001
      vertex  1.315339e+001 -1.001859e+001  8.000000e+000
      vertex  1.151859e+001 -1.165339e+001  8.000000e+000
    endloop
  endfacet
  facet normal -7.071068e-001  7.071068e-001  0.000000e+000
    outer loop
      vertex  1.315339e+001 -1.001859e+001  1.000000e+001
      vertex  1.151859e+001 -1.165339e+001  8.000000e+000
      vertex  1.151859e+001 -1.165339e+001  1.000000e+001
    endloop
  endfacet
  facet normal -1.119646e-001  9.937122e-001  0.000000e+000
    outer loop
      vertex  1.151859e+001 -1.165339e+001  1.000000e+001
      vertex  1.151859e+001 -1.165339e+001  8.000000e+000
      vertex  9.221177e+000 -1.191225e+001  8.000000e+000
    endloop
  endfacet
  facet normal -1.119646e-001  9.937122e-001  0.000000e+000
    outer loop
      vertex  1.151859e+001 -1.165339e+001  1.000000e+001
      vertex  9.221177e+000 -1.191225e+001  8.000000e+000
      vertex  9.221177e+000 -1.191225e+001  1.000000e+001
    endloop
  endfacet
  facet normal  5.320318e-001  8.467243e-001  0.000000e+000
    outer loop
      vertex  9.221177e+000 -1.191225e+001  1.000000e+001
      vertex  9.221177e+000 -1.191225e+001  8.000000e+000
      vertex  7.263590e+000 -1.068221e+001  8.000000e+000
    endloop
  endfacet
  facet normal  5.320318e-001  8.467243e-001  -0.000000e+000
    outer loop
      vertex  9.221177e+000 -1.191225e+001  1.000000e+001
      vertex  7.263590e+000 -1.068221e+001  8.000000e+000
      vertex  7.263590e+000 -1.068221e+001  1.000000e+001
    endloop
  endfacet
  facet normal  9.438834e-001  3.302791e-001  0.000000e+000
    outer loop
      vertex  7.263590e+000 -1.068221e+001  1.000000e+001
      vertex  7.263590e+000 -1.068221e+001  8.000000e+000
      vertex  6.500000e+000 -8.500000e+000  8.000000e+000
    endloop
  endfacet
  facet normal  9.438834e-001  3.302791e-001  -0.000000e+000
    outer loop
      vertex  7.263590e+000 -1.068221e+001  1.000000e+001
      vertex  6.500000e+000 -8.500000e+000  8.000000e+000
      vertex  6.500000e+000 -8.500000e+000  1.000000e+001
    endloop
  endfacet
  facet normal  9.937122e-001 -1.119645e-001  0.000000e+000
    outer loop
      vertex -1.315339e+001  1.001859e+001  8.000000e+000
      vertex -1.341225e+001  7.721177e+000  1.000000e+001
      vertex -1.341225e+001  7.721177e+000  8.000000e+000
    endloop
  endfacet
  facet normal  8.467243e-001  5.320320e-001  -0.000000e+000
    outer loop
      vertex -1.341225e+001  7.721177e+000  8.000000e+000
      vertex -1.341225e+001  7.721177e+000  1.000000e+001
      vertex -1.218221e+001  5.763590e+000  1.000000e+001
    endloop
  endfacet
  facet normal  8.467243e-001  5.320320e-001  0.000000e+000
    outer loop
      vertex -1.341225e+001  7.721177e+000  8.000000e+000
      vertex -1.218221e+001  5.763590e+000  1.000000e+001
      vertex -1.218221e+001  5.763590e+000  8.000000e+000
    endloop
  endfacet
  facet normal  3.302791e-001  9.438834e-001  -0.000000e+000
    outer loop
      vertex -1.218221e+001  5.763590e+000  8.000000e+000
      vertex -1.218221e+001  5.763590e+000  1.000000e+001
      vertex -1.000000e+001  5.000000e+000  1.000000e+001
    endloop
  endfacet
  facet normal  3.302791e-001  9.438834e-001  0.000000e+000
    outer loop
      vertex -1.218221e+001  5.763590e+000  8.000000e+000
      vertex -1.000000e+001  5.000000e+000  1.000000e+001
      vertex -1.000000e+001  5.000000e+000  8.000000e+000
    endloop
  endfacet
  facet normal  9.937122e-001 -1.119645e-001  0.000000e+000
    outer loop
      vertex -1.341225e+001  7.721177e+000  1.000000e+001
      vertex -1.315339e+001  1.001859e+001  8.000000e+000
      vertex -1.315339e+001  1.001859e+001  1.000000e+001
    endloop
  endfacet
  facet normal  7.071068e-001 -7.071068e-001  0.000000e+000
    outer loop
      vertex -1.315339e+001  1.001859e+001  1.000000e+001
      vertex -1.315339e+001  1.001859e+001  8.000000e+000
      vertex -1.151859e+001  1.165339e+001  8.000000e+000
    endloop
  endfacet
  facet normal  7.071068e-001 -7.071068e-001  0.000000e+000
    outer loop
      vertex -1.315339e+001  1.001859e+001  1.000000e+001
      vertex -1.151859e+001  1.165339e+001  8.000000e+000
      vertex -1.151859e+001  1.165339e+001  1.000000e+001
    endloop
  endfacet
  facet normal  1.119646e-001 -9.937122e-001  0.000000e+000
    outer loop
      vertex -1.151859e+001  1.165339e+001  1.000000e+001
      vertex -1.151859e+001  1.165339e+001  8.000000e+000
      vertex -9.221177e+000  1.191225e+001  8.000000e+000
    endloop
  endfacet
  facet normal  1.119646e-001 -9.937122e-001  0.000000e+000
    outer loop
      vertex -1.151859e+001  1.165339e+001  1.000000e+001
      vertex -9.221177e+000  1.191225e+001  8.000000e+000
      vertex -9.221177e+000  1.191225e+001  1.000000e+001
    endloop
  endfacet
  facet normal -5.320318e-001 -8.467243e-001  -0.000000e+000
    outer loop
      vertex -9.221177e+000  1.191225e+001  1.000000e+001
      vertex -9.221177e+000  1.191225e+001  8.000000e+000
      vertex -7.263590e+000  1.068221e+001  8.000000e+000
    endloop
  endfacet
  facet normal -5.320318e-001 -8.467243e-001  0.000000e+000
    outer loop
      vertex -9.221177e+000  1.191225e+001  1.000000e+001
      vertex -7.263590e+000  1.068221e+001  8.000000e+000
      vertex -7.263590e+000  1.068221e+001  1.000000e+001
    endloop
  endfacet
  facet normal -9.438834e-001 -3.302791e-001  -0.000000e+000
    outer loop
      vertex -7.263590e+000  1.068221e+001  1.000000e+001
      vertex -7.263590e+000  1.068221e+001  8.000000e+000
      vertex -6.500000e+000  8.500000e+000  8.000000e+000
    endloop
  endfacet
  facet normal -9.438834e-001 -3.302791e-001  0.000000e+000
    outer loop
      vertex -7.263590e+000  1.068221e+001  1.000000e+001
      vertex -6.500000e+000  8.500000e+000  8.000000e+000
      vertex -6.500000e+000  8.500000e+000  1.000000e+001
    endloop
  endfacet
  facet normal  0.000000e+000  1.000000e+000  -0.000000e+000
    outer loop
      vertex  6.500000e+000 -8.500000e+000  1.000000e+001
      vertex  6.500000e+000 -8.500000e+000  8.000000e+000
      vertex -6.500000e+000 -8.500000e+000  1.000000e+001
    endloop
  endfacet
  facet normal  0.000000e+000  1.000000e+000  0.000000e+000
    outer loop
      vertex -6.500000e+000 -8.500000e+000  1.000000e+001
      vertex  6.500000e+000 -8.500000e+000  8.000000e+000
      vertex -6.500000e+000 -8.500000e+000  8.000000e+000
    endloop
  endfacet
  facet normal  1.000000e+000  0.000000e+000  0.000000e+000
    outer loop
      vertex -1.000000e+001 -5.000000e+000  8.000000e+000
      vertex -1.000000e+001  5.000000e+000  8.000000e+000
      vertex -1.000000e+001 -5.000000e+000  1.000000e+001
    endloop
  endfacet
  facet normal  1.000000e+000  -0.000000e+000  0.000000e+000
    outer loop
      vertex -1.000000e+001 -5.000000e+000  1.000000e+001
      vertex -1.000000e+001  5.000000e+000  8.000000e+000
      vertex -1.000000e+001  5.000000e+000  1.000000e+001
    endloop
  endfacet
  facet normal  1.119646e-001  9.937122e-001  0.000000e+000
    outer loop
      vertex -1.151859e+001 -1.165339e+001  8.000000e+000
      vertex -9.221177e+000 -1.191225e+001  1.000000e+001
      vertex -9.221177e+000 -1.191225e+001  8.000000e+000
    endloop
  endfacet
  facet normal -5.320318e-001  8.467243e-001  0.000000e+000
    outer loop
      vertex -9.221177e+000 -1.191225e+001  8.000000e+000
      vertex -9.221177e+000 -1.191225e+001  1.000000e+001
      vertex -7.263590e+000 -1.068221e+001  1.000000e+001
    endloop
  endfacet
  facet normal -5.320318e-001  8.467243e-001  0.000000e+000
    outer loop
      vertex -9.221177e+000 -1.191225e+001  8.000000e+000
      vertex -7.263590e+000 -1.068221e+001  1.000000e+001
      vertex -7.263590e+000 -1.068221e+001  8.000000e+000
    endloop
  endfacet
  facet normal -9.438834e-001  3.302791e-001  0.000000e+000
    outer loop
      vertex -7.263590e+000 -1.068221e+001  8.000000e+000
      vertex -7.263590e+000 -1.068221e+001  1.000000e+001
      vertex -6.500000e+000 -8.500000e+000  1.000000e+001
    endloop
  endfacet
  facet normal -9.438834e-001  3.302791e-001  0.000000e+000
    outer loop
      vertex -7.263590e+000 -1.068221e+001  8.000000e+000
      vertex -6.500000e+000 -8.500000e+000  1.000000e+001
      vertex -6.500000e+000 -8.500000e+000  8.000000e+000
    endloop
  endfacet
  facet normal  1.119646e-001  9.937122e-001  -0.000000e+000
    outer loop
      vertex -9.221177e+000 -1.191225e+001  1.000000e+001
      vertex -1.151859e+001 -1.165339e+001  8.000000e+000
      vertex -1.151859e+001 -1.165339e+001  1.000000e+001
    endloop
  endfacet
  facet normal  7.071068e-001  7.071068e-001  0.000000e+000
    outer loop
      vertex -1.151859e+001 -1.165339e+001  1.000000e+001
      vertex -1.151859e+001 -1.165339e+001  8.000000e+000
      vertex -1.315339e+001 -1.001859e+001  8.000000e+000
    endloop
  endfacet
  facet normal  7.071068e-001  7.071068e-001  -0.000000e+000
    outer loop
      vertex -1.151859e+001 -1.165339e+001  1.000000e+001
      vertex -1.315339e+001 -1.001859e+001  8.000000e+000
      vertex -1.315339e+001 -1.001859e+001  1.000000e+001
    endloop
  endfacet
  facet normal  9.937122e-001  1.119645e-001  0.000000e+000
    outer loop
      vertex -1.315339e+001 -1.001859e+001  1.000000e+001
      vertex -1.315339e+001 -1.001859e+001  8.000000e+000
      vertex -1.341225e+001 -7.721177e+000  8.000000e+000
    endloop
  endfacet
  facet normal  9.937122e-001  1.119645e-001  -0.000000e+000
    outer loop
      vertex -1.315339e+001 -1.001859e+001  1.000000e+001
      vertex -1.341225e+001 -7.721177e+000  8.000000e+000
      vertex -1.341225e+001 -7.721177e+000  1.000000e+001
    endloop
  endfacet
  facet normal  8.467243e-001 -5.320320e-001  0.000000e+000
    outer loop
      vertex -1.341225e+001 -7.721177e+000  1.000000e+001
      vertex -1.341225e+001 -7.721177e+000  8.000000e+000
      vertex -1.218221e+001 -5.763590e+000  8.000000e+000
    endloop
  endfacet
  facet normal  8.467243e-001 -5.320320e-001  0.000000e+000
    outer loop
      vertex -1.341225e+001 -7.721177e+000  1.000000e+001
      vertex -1.218221e+001 -5.763590e+000  8.000000e+000
      vertex -1.218221e+001 -5.763590e+000  1.000000e+001
    endloop
  endfacet
  facet normal  3.302791e-001 -9.438834e-001  0.000000e+000
    outer loop
      vertex -1.218221e+001 -5.763590e+000  1.000000e+001
      vertex -1.218221e+001 -5.763590e+000  8.000000e+000
      vertex -1.000000e+001 -5.000000e+000  8.000000e+000
    endloop
  endfacet
  facet normal  3.302791e-001 -9.438834e-001  0.000000e+000
    outer loop
      vertex -1.218221e+001 -5.763590e+000  1.000000e+001
      vertex -1.000000e+001 -5.000000e+000  8.000000e+000
      vertex -1.000000e+001 -5.000000e+000  1.000000e+001
    endloop
  endfacet
  facet normal  0.000000e+000  -0.000000e+000  1.000000e+000
    outer loop
      vertex -6.500000e+000 -8.500000e+000  8.000000e+000
      vertex  6.500000e+000 -8.500000e+000  8.000000e+000
      vertex  1.341225e+001 -7.721177e+000  8.000000e+000
    endloop
  endfacet
  facet normal  0.000000e+000  0.000000e+000  1.000000e+000
    outer loop
      vertex -6.500000e+000 -8.500000e+000  8.000000e+000
      vertex  1.341225e+001 -7.721177e+000  8.000000e+000
      vertex -1.341225e+001 -7.721177e+000  8.000000e+000
    endloop
  endfacet
  facet normal  0.000000e+000  0.000000e+000  9.999999e-001
    outer loop
      vertex -6.500000e+000 -8.500000e+000  8.000000e+000
      vertex -1.341225e+001 -7.721177e+000  8.000000e+000
      vertex -1.315339e+001 -1.001859e+001  8.000000e+000
    endloop
  endfacet
  facet normal  -0.000000e+000  0.000000e+000  1.000000e+000
    outer loop
      vertex -6.500000e+000 -8.500000e+000  8.000000e+000
      vertex -1.315339e+001 -1.001859e+001  8.000000e+000
      vertex -7.263590e+000 -1.068221e+001  8.000000e+000
    endloop
  endfacet
  facet normal  0.000000e+000  0.000000e+000  1.000000e+000
    outer loop
      vertex  1.151859e+001  1.165339e+001  8.000000e+000
      vertex  9.221177e+000  1.191225e+001  8.000000e+000
      vertex  1.315339e+001  1.001859e+001  8.000000e+000
    endloop
  endfacet
  facet normal  0.000000e+000  0.000000e+000  1.000000e+000
    outer loop
      vertex  1.315339e+001  1.001859e+001  8.000000e+000
      vertex  9.221177e+000  1.191225e+001  8.000000e+000
      vertex  7.263590e+000  1.068221e+001  8.000000e+000
    endloop
  endfacet
  facet normal  0.000000e+000  0.000000e+000  9.999999e-001
    outer loop
      vertex  1.315339e+001  1.001859e+001  8.000000e+000
      vertex  7.263590e+000  1.068221e+001  8.000000e+000
      vertex  1.341225e+001  7.721177e+000  8.000000e+000
    endloop
  endfacet
  facet normal  0.000000e+000  0.000000e+000  9.999999e-001
    outer loop
      vertex  1.341225e+001  7.721177e+000  8.000000e+000
      vertex  7.263590e+000  1.068221e+001  8.000000e+000
      vertex  6.500000e+000  8.500000e+000  8.000000e+000
    endloop
  endfacet
  facet normal  0.000000e+000  0.000000e+000  1.000000e+000
    outer loop
      vertex  1.341225e+001  7.721177e+000  8.000000e+000
      vertex  6.500000e+000  8.500000e+000  8.000000e+000
      vertex -1.341225e+001  7.721177e+000  8.000000e+000
    endloop
  endfacet
  facet normal  0.000000e+000  0.000000e+000  1.000000e+000
    outer loop
      vertex -1.341225e+001  7.721177e+000  8.000000e+000
      vertex  6.500000e+000  8.500000e+000  8.000000e+000
      vertex -6.500000e+000  8.500000e+000  8.000000e+000
    endloop
  endfacet
  facet normal  0.000000e+000  0.000000e+000  9.999999e-001
    outer loop
      vertex -1.341225e+001  7.721177e+000  8.000000e+000
      vertex -6.500000e+000  8.500000e+000  8.000000e+000
      vertex -1.315339e+001  1.001859e+001  8.000000e+000
    endloop
  endfacet
  facet normal  -0.000000e+000  0.000000e+000  1.000000e+000
    outer loop
      vertex -1.315339e+001  1.001859e+001  8.000000e+000
      vertex -6.500000e+000  8.500000e+000  8.000000e+000
      vertex -7.263590e+000  1.068221e+001  8.000000e+000
    endloop
  endfacet
  facet normal  0.000000e+000  0.000000e+000  1.000000e+000
    outer loop
      vertex -1.315339e+001  1.001859e+001  8.000000e+000
      vertex -7.263590e+000  1.068221e+001  8.000000e+000
      vertex -1.151859e+001  1.165339e+001  8.000000e+000
    endloop
  endfacet
  facet normal  -0.000000e+000  0.000000e+000  1.000000e+000
    outer loop
      vertex -1.151859e+001  1.165339e+001  8.000000e+000
      vertex -7.263590e+000  1.068221e+001  8.000000e+000
      vertex -9.221177e+000  1.191225e+001  8.000000e+000
    endloop
  endfacet
  facet normal  -0.000000e+000  0.000000e+000  1.000000e+000
    outer loop
      vertex  1.341225e+001  7.721177e+000  8.000000e+000
      vertex -1.341225e+001  7.721177e+000  8.000000e+000
      vertex  1.218221e+001  5.763590e+000  8.000000e+000
    endloop
  endfacet
  facet normal  0.000000e+000  0.000000e+000  1.000000e+000
    outer loop
      vertex  1.218221e+001  5.763590e+000  8.000000e+000
      vertex -1.341225e+001  7.721177e+000  8.000000e+000
      vertex -1.218221e+001  5.763590e+000  8.000000e+000
    endloop
  endfacet
  facet normal  -0.000000e+000  0.000000e+000  1.000000e+000
    outer loop
      vertex  1.218221e+001  5.763590e+000  8.000000e+000
      vertex -1.218221e+001  5.763590e+000  8.000000e+000
      vertex  1.000000e+001  5.000000e+000  8.000000e+000
    endloop
  endfacet
  facet normal  0.000000e+000  0.000000e+000  1.000000e+000
    outer loop
      vertex  1.000000e+001  5.000000e+000  8.000000e+000
      vertex -1.218221e+001  5.763590e+000  8.000000e+000
      vertex -1.000000e+001  5.000000e+000  8.000000e+000
    endloop
  endfacet
  facet normal  -0.000000e+000  0.000000e+000  1.000000e+000
    outer loop
      vertex  1.000000e+001  5.000000e+000  8.000000e+000
      vertex -1.000000e+001  5.000000e+000  8.000000e+000
      vertex  1.000000e+001 -5.000000e+000  8.000000e+000
    endloop
  endfacet
  facet normal  0.000000e+000  0.000000e+000  1.000000e+000
    outer loop
      vertex  1.000000e+001 -5.000000e+000  8.000000e+000
      vertex -1.000000e+001  5.000000e+000  8.000000e+000
      vertex -1.000000e+001 -5.000000e+000  8.000000e+000
    endloop
  endfacet
  facet normal  -0.000000e+000  0.000000e+000  1.000000e+000
    outer loop
      vertex  1.000000e+001 -5.000000e+000  8.000000e+000
      vertex -1.000000e+001 -5.000000e+000  8.000000e+000
      vertex  1.218221e+001 -5.763590e+000  8.000000e+000
    endloop
  endfacet
  facet normal  0.000000e+000  0.000000e+000  1.000000e+000
    outer loop
      vertex  1.218221e+001 -5.763590e+000  8.000000e+000
      vertex -1.000000e+001 -5.000000e+000  8.000000e+000
      vertex -1.218221e+001 -5.763590e+000  8.000000e+000
    endloop
  endfacet
  facet normal  -0.000000e+000  0.000000e+000  1.000000e+000
    outer loop
      vertex  1.218221e+001 -5.763590e+000  8.000000e+000
      vertex -1.218221e+001 -5.763590e+000  8.000000e+000
      vertex  1.341225e+001 -7.721177e+000  8.000000e+000
    endloop
  endfacet
  facet normal  0.000000e+000  0.000000e+000  1.000000e+000
    outer loop
      vertex  1.341225e+001 -7.721177e+000  8.000000e+000
      vertex -1.218221e+001 -5.763590e+000  8.000000e+000
      vertex -1.341225e+001 -7.721177e+000  8.000000e+000
    endloop
  endfacet
  facet normal  0.000000e+000  0.000000e+000  1.000000e+000
    outer loop
      vertex -1.151859e+001 -1.165339e+001  8.000000e+000
      vertex -9.221177e+000 -1.191225e+001  8.000000e+000
      vertex -1.315339e+001 -1.001859e+001  8.000000e+000
    endloop
  endfacet
  facet normal  0.000000e+000  0.000000e+000  1.000000e+000
    outer loop
      vertex -1.315339e+001 -1.001859e+001  8.000000e+000
      vertex -9.221177e+000 -1.191225e+001  8.000000e+000
      vertex -7.263590e+000 -1.068221e+001  8.000000e+000
    endloop
  endfacet
  facet normal  -0.000000e+000  0.000000e+000  9.999999e-001
    outer loop
      vertex  1.341225e+001 -7.721177e+000  8.000000e+000
      vertex  6.500000e+000 -8.500000e+000  8.000000e+000
      vertex  1.315339e+001 -1.001859e+001  8.000000e+000
    endloop
  endfacet
  facet normal  0.000000e+000  0.000000e+000  1.000000e+000
    outer loop
      vertex  1.315339e+001 -1.001859e+001  8.000000e+000
      vertex  6.500000e+000 -8.500000e+000  8.000000e+000
      vertex  7.263590e+000 -1.068221e+001  8.000000e+000
    endloop
  endfacet
  facet normal  -0.000000e+000  0.000000e+000  1.000000e+000
    outer loop
      vertex  1.315339e+001 -1.001859e+001  8.000000e+000
      vertex  7.263590e+000 -1.068221e+001  8.000000e+000
      vertex  1.151859e+001 -1.165339e+001  8.000000e+000
    endloop
  endfacet
  facet normal  0.000000e+000  0.000000e+000  1.000000e+000
    outer loop
      vertex  1.151859e+001 -1.165339e+001  8.000000e+000
      vertex  7.263590e+000 -1.068221e+001  8.000000e+000
      vertex  9.221177e+000 -1.191225e+001  8.000000e+000
    endloop
  endfacet
  facet normal  0.000000e+000  0.000000e+000  1.000000e+000
    outer loop
      vertex -1.000000e+001  5.000000e+000  1.000000e+001
      vertex -1.218221e+001 -5.763590e+000  1.000000e+001
      vertex -1.000000e+001 -5.000000e+000  1.000000e+001
    endloop
  endfacet
  facet normal  0.000000e+000  0.000000e+000  1.000000e+000
    outer loop
      vertex -1.000000e+001  5.000000e+000  1.000000e+001
      vertex -1.341225e+001 -7.721177e+000  1.000000e+001
      vertex -1.218221e+001 -5.763590e+000  1.000000e+001
    endloop
  endfacet
  facet normal  -0.000000e+000  -0.000000e+000  1.000000e+000
    outer loop
      vertex  1.000000e+001  5.000000e+000  1.000000e+001
      vertex  1.218221e+001 -5.763590e+000  1.000000e+001
      vertex  1.341225e+001 -7.721177e+000  1.000000e+001
    endloop
  endfacet
  facet normal  -0.000000e+000  0.000000e+000  1.000000e+000
    outer loop
      vertex  1.000000e+001  5.000000e+000  1.000000e+001
      vertex  1.000000e+001 -5.000000e+000  1.000000e+001
      vertex  1.218221e+001 -5.763590e+000  1.000000e+001
    endloop
  endfacet
  facet normal  0.000000e+000  0.000000e+000  1.000000e+000
    outer loop
      vertex -6.500000e+000 -8.500000e+000  1.000000e+001
      vertex -7.263590e+000 -1.068221e+001  1.000000e+001
      vertex  6.500000e+000 -8.500000e+000  1.000000e+001
    endloop
  endfacet
  facet normal  0.000000e+000  0.000000e+000  1.000000e+000
    outer loop
      vertex  6.500000e+000  8.500000e+000  1.000000e+001
      vertex -7.263590e+000  1.068221e+001  1.000000e+001
      vertex -6.500000e+000  8.500000e+000  1.000000e+001
    endloop
  endfacet
  facet normal  -0.000000e+000  0.000000e+000  1.000000e+000
    outer loop
      vertex  1.750000e+001  1.750000e+001  1.000000e+001
      vertex  9.221177e+000  1.191225e+001  1.000000e+001
      vertex  1.151859e+001  1.165339e+001  1.000000e+001
    endloop
  endfacet
  facet normal  -0.000000e+000  0.000000e+000  9.999999e-001
    outer loop
      vertex  1.750000e+001  1.750000e+001  1.000000e+001
      vertex  1.151859e+001  1.165339e+001  1.000000e+001
      vertex  1.315339e+001  1.001859e+001  1.000000e+001
    endloop
  endfacet
  facet normal  -0.000000e+000  0.000000e+000  1.000000e+000
    outer loop
      vertex  1.750000e+001  1.750000e+001  1.000000e+001
      vertex  1.315339e+001  1.001859e+001  1.000000e+001
      vertex  1.750000e+001 -1.750000e+001  1.000000e+001
    endloop
  endfacet
  facet normal  0.000000e+000  0.000000e+000  9.999999e-001
    outer loop
      vertex -1.750000e+001 -1.750000e+001  1.000000e+001
      vertex  1.750000e+001 -1.750000e+001  1.000000e+001
      vertex  9.221177e+000 -1.191225e+001  1.000000e+001
    endloop
  endfacet
  facet normal  0.000000e+000  0.000000e+000  1.000000e+000
    outer loop
      vertex -1.750000e+001 -1.750000e+001  1.000000e+001
      vertex  9.221177e+000 -1.191225e+001  1.000000e+001
      vertex  7.263590e+000 -1.068221e+001  1.000000e+001
    endloop
  endfacet
  facet normal  0.000000e+000  0.000000e+000  1.000000e+000
    outer loop
      vertex -1.750000e+001 -1.750000e+001  1.000000e+001
      vertex  7.263590e+000 -1.068221e+001  1.000000e+001
      vertex  6.500000e+000 -8.500000e+000  1.000000e+001
    endloop
  endfacet
  facet normal  0.000000e+000  0.000000e+000  1.000000e+000
    outer loop
      vertex -1.750000e+001 -1.750000e+001  1.000000e+001
      vertex  6.500000e+000 -8.500000e+000  1.000000e+001
      vertex -7.263590e+000 -1.068221e+001  1.000000e+001
    endloop
  endfacet
  facet normal  0.000000e+000  0.000000e+000  9.999999e-001
    outer loop
      vertex -1.750000e+001 -1.750000e+001  1.000000e+001
      vertex -7.263590e+000 -1.068221e+001  1.000000e+001
      vertex -9.221177e+000 -1.191225e+001  1.000000e+001
    endloop
  endfacet
  facet normal  0.000000e+000  0.000000e+000  1.000000e+000
    outer loop
      vertex -1.750000e+001 -1.750000e+001  1.000000e+001
      vertex -9.221177e+000 -1.191225e+001  1.000000e+001
      vertex -1.151859e+001 -1.165339e+001  1.000000e+001
    endloop
  endfacet
  facet normal  0.000000e+000  0.000000e+000  9.999999e-001
    outer loop
      vertex -1.750000e+001 -1.750000e+001  1.000000e+001
      vertex -1.151859e+001 -1.165339e+001  1.000000e+001
      vertex -1.315339e+001 -1.001859e+001  1.000000e+001
    endloop
  endfacet
  facet normal  0.000000e+000  0.000000e+000  1.000000e+000
    outer loop
      vertex -1.750000e+001 -1.750000e+001  1.000000e+001
      vertex -1.315339e+001 -1.001859e+001  1.000000e+001
      vertex -1.341225e+001 -7.721177e+000  1.000000e+001
    endloop
  endfacet
  facet normal  0.000000e+000  -0.000000e+000  1.000000e+000
    outer loop
      vertex -1.750000e+001 -1.750000e+001  1.000000e+001
      vertex -1.341225e+001 -7.721177e+000  1.000000e+001
      vertex -1.000000e+001  5.000000e+000  1.000000e+001
    endloop
  endfacet
  facet normal  0.000000e+000  0.000000e+000  1.000000e+000
    outer loop
      vertex -1.750000e+001 -1.750000e+001  1.000000e+001
      vertex -1.000000e+001  5.000000e+000  1.000000e+001
      vertex -1.218221e+001  5.763590e+000  1.000000e+001
    endloop
  endfacet
  facet normal  0.000000e+000  0.000000e+000  1.000000e+000
    outer loop
      vertex -1.750000e+001 -1.750000e+001  1.000000e+001
      vertex -1.218221e+001  5.763590e+000  1.000000e+001
      vertex -1.341225e+001  7.721177e+000  1.000000e+001
    endloop
  endfacet
  facet normal  0.000000e+000  -0.000000e+000  1.000000e+000
    outer loop
      vertex -1.750000e+001 -1.750000e+001  1.000000e+001
      vertex -1.341225e+001  7.721177e+000  1.000000e+001
      vertex -1.315339e+001  1.001859e+001  1.000000e+001
    endloop
  endfacet
  facet normal  0.000000e+000  0.000000e+000  1.000000e+000
    outer loop
      vertex -1.750000e+001  1.750000e+001  1.000000e+001
      vertex -1.750000e+001 -1.750000e+001  1.000000e+001
      vertex -1.315339e+001  1.001859e+001  1.000000e+001
    endloop
  endfacet
  facet normal  0.000000e+000  -0.000000e+000  9.999999e-001
    outer loop
      vertex -1.750000e+001  1.750000e+001  1.000000e+001
      vertex -1.315339e+001  1.001859e+001  1.000000e+001
      vertex -1.151859e+001  1.165339e+001  1.000000e+001
    endloop
  endfacet
  facet normal  0.000000e+000  -0.000000e+000  1.000000e+000
    outer loop
      vertex -1.750000e+001  1.750000e+001  1.000000e+001
      vertex -1.151859e+001  1.165339e+001  1.000000e+001
      vertex -9.221177e+000  1.191225e+001  1.000000e+001
    endloop
  endfacet
  facet normal  -0.000000e+000  -0.000000e+000  9.999999e-001
    outer loop
      vertex -1.750000e+001  1.750000e+001  1.000000e+001
      vertex -9.221177e+000  1.191225e+001  1.000000e+001
      vertex -7.263590e+000  1.068221e+001  1.000000e+001
    endloop
  endfacet
  facet normal  -0.000000e+000  -0.000000e+000  1.000000e+000
    outer loop
      vertex -1.750000e+001  1.750000e+001  1.000000e+001
      vertex -7.263590e+000  1.068221e+001  1.000000e+001
      vertex  6.500000e+000  8.500000e+000  1.000000e+001
    endloop
  endfacet
  facet normal  0.000000e+000  -0.000000e+000  1.000000e+000
    outer loop
      vertex -1.750000e+001  1.750000e+001  1.000000e+001
      vertex  6.500000e+000  8.500000e+000  1.000000e+001
      vertex  7.263590e+000  1.068221e+001  1.000000e+001
    endloop
  endfacet
  facet normal  0.000000e+000  -0.000000e+000  1.000000e+000
    outer loop
      vertex -1.750000e+001  1.750000e+001  1.000000e+001
      vertex  7.263590e+000  1.068221e+001  1.000000e+001
      vertex  9.221177e+000  1.191225e+001  1.000000e+001
    endloop
  endfacet
  facet normal  0.000000e+000  -0.000000e+000  1.000000e+000
    outer loop
      vertex -1.750000e+001  1.750000e+001  1.000000e+001
      vertex  9.221177e+000  1.191225e+001  1.000000e+001
      vertex  1.750000e+001  1.750000e+001  1.000000e+001
    endloop
  endfacet
  facet normal  0.000000e+000  0.000000e+000  1.000000e+000
    outer loop
      vertex  1.750000e+001 -1.750000e+001  1.000000e+001
      vertex  1.315339e+001  1.001859e+001  1.000000e+001
      vertex  1.341225e+001  7.721177e+000  1.000000e+001
    endloop
  endfacet
  facet normal  0.000000e+000  0.000000e+000  1.000000e+000
    outer loop
      vertex  1.750000e+001 -1.750000e+001  1.000000e+001
      vertex  1.341225e+001  7.721177e+000  1.000000e+001
      vertex  1.218221e+001  5.763590e+000  1.000000e+001
    endloop
  endfacet
  facet normal  0.000000e+000  0.000000e+000  1.000000e+000
    outer loop
      vertex  1.750000e+001 -1.750000e+001  1.000000e+001
      vertex  1.218221e+001  5.763590e+000  1.000000e+001
      vertex  1.000000e+001  5.000000e+000  1.000000e+001
    endloop
  endfacet
  facet normal  0.000000e+000  0.000000e+000  1.000000e+000
    outer loop
      vertex  1.750000e+001 -1.750000e+001  1.000000e+001
      vertex  1.000000e+001  5.000000e+000  1.000000e+001
      vertex  1.341225e+001 -7.721177e+000  1.000000e+001
    endloop
  endfacet
  facet normal  0.000000e+000  0.000000e+000  1.000000e+000
    outer loop
      vertex  1.750000e+001 -1.750000e+001  1.000000e+001
      vertex  1.341225e+001 -7.721177e+000  1.000000e+001
      vertex  1.315339e+001 -1.001859e+001  1.000000e+001
    endloop
  endfacet
  facet normal  0.000000e+000  0.000000e+000  9.999999e-001
    outer loop
      vertex  1.750000e+001 -1.750000e+001  1.000000e+001
      vertex  1.315339e+001 -1.001859e+001  1.000000e+001
      vertex  1.151859e+001 -1.165339e+001  1.000000e+001
    endloop
  endfacet
  facet normal  0.000000e+000  0.000000e+000  1.000000e+000
    outer loop
      vertex  1.750000e+001 -1.750000e+001  1.000000e+001
      vertex  1.151859e+001 -1.165339e+001  1.000000e+001
      vertex  9.221177e+000 -1.191225e+001  1.000000e+001
    endloop
  endfacet
  facet normal  1.000000e+000  -0.000000e+000  0.000000e+000
    outer loop
      vertex  1.750000e+001  1.750000e+001  1.000000e+001
      vertex  1.750000e+001 -1.750000e+001  1.000000e+001
      vertex  1.750000e+001  1.750000e+001  0.000000e+000
    endloop
  endfacet
  facet normal  1.000000e+000  0.000000e+000  0.000000e+000
    outer loop
      vertex  1.750000e+001  1.750000e+001  0.000000e+000
      vertex  1.750000e+001 -1.750000e+001  1.000000e+001
      vertex  1.750000e+001 -1.750000e+001  0.000000e+000
    endloop
  endfacet
  facet normal  0.000000e+000 -1.000000e+000  0.000000e+000
    outer loop
      vertex  1.750000e+001 -1.750000e+001  1.000000e+001
      vertex -1.750000e+001 -1.750000e+001  1.000000e+001
      vertex  1.750000e+001 -1.750000e+001  0.000000e+000
    endloop
  endfacet
  facet normal  0.000000e+000 -1.000000e+000  0.000000e+000
    outer loop
      vertex  1.750000e+001 -1.750000e+001  0.000000e+000
      vertex -1.750000e+001 -1.750000e+001  1.000000e+001
      vertex -1.750000e+001 -1.750000e+001  0.000000e+000
    endloop
  endfacet
  facet normal -1.000000e+000  -0.000000e+000  0.000000e+000
    outer loop
      vertex -1.750000e+001 -1.750000e+001  1.000000e+001
      vertex -1.750000e+001  1.750000e+001  1.000000e+001
      vertex -1.750000e+001 -1.750000e+001  0.000000e+000
    endloop
  endfacet
  facet normal -1.000000e+000  0.000000e+000  0.000000e+000
    outer loop
      vertex -1.750000e+001 -1.750000e+001  0.000000e+000
      vertex -1.750000e+001  1.750000e+001  1.000000e+001
      vertex -1.750000e+001  1.750000e+001  0.000000e+000
    endloop
  endfacet
  facet normal  0.000000e+000  1.000000e+000  0.000000e+000
    outer loop
      vertex -1.750000e+001  1.750000e+001  1.000000e+001
      vertex  1.750000e+001  1.750000e+001  1.000000e+001
      vertex -1.750000e+001  1.750000e+001  0.000000e+000
    endloop
  endfacet
  facet normal  0.000000e+000  1.000000e+000  0.000000e+000
    outer loop
      vertex -1.750000e+001  1.750000e+001  0.000000e+000
      vertex  1.750000e+001  1.750000e+001  1.000000e+001
      vertex  1.750000e+001  1.750000e+001  0.000000e+000
    endloop
  endfacet
endsolid CATIA STL
