solid CATIA STL
  facet normal  0.000000e+000  1.000000e+000  0.000000e+000
    outer loop
      vertex  1.446386e+000  4.800000e+001 -6.337031e+000
      vertex -1.446386e+000  4.800000e+001 -6.337031e+000
      vertex  8.266093e-016  4.800000e+001 -4.500000e+000
    endloop
  endfacet
  facet normal  0.000000e+000  1.000000e+000  0.000000e+000
    outer loop
      vertex  8.266093e-016  4.800000e+001 -4.500000e+000
      vertex -1.446386e+000  4.800000e+001 -6.337031e+000
      vertex -4.052684e+000  4.800000e+001 -5.081904e+000
    endloop
  endfacet
  facet normal  0.000000e+000  9.999999e-001  0.000000e+000
    outer loop
      vertex  8.266093e-016  4.800000e+001 -4.500000e+000
      vertex -4.052684e+000  4.800000e+001 -5.081904e+000
      vertex -2.250000e+000  4.800000e+001 -3.897114e+000
    endloop
  endfacet
  facet normal  0.000000e+000  1.000000e+000  0.000000e+000
    outer loop
      vertex -4.052684e+000  4.800000e+001  5.081904e+000
      vertex -1.446386e+000  4.800000e+001  6.337031e+000
      vertex -2.755364e-016  4.800000e+001  4.500000e+000
    endloop
  endfacet
  facet normal  0.000000e+000  1.000000e+000  -0.000000e+000
    outer loop
      vertex -2.755364e-016  4.800000e+001  4.500000e+000
      vertex -1.446386e+000  4.800000e+001  6.337031e+000
      vertex  1.446386e+000  4.800000e+001  6.337031e+000
    endloop
  endfacet
  facet normal  0.000000e+000  1.000000e+000  0.000000e+000
    outer loop
      vertex -2.755364e-016  4.800000e+001  4.500000e+000
      vertex  1.446386e+000  4.800000e+001  6.337031e+000
      vertex  4.052684e+000  4.800000e+001  5.081904e+000
    endloop
  endfacet
  facet normal  0.000000e+000  1.000000e+000  0.000000e+000
    outer loop
      vertex  1.446386e+000  4.800000e+001 -6.337031e+000
      vertex  8.266093e-016  4.800000e+001 -4.500000e+000
      vertex  4.052684e+000  4.800000e+001 -5.081904e+000
    endloop
  endfacet
  facet normal  0.000000e+000  9.999999e-001  0.000000e+000
    outer loop
      vertex  4.052684e+000  4.800000e+001 -5.081904e+000
      vertex  8.266093e-016  4.800000e+001 -4.500000e+000
      vertex  2.250000e+000  4.800000e+001 -3.897114e+000
    endloop
  endfacet
  facet normal  -0.000000e+000  1.000000e+000  0.000000e+000
    outer loop
      vertex  4.052684e+000  4.800000e+001 -5.081904e+000
      vertex  2.250000e+000  4.800000e+001 -3.897114e+000
      vertex  5.856297e+000  4.800000e+001 -2.820244e+000
    endloop
  endfacet
  facet normal  0.000000e+000  1.000000e+000  0.000000e+000
    outer loop
      vertex  5.856297e+000  4.800000e+001 -2.820244e+000
      vertex  2.250000e+000  4.800000e+001 -3.897114e+000
      vertex  3.897114e+000  4.800000e+001 -2.250000e+000
    endloop
  endfacet
  facet normal  -0.000000e+000  1.000000e+000  0.000000e+000
    outer loop
      vertex  5.856297e+000  4.800000e+001 -2.820244e+000
      vertex  3.897114e+000  4.800000e+001 -2.250000e+000
      vertex  6.500000e+000  4.800000e+001 -2.090586e-015
    endloop
  endfacet
  facet normal  0.000000e+000  1.000000e+000  0.000000e+000
    outer loop
      vertex  6.500000e+000  4.800000e+001 -2.090586e-015
      vertex  3.897114e+000  4.800000e+001 -2.250000e+000
      vertex  4.500000e+000  4.800000e+001  5.510729e-016
    endloop
  endfacet
  facet normal  -0.000000e+000  1.000000e+000  0.000000e+000
    outer loop
      vertex  6.500000e+000  4.800000e+001 -2.090586e-015
      vertex  4.500000e+000  4.800000e+001  5.510729e-016
      vertex  5.856297e+000  4.800000e+001  2.820244e+000
    endloop
  endfacet
  facet normal  0.000000e+000  1.000000e+000  0.000000e+000
    outer loop
      vertex  5.856297e+000  4.800000e+001  2.820244e+000
      vertex  4.500000e+000  4.800000e+001  5.510729e-016
      vertex  3.897114e+000  4.800000e+001  2.250000e+000
    endloop
  endfacet
  facet normal  0.000000e+000  1.000000e+000  0.000000e+000
    outer loop
      vertex  5.856297e+000  4.800000e+001  2.820244e+000
      vertex  3.897114e+000  4.800000e+001  2.250000e+000
      vertex  4.052684e+000  4.800000e+001  5.081904e+000
    endloop
  endfacet
  facet normal  0.000000e+000  1.000000e+000  0.000000e+000
    outer loop
      vertex  4.052684e+000  4.800000e+001  5.081904e+000
      vertex  3.897114e+000  4.800000e+001  2.250000e+000
      vertex  2.250000e+000  4.800000e+001  3.897114e+000
    endloop
  endfacet
  facet normal  0.000000e+000  9.999999e-001  -0.000000e+000
    outer loop
      vertex  4.052684e+000  4.800000e+001  5.081904e+000
      vertex  2.250000e+000  4.800000e+001  3.897114e+000
      vertex -2.755364e-016  4.800000e+001  4.500000e+000
    endloop
  endfacet
  facet normal  0.000000e+000  1.000000e+000  0.000000e+000
    outer loop
      vertex -2.250000e+000  4.800000e+001 -3.897114e+000
      vertex -4.052684e+000  4.800000e+001 -5.081904e+000
      vertex -3.897114e+000  4.800000e+001 -2.250000e+000
    endloop
  endfacet
  facet normal  0.000000e+000  1.000000e+000  0.000000e+000
    outer loop
      vertex -3.897114e+000  4.800000e+001 -2.250000e+000
      vertex -4.052684e+000  4.800000e+001 -5.081904e+000
      vertex -5.856297e+000  4.800000e+001 -2.820244e+000
    endloop
  endfacet
  facet normal  0.000000e+000  1.000000e+000  0.000000e+000
    outer loop
      vertex -3.897114e+000  4.800000e+001 -2.250000e+000
      vertex -5.856297e+000  4.800000e+001 -2.820244e+000
      vertex -4.500000e+000  4.800000e+001  0.000000e+000
    endloop
  endfacet
  facet normal  0.000000e+000  1.000000e+000  0.000000e+000
    outer loop
      vertex -4.500000e+000  4.800000e+001  0.000000e+000
      vertex -5.856297e+000  4.800000e+001 -2.820244e+000
      vertex -6.500000e+000  4.800000e+001  0.000000e+000
    endloop
  endfacet
  facet normal  0.000000e+000  1.000000e+000  0.000000e+000
    outer loop
      vertex -4.500000e+000  4.800000e+001  0.000000e+000
      vertex -6.500000e+000  4.800000e+001  0.000000e+000
      vertex -3.897114e+000  4.800000e+001  2.250000e+000
    endloop
  endfacet
  facet normal  0.000000e+000  1.000000e+000  0.000000e+000
    outer loop
      vertex -3.897114e+000  4.800000e+001  2.250000e+000
      vertex -6.500000e+000  4.800000e+001  0.000000e+000
      vertex -5.856297e+000  4.800000e+001  2.820244e+000
    endloop
  endfacet
  facet normal  -0.000000e+000  1.000000e+000  0.000000e+000
    outer loop
      vertex -3.897114e+000  4.800000e+001  2.250000e+000
      vertex -5.856297e+000  4.800000e+001  2.820244e+000
      vertex -2.250000e+000  4.800000e+001  3.897114e+000
    endloop
  endfacet
  facet normal  0.000000e+000  1.000000e+000  0.000000e+000
    outer loop
      vertex -2.250000e+000  4.800000e+001  3.897114e+000
      vertex -5.856297e+000  4.800000e+001  2.820244e+000
      vertex -4.052684e+000  4.800000e+001  5.081904e+000
    endloop
  endfacet
  facet normal  0.000000e+000  9.999999e-001  0.000000e+000
    outer loop
      vertex -2.250000e+000  4.800000e+001  3.897114e+000
      vertex -4.052684e+000  4.800000e+001  5.081904e+000
      vertex -2.755364e-016  4.800000e+001  4.500000e+000
    endloop
  endfacet
  facet normal -9.659258e-001  -0.000000e+000 -2.588191e-001
    outer loop
      vertex -4.500000e+000  4.800000e+001  0.000000e+000
      vertex -4.500000e+000  6.800000e+001  0.000000e+000
      vertex -3.897114e+000  4.800000e+001 -2.250000e+000
    endloop
  endfacet
  facet normal -9.659258e-001  0.000000e+000 -2.588191e-001
    outer loop
      vertex -3.897114e+000  4.800000e+001 -2.250000e+000
      vertex -4.500000e+000  6.800000e+001  0.000000e+000
      vertex -3.897114e+000  6.800000e+001 -2.250000e+000
    endloop
  endfacet
  facet normal -7.071068e-001  -0.000000e+000 -7.071068e-001
    outer loop
      vertex -3.897114e+000  4.800000e+001 -2.250000e+000
      vertex -3.897114e+000  6.800000e+001 -2.250000e+000
      vertex -2.250000e+000  4.800000e+001 -3.897114e+000
    endloop
  endfacet
  facet normal -7.071068e-001  0.000000e+000 -7.071068e-001
    outer loop
      vertex -2.250000e+000  4.800000e+001 -3.897114e+000
      vertex -3.897114e+000  6.800000e+001 -2.250000e+000
      vertex -2.250000e+000  6.800000e+001 -3.897114e+000
    endloop
  endfacet
  facet normal -2.588191e-001  -0.000000e+000 -9.659258e-001
    outer loop
      vertex -2.250000e+000  4.800000e+001 -3.897114e+000
      vertex -2.250000e+000  6.800000e+001 -3.897114e+000
      vertex  8.266093e-016  4.800000e+001 -4.500000e+000
    endloop
  endfacet
  facet normal -2.588191e-001  0.000000e+000 -9.659258e-001
    outer loop
      vertex  8.266093e-016  4.800000e+001 -4.500000e+000
      vertex -2.250000e+000  6.800000e+001 -3.897114e+000
      vertex  8.266093e-016  6.800000e+001 -4.500000e+000
    endloop
  endfacet
  facet normal  2.588191e-001  0.000000e+000 -9.659258e-001
    outer loop
      vertex  8.266093e-016  4.800000e+001 -4.500000e+000
      vertex  8.266093e-016  6.800000e+001 -4.500000e+000
      vertex  2.250000e+000  4.800000e+001 -3.897114e+000
    endloop
  endfacet
  facet normal  2.588191e-001  0.000000e+000 -9.659258e-001
    outer loop
      vertex  2.250000e+000  4.800000e+001 -3.897114e+000
      vertex  8.266093e-016  6.800000e+001 -4.500000e+000
      vertex  2.250000e+000  6.800000e+001 -3.897114e+000
    endloop
  endfacet
  facet normal  7.071068e-001  0.000000e+000 -7.071068e-001
    outer loop
      vertex  2.250000e+000  4.800000e+001 -3.897114e+000
      vertex  2.250000e+000  6.800000e+001 -3.897114e+000
      vertex  3.897114e+000  4.800000e+001 -2.250000e+000
    endloop
  endfacet
  facet normal  7.071068e-001  0.000000e+000 -7.071068e-001
    outer loop
      vertex  3.897114e+000  4.800000e+001 -2.250000e+000
      vertex  2.250000e+000  6.800000e+001 -3.897114e+000
      vertex  3.897114e+000  6.800000e+001 -2.250000e+000
    endloop
  endfacet
  facet normal  9.659258e-001  0.000000e+000 -2.588191e-001
    outer loop
      vertex  3.897114e+000  4.800000e+001 -2.250000e+000
      vertex  3.897114e+000  6.800000e+001 -2.250000e+000
      vertex  4.500000e+000  4.800000e+001  5.510729e-016
    endloop
  endfacet
  facet normal  9.659258e-001  0.000000e+000 -2.588191e-001
    outer loop
      vertex  4.500000e+000  4.800000e+001  5.510729e-016
      vertex  3.897114e+000  6.800000e+001 -2.250000e+000
      vertex  4.500000e+000  6.800000e+001  5.510729e-016
    endloop
  endfacet
  facet normal  9.659258e-001  0.000000e+000  2.588191e-001
    outer loop
      vertex  4.500000e+000  4.800000e+001  5.510729e-016
      vertex  4.500000e+000  6.800000e+001  5.510729e-016
      vertex  3.897114e+000  4.800000e+001  2.250000e+000
    endloop
  endfacet
  facet normal  9.659258e-001  -0.000000e+000  2.588191e-001
    outer loop
      vertex  3.897114e+000  4.800000e+001  2.250000e+000
      vertex  4.500000e+000  6.800000e+001  5.510729e-016
      vertex  3.897114e+000  6.800000e+001  2.250000e+000
    endloop
  endfacet
  facet normal  7.071068e-001  0.000000e+000  7.071068e-001
    outer loop
      vertex  3.897114e+000  4.800000e+001  2.250000e+000
      vertex  3.897114e+000  6.800000e+001  2.250000e+000
      vertex  2.250000e+000  4.800000e+001  3.897114e+000
    endloop
  endfacet
  facet normal  7.071068e-001  -0.000000e+000  7.071068e-001
    outer loop
      vertex  2.250000e+000  4.800000e+001  3.897114e+000
      vertex  3.897114e+000  6.800000e+001  2.250000e+000
      vertex  2.250000e+000  6.800000e+001  3.897114e+000
    endloop
  endfacet
  facet normal  2.588191e-001  0.000000e+000  9.659258e-001
    outer loop
      vertex  2.250000e+000  4.800000e+001  3.897114e+000
      vertex  2.250000e+000  6.800000e+001  3.897114e+000
      vertex -2.755364e-016  4.800000e+001  4.500000e+000
    endloop
  endfacet
  facet normal  2.588191e-001  -0.000000e+000  9.659258e-001
    outer loop
      vertex -2.755364e-016  4.800000e+001  4.500000e+000
      vertex  2.250000e+000  6.800000e+001  3.897114e+000
      vertex -2.755364e-016  6.800000e+001  4.500000e+000
    endloop
  endfacet
  facet normal -2.588191e-001  0.000000e+000  9.659258e-001
    outer loop
      vertex -2.755364e-016  4.800000e+001  4.500000e+000
      vertex -2.755364e-016  6.800000e+001  4.500000e+000
      vertex -2.250000e+000  4.800000e+001  3.897114e+000
    endloop
  endfacet
  facet normal -2.588191e-001  0.000000e+000  9.659258e-001
    outer loop
      vertex -2.250000e+000  4.800000e+001  3.897114e+000
      vertex -2.755364e-016  6.800000e+001  4.500000e+000
      vertex -2.250000e+000  6.800000e+001  3.897114e+000
    endloop
  endfacet
  facet normal -7.071068e-001  0.000000e+000  7.071068e-001
    outer loop
      vertex -2.250000e+000  4.800000e+001  3.897114e+000
      vertex -2.250000e+000  6.800000e+001  3.897114e+000
      vertex -3.897114e+000  4.800000e+001  2.250000e+000
    endloop
  endfacet
  facet normal -7.071068e-001  0.000000e+000  7.071068e-001
    outer loop
      vertex -3.897114e+000  4.800000e+001  2.250000e+000
      vertex -2.250000e+000  6.800000e+001  3.897114e+000
      vertex -3.897114e+000  6.800000e+001  2.250000e+000
    endloop
  endfacet
  facet normal -9.659258e-001  0.000000e+000  2.588191e-001
    outer loop
      vertex -3.897114e+000  4.800000e+001  2.250000e+000
      vertex -3.897114e+000  6.800000e+001  2.250000e+000
      vertex -4.500000e+000  4.800000e+001  0.000000e+000
    endloop
  endfacet
  facet normal -9.659258e-001  0.000000e+000  2.588191e-001
    outer loop
      vertex -4.500000e+000  4.800000e+001  0.000000e+000
      vertex -3.897114e+000  6.800000e+001  2.250000e+000
      vertex -4.500000e+000  6.800000e+001  0.000000e+000
    endloop
  endfacet
  facet normal  0.000000e+000  1.000000e+000  0.000000e+000
    outer loop
      vertex  2.250000e+000  6.800000e+001  3.897114e+000
      vertex -2.250000e+000  6.800000e+001  3.897114e+000
      vertex -2.755364e-016  6.800000e+001  4.500000e+000
    endloop
  endfacet
  facet normal  0.000000e+000  1.000000e+000  0.000000e+000
    outer loop
      vertex -2.250000e+000  6.800000e+001  3.897114e+000
      vertex  2.250000e+000  6.800000e+001  3.897114e+000
      vertex -3.897114e+000  6.800000e+001  2.250000e+000
    endloop
  endfacet
  facet normal  0.000000e+000  1.000000e+000  0.000000e+000
    outer loop
      vertex -3.897114e+000  6.800000e+001  2.250000e+000
      vertex  2.250000e+000  6.800000e+001  3.897114e+000
      vertex  3.897114e+000  6.800000e+001  2.250000e+000
    endloop
  endfacet
  facet normal  0.000000e+000  1.000000e+000  0.000000e+000
    outer loop
      vertex -3.897114e+000  6.800000e+001  2.250000e+000
      vertex  3.897114e+000  6.800000e+001  2.250000e+000
      vertex -4.500000e+000  6.800000e+001  0.000000e+000
    endloop
  endfacet
  facet normal  0.000000e+000  1.000000e+000  0.000000e+000
    outer loop
      vertex -4.500000e+000  6.800000e+001  0.000000e+000
      vertex  3.897114e+000  6.800000e+001  2.250000e+000
      vertex  4.500000e+000  6.800000e+001  5.510729e-016
    endloop
  endfacet
  facet normal  0.000000e+000  1.000000e+000  0.000000e+000
    outer loop
      vertex -4.500000e+000  6.800000e+001  0.000000e+000
      vertex  4.500000e+000  6.800000e+001  5.510729e-016
      vertex -3.897114e+000  6.800000e+001 -2.250000e+000
    endloop
  endfacet
  facet normal  0.000000e+000  1.000000e+000  0.000000e+000
    outer loop
      vertex -3.897114e+000  6.800000e+001 -2.250000e+000
      vertex  4.500000e+000  6.800000e+001  5.510729e-016
      vertex  3.897114e+000  6.800000e+001 -2.250000e+000
    endloop
  endfacet
  facet normal  0.000000e+000  1.000000e+000  0.000000e+000
    outer loop
      vertex -3.897114e+000  6.800000e+001 -2.250000e+000
      vertex  3.897114e+000  6.800000e+001 -2.250000e+000
      vertex -2.250000e+000  6.800000e+001 -3.897114e+000
    endloop
  endfacet
  facet normal  0.000000e+000  1.000000e+000  0.000000e+000
    outer loop
      vertex -2.250000e+000  6.800000e+001 -3.897114e+000
      vertex  3.897114e+000  6.800000e+001 -2.250000e+000
      vertex  2.250000e+000  6.800000e+001 -3.897114e+000
    endloop
  endfacet
  facet normal  0.000000e+000  1.000000e+000  0.000000e+000
    outer loop
      vertex -2.250000e+000  6.800000e+001 -3.897114e+000
      vertex  2.250000e+000  6.800000e+001 -3.897114e+000
      vertex  8.266093e-016  6.800000e+001 -4.500000e+000
    endloop
  endfacet
  facet normal  0.000000e+000  1.000000e+000  0.000000e+000
    outer loop
      vertex  6.500000e+000  3.000000e+001  3.682574e-015
      vertex  5.656854e+000  3.000000e+001 -5.656854e+000
      vertex  5.856297e+000  3.000000e+001 -2.820244e+000
    endloop
  endfacet
  facet normal  -0.000000e+000  1.000000e+000  -0.000000e+000
    outer loop
      vertex  6.500000e+000  3.000000e+001  3.682574e-015
      vertex  5.856297e+000  3.000000e+001  2.820244e+000
      vertex  5.656854e+000  3.000000e+001  5.656854e+000
    endloop
  endfacet
  facet normal  0.000000e+000  1.000000e+000  0.000000e+000
    outer loop
      vertex -6.500000e+000  3.000000e+001  0.000000e+000
      vertex -5.856297e+000  3.000000e+001 -2.820244e+000
      vertex -5.656854e+000  3.000000e+001 -5.656854e+000
    endloop
  endfacet
  facet normal  0.000000e+000  1.000000e+000  0.000000e+000
    outer loop
      vertex -6.500000e+000  3.000000e+001  0.000000e+000
      vertex -5.656854e+000  3.000000e+001 -5.656854e+000
      vertex -7.391036e+000  3.000000e+001 -3.061467e+000
    endloop
  endfacet
  facet normal  0.000000e+000  1.000000e+000  -0.000000e+000
    outer loop
      vertex -6.500000e+000  3.000000e+001  0.000000e+000
      vertex -7.391036e+000  3.000000e+001 -3.061467e+000
      vertex -8.000000e+000  3.000000e+001 -1.469528e-015
    endloop
  endfacet
  facet normal  0.000000e+000  1.000000e+000  0.000000e+000
    outer loop
      vertex -6.500000e+000  3.000000e+001  0.000000e+000
      vertex -8.000000e+000  3.000000e+001 -1.469528e-015
      vertex -7.391036e+000  3.000000e+001  3.061467e+000
    endloop
  endfacet
  facet normal  -0.000000e+000  1.000000e+000  0.000000e+000
    outer loop
      vertex -6.500000e+000  3.000000e+001  0.000000e+000
      vertex -7.391036e+000  3.000000e+001  3.061467e+000
      vertex -5.656854e+000  3.000000e+001  5.656854e+000
    endloop
  endfacet
  facet normal  0.000000e+000  1.000000e+000  0.000000e+000
    outer loop
      vertex -6.500000e+000  3.000000e+001  0.000000e+000
      vertex -5.656854e+000  3.000000e+001  5.656854e+000
      vertex -5.856297e+000  3.000000e+001  2.820244e+000
    endloop
  endfacet
  facet normal  0.000000e+000  1.000000e+000  0.000000e+000
    outer loop
      vertex  7.391036e+000  3.000000e+001 -3.061467e+000
      vertex  5.656854e+000  3.000000e+001 -5.656854e+000
      vertex  8.000000e+000  3.000000e+001  4.898425e-016
    endloop
  endfacet
  facet normal  0.000000e+000  1.000000e+000  0.000000e+000
    outer loop
      vertex  8.000000e+000  3.000000e+001  4.898425e-016
      vertex  5.656854e+000  3.000000e+001 -5.656854e+000
      vertex  6.500000e+000  3.000000e+001  3.682574e-015
    endloop
  endfacet
  facet normal  -0.000000e+000  1.000000e+000  0.000000e+000
    outer loop
      vertex  8.000000e+000  3.000000e+001  4.898425e-016
      vertex  6.500000e+000  3.000000e+001  3.682574e-015
      vertex  7.391036e+000  3.000000e+001  3.061467e+000
    endloop
  endfacet
  facet normal  0.000000e+000  1.000000e+000  0.000000e+000
    outer loop
      vertex  7.391036e+000  3.000000e+001  3.061467e+000
      vertex  6.500000e+000  3.000000e+001  3.682574e-015
      vertex  5.656854e+000  3.000000e+001  5.656854e+000
    endloop
  endfacet
  facet normal  0.000000e+000  1.000000e+000  -0.000000e+000
    outer loop
      vertex  5.856297e+000  3.000000e+001 -2.820244e+000
      vertex  5.656854e+000  3.000000e+001 -5.656854e+000
      vertex  4.052684e+000  3.000000e+001 -5.081904e+000
    endloop
  endfacet
  facet normal  0.000000e+000  1.000000e+000  0.000000e+000
    outer loop
      vertex  4.052684e+000  3.000000e+001 -5.081904e+000
      vertex  5.656854e+000  3.000000e+001 -5.656854e+000
      vertex  3.061467e+000  3.000000e+001 -7.391036e+000
    endloop
  endfacet
  facet normal  0.000000e+000  1.000000e+000  -0.000000e+000
    outer loop
      vertex  4.052684e+000  3.000000e+001 -5.081904e+000
      vertex  3.061467e+000  3.000000e+001 -7.391036e+000
      vertex  1.446386e+000  3.000000e+001 -6.337031e+000
    endloop
  endfacet
  facet normal  0.000000e+000  1.000000e+000  0.000000e+000
    outer loop
      vertex  1.446386e+000  3.000000e+001 -6.337031e+000
      vertex  3.061467e+000  3.000000e+001 -7.391036e+000
      vertex  9.796851e-016  3.000000e+001 -8.000000e+000
    endloop
  endfacet
  facet normal  0.000000e+000  1.000000e+000  -0.000000e+000
    outer loop
      vertex  1.446386e+000  3.000000e+001 -6.337031e+000
      vertex  9.796851e-016  3.000000e+001 -8.000000e+000
      vertex -1.446386e+000  3.000000e+001 -6.337031e+000
    endloop
  endfacet
  facet normal  0.000000e+000  1.000000e+000  0.000000e+000
    outer loop
      vertex -1.446386e+000  3.000000e+001 -6.337031e+000
      vertex  9.796851e-016  3.000000e+001 -8.000000e+000
      vertex -3.061467e+000  3.000000e+001 -7.391036e+000
    endloop
  endfacet
  facet normal  0.000000e+000  1.000000e+000  -0.000000e+000
    outer loop
      vertex -1.446386e+000  3.000000e+001 -6.337031e+000
      vertex -3.061467e+000  3.000000e+001 -7.391036e+000
      vertex -4.052684e+000  3.000000e+001 -5.081904e+000
    endloop
  endfacet
  facet normal  0.000000e+000  1.000000e+000  0.000000e+000
    outer loop
      vertex -5.656854e+000  3.000000e+001 -5.656854e+000
      vertex -5.856297e+000  3.000000e+001 -2.820244e+000
      vertex -3.061467e+000  3.000000e+001 -7.391036e+000
    endloop
  endfacet
  facet normal  0.000000e+000  9.999999e-001  0.000000e+000
    outer loop
      vertex -3.061467e+000  3.000000e+001 -7.391036e+000
      vertex -5.856297e+000  3.000000e+001 -2.820244e+000
      vertex -4.052684e+000  3.000000e+001 -5.081904e+000
    endloop
  endfacet
  facet normal  0.000000e+000  1.000000e+000  0.000000e+000
    outer loop
      vertex  5.656854e+000  3.000000e+001  5.656854e+000
      vertex  5.856297e+000  3.000000e+001  2.820244e+000
      vertex  3.061467e+000  3.000000e+001  7.391036e+000
    endloop
  endfacet
  facet normal  0.000000e+000  9.999999e-001  0.000000e+000
    outer loop
      vertex  3.061467e+000  3.000000e+001  7.391036e+000
      vertex  5.856297e+000  3.000000e+001  2.820244e+000
      vertex  4.052684e+000  3.000000e+001  5.081904e+000
    endloop
  endfacet
  facet normal  0.000000e+000  9.999999e-001  0.000000e+000
    outer loop
      vertex  3.061467e+000  3.000000e+001  7.391036e+000
      vertex  4.052684e+000  3.000000e+001  5.081904e+000
      vertex  0.000000e+000  3.000000e+001  8.000000e+000
    endloop
  endfacet
  facet normal  0.000000e+000  1.000000e+000  0.000000e+000
    outer loop
      vertex  0.000000e+000  3.000000e+001  8.000000e+000
      vertex  4.052684e+000  3.000000e+001  5.081904e+000
      vertex  1.446386e+000  3.000000e+001  6.337031e+000
    endloop
  endfacet
  facet normal  0.000000e+000  1.000000e+000  0.000000e+000
    outer loop
      vertex  0.000000e+000  3.000000e+001  8.000000e+000
      vertex  1.446386e+000  3.000000e+001  6.337031e+000
      vertex -3.061467e+000  3.000000e+001  7.391036e+000
    endloop
  endfacet
  facet normal  0.000000e+000  1.000000e+000  0.000000e+000
    outer loop
      vertex -3.061467e+000  3.000000e+001  7.391036e+000
      vertex  1.446386e+000  3.000000e+001  6.337031e+000
      vertex -1.446386e+000  3.000000e+001  6.337031e+000
    endloop
  endfacet
  facet normal  0.000000e+000  1.000000e+000  0.000000e+000
    outer loop
      vertex -3.061467e+000  3.000000e+001  7.391036e+000
      vertex -1.446386e+000  3.000000e+001  6.337031e+000
      vertex -4.052684e+000  3.000000e+001  5.081904e+000
    endloop
  endfacet
  facet normal  0.000000e+000  9.999999e-001  0.000000e+000
    outer loop
      vertex -4.052684e+000  3.000000e+001  5.081904e+000
      vertex -5.856297e+000  3.000000e+001  2.820244e+000
      vertex -3.061467e+000  3.000000e+001  7.391036e+000
    endloop
  endfacet
  facet normal  0.000000e+000  1.000000e+000  0.000000e+000
    outer loop
      vertex -3.061467e+000  3.000000e+001  7.391036e+000
      vertex -5.856297e+000  3.000000e+001  2.820244e+000
      vertex -5.656854e+000  3.000000e+001  5.656854e+000
    endloop
  endfacet
  facet normal -9.749279e-001  -0.000000e+000 -2.225210e-001
    outer loop
      vertex -6.500000e+000  3.000000e+001  0.000000e+000
      vertex -6.500000e+000  4.800000e+001  0.000000e+000
      vertex -5.856297e+000  3.000000e+001 -2.820244e+000
    endloop
  endfacet
  facet normal -9.749279e-001  0.000000e+000 -2.225210e-001
    outer loop
      vertex -5.856297e+000  3.000000e+001 -2.820244e+000
      vertex -6.500000e+000  4.800000e+001  0.000000e+000
      vertex -5.856297e+000  4.800000e+001 -2.820244e+000
    endloop
  endfacet
  facet normal -7.818314e-001  -0.000000e+000 -6.234897e-001
    outer loop
      vertex -5.856297e+000  3.000000e+001 -2.820244e+000
      vertex -5.856297e+000  4.800000e+001 -2.820244e+000
      vertex -4.052684e+000  3.000000e+001 -5.081904e+000
    endloop
  endfacet
  facet normal -7.818314e-001  0.000000e+000 -6.234897e-001
    outer loop
      vertex -4.052684e+000  3.000000e+001 -5.081904e+000
      vertex -5.856297e+000  4.800000e+001 -2.820244e+000
      vertex -4.052684e+000  4.800000e+001 -5.081904e+000
    endloop
  endfacet
  facet normal -4.338838e-001  -0.000000e+000 -9.009689e-001
    outer loop
      vertex -4.052684e+000  3.000000e+001 -5.081904e+000
      vertex -4.052684e+000  4.800000e+001 -5.081904e+000
      vertex -1.446386e+000  3.000000e+001 -6.337031e+000
    endloop
  endfacet
  facet normal -4.338838e-001  0.000000e+000 -9.009689e-001
    outer loop
      vertex -1.446386e+000  3.000000e+001 -6.337031e+000
      vertex -4.052684e+000  4.800000e+001 -5.081904e+000
      vertex -1.446386e+000  4.800000e+001 -6.337031e+000
    endloop
  endfacet
  facet normal  0.000000e+000  0.000000e+000 -1.000000e+000
    outer loop
      vertex -1.446386e+000  3.000000e+001 -6.337031e+000
      vertex -1.446386e+000  4.800000e+001 -6.337031e+000
      vertex  1.446386e+000  3.000000e+001 -6.337031e+000
    endloop
  endfacet
  facet normal  0.000000e+000  0.000000e+000 -1.000000e+000
    outer loop
      vertex  1.446386e+000  3.000000e+001 -6.337031e+000
      vertex -1.446386e+000  4.800000e+001 -6.337031e+000
      vertex  1.446386e+000  4.800000e+001 -6.337031e+000
    endloop
  endfacet
  facet normal  4.338838e-001  0.000000e+000 -9.009689e-001
    outer loop
      vertex  1.446386e+000  3.000000e+001 -6.337031e+000
      vertex  1.446386e+000  4.800000e+001 -6.337031e+000
      vertex  4.052684e+000  3.000000e+001 -5.081904e+000
    endloop
  endfacet
  facet normal  4.338838e-001  0.000000e+000 -9.009689e-001
    outer loop
      vertex  4.052684e+000  3.000000e+001 -5.081904e+000
      vertex  1.446386e+000  4.800000e+001 -6.337031e+000
      vertex  4.052684e+000  4.800000e+001 -5.081904e+000
    endloop
  endfacet
  facet normal  7.818314e-001  0.000000e+000 -6.234897e-001
    outer loop
      vertex  4.052684e+000  3.000000e+001 -5.081904e+000
      vertex  4.052684e+000  4.800000e+001 -5.081904e+000
      vertex  5.856297e+000  3.000000e+001 -2.820244e+000
    endloop
  endfacet
  facet normal  7.818314e-001  0.000000e+000 -6.234897e-001
    outer loop
      vertex  5.856297e+000  3.000000e+001 -2.820244e+000
      vertex  4.052684e+000  4.800000e+001 -5.081904e+000
      vertex  5.856297e+000  4.800000e+001 -2.820244e+000
    endloop
  endfacet
  facet normal  9.749279e-001  0.000000e+000 -2.225210e-001
    outer loop
      vertex  5.856297e+000  3.000000e+001 -2.820244e+000
      vertex  5.856297e+000  4.800000e+001 -2.820244e+000
      vertex  6.500000e+000  3.000000e+001  3.682574e-015
    endloop
  endfacet
  facet normal  9.749279e-001 -7.136940e-017 -2.225210e-001
    outer loop
      vertex  6.500000e+000  3.000000e+001  3.682574e-015
      vertex  5.856297e+000  4.800000e+001 -2.820244e+000
      vertex  6.500000e+000  4.800000e+001 -2.090586e-015
    endloop
  endfacet
  facet normal  9.749279e-001  7.136940e-017  2.225210e-001
    outer loop
      vertex  6.500000e+000  3.000000e+001  3.682574e-015
      vertex  6.500000e+000  4.800000e+001 -2.090586e-015
      vertex  5.856297e+000  3.000000e+001  2.820244e+000
    endloop
  endfacet
  facet normal  9.749279e-001  -0.000000e+000  2.225210e-001
    outer loop
      vertex  5.856297e+000  3.000000e+001  2.820244e+000
      vertex  6.500000e+000  4.800000e+001 -2.090586e-015
      vertex  5.856297e+000  4.800000e+001  2.820244e+000
    endloop
  endfacet
  facet normal  7.818314e-001  0.000000e+000  6.234897e-001
    outer loop
      vertex  5.856297e+000  3.000000e+001  2.820244e+000
      vertex  5.856297e+000  4.800000e+001  2.820244e+000
      vertex  4.052684e+000  3.000000e+001  5.081904e+000
    endloop
  endfacet
  facet normal  7.818314e-001  -0.000000e+000  6.234897e-001
    outer loop
      vertex  4.052684e+000  3.000000e+001  5.081904e+000
      vertex  5.856297e+000  4.800000e+001  2.820244e+000
      vertex  4.052684e+000  4.800000e+001  5.081904e+000
    endloop
  endfacet
  facet normal  4.338838e-001  0.000000e+000  9.009689e-001
    outer loop
      vertex  4.052684e+000  3.000000e+001  5.081904e+000
      vertex  4.052684e+000  4.800000e+001  5.081904e+000
      vertex  1.446386e+000  3.000000e+001  6.337031e+000
    endloop
  endfacet
  facet normal  4.338838e-001  -0.000000e+000  9.009689e-001
    outer loop
      vertex  1.446386e+000  3.000000e+001  6.337031e+000
      vertex  4.052684e+000  4.800000e+001  5.081904e+000
      vertex  1.446386e+000  4.800000e+001  6.337031e+000
    endloop
  endfacet
  facet normal  0.000000e+000  0.000000e+000  1.000000e+000
    outer loop
      vertex  1.446386e+000  3.000000e+001  6.337031e+000
      vertex  1.446386e+000  4.800000e+001  6.337031e+000
      vertex -1.446386e+000  3.000000e+001  6.337031e+000
    endloop
  endfacet
  facet normal  0.000000e+000  0.000000e+000  1.000000e+000
    outer loop
      vertex -1.446386e+000  3.000000e+001  6.337031e+000
      vertex  1.446386e+000  4.800000e+001  6.337031e+000
      vertex -1.446386e+000  4.800000e+001  6.337031e+000
    endloop
  endfacet
  facet normal -4.338838e-001  0.000000e+000  9.009689e-001
    outer loop
      vertex -1.446386e+000  3.000000e+001  6.337031e+000
      vertex -1.446386e+000  4.800000e+001  6.337031e+000
      vertex -4.052684e+000  3.000000e+001  5.081904e+000
    endloop
  endfacet
  facet normal -4.338838e-001  0.000000e+000  9.009689e-001
    outer loop
      vertex -4.052684e+000  3.000000e+001  5.081904e+000
      vertex -1.446386e+000  4.800000e+001  6.337031e+000
      vertex -4.052684e+000  4.800000e+001  5.081904e+000
    endloop
  endfacet
  facet normal -7.818314e-001  0.000000e+000  6.234897e-001
    outer loop
      vertex -4.052684e+000  3.000000e+001  5.081904e+000
      vertex -4.052684e+000  4.800000e+001  5.081904e+000
      vertex -5.856297e+000  3.000000e+001  2.820244e+000
    endloop
  endfacet
  facet normal -7.818314e-001  0.000000e+000  6.234897e-001
    outer loop
      vertex -5.856297e+000  3.000000e+001  2.820244e+000
      vertex -4.052684e+000  4.800000e+001  5.081904e+000
      vertex -5.856297e+000  4.800000e+001  2.820244e+000
    endloop
  endfacet
  facet normal -9.749279e-001  0.000000e+000  2.225210e-001
    outer loop
      vertex -5.856297e+000  3.000000e+001  2.820244e+000
      vertex -5.856297e+000  4.800000e+001  2.820244e+000
      vertex -6.500000e+000  3.000000e+001  0.000000e+000
    endloop
  endfacet
  facet normal -9.749279e-001  0.000000e+000  2.225210e-001
    outer loop
      vertex -6.500000e+000  3.000000e+001  0.000000e+000
      vertex -5.856297e+000  4.800000e+001  2.820244e+000
      vertex -6.500000e+000  4.800000e+001  0.000000e+000
    endloop
  endfacet
  facet normal  0.000000e+000 -1.000000e+000  0.000000e+000
    outer loop
      vertex  8.000000e+000  0.000000e+000  4.898425e-016
      vertex  7.391036e+000  0.000000e+000  3.061467e+000
      vertex  7.391036e+000  0.000000e+000 -3.061467e+000
    endloop
  endfacet
  facet normal  0.000000e+000 -1.000000e+000  0.000000e+000
    outer loop
      vertex -8.000000e+000  0.000000e+000 -1.469528e-015
      vertex -7.391036e+000  0.000000e+000 -3.061467e+000
      vertex -7.391036e+000  0.000000e+000  3.061467e+000
    endloop
  endfacet
  facet normal  0.000000e+000 -1.000000e+000  0.000000e+000
    outer loop
      vertex -7.391036e+000  0.000000e+000  3.061467e+000
      vertex -7.391036e+000  0.000000e+000 -3.061467e+000
      vertex -5.656854e+000  0.000000e+000 -5.656854e+000
    endloop
  endfacet
  facet normal  0.000000e+000 -1.000000e+000  0.000000e+000
    outer loop
      vertex -7.391036e+000  0.000000e+000  3.061467e+000
      vertex -5.656854e+000  0.000000e+000 -5.656854e+000
      vertex -5.656854e+000  0.000000e+000  5.656854e+000
    endloop
  endfacet
  facet normal  0.000000e+000 -1.000000e+000  0.000000e+000
    outer loop
      vertex -5.656854e+000  0.000000e+000  5.656854e+000
      vertex -5.656854e+000  0.000000e+000 -5.656854e+000
      vertex -3.061467e+000  0.000000e+000 -7.391036e+000
    endloop
  endfacet
  facet normal  0.000000e+000 -1.000000e+000  0.000000e+000
    outer loop
      vertex -5.656854e+000  0.000000e+000  5.656854e+000
      vertex -3.061467e+000  0.000000e+000 -7.391036e+000
      vertex -3.061467e+000  0.000000e+000  7.391036e+000
    endloop
  endfacet
  facet normal  0.000000e+000 -9.999999e-001  0.000000e+000
    outer loop
      vertex -3.061467e+000  0.000000e+000  7.391036e+000
      vertex -3.061467e+000  0.000000e+000 -7.391036e+000
      vertex  9.796851e-016  0.000000e+000 -8.000000e+000
    endloop
  endfacet
  facet normal  0.000000e+000 -1.000000e+000  0.000000e+000
    outer loop
      vertex -3.061467e+000  0.000000e+000  7.391036e+000
      vertex  9.796851e-016  0.000000e+000 -8.000000e+000
      vertex  0.000000e+000  0.000000e+000  8.000000e+000
    endloop
  endfacet
  facet normal  0.000000e+000 -1.000000e+000  0.000000e+000
    outer loop
      vertex  0.000000e+000  0.000000e+000  8.000000e+000
      vertex  9.796851e-016  0.000000e+000 -8.000000e+000
      vertex  3.061467e+000  0.000000e+000 -7.391036e+000
    endloop
  endfacet
  facet normal  0.000000e+000 -9.999999e-001  0.000000e+000
    outer loop
      vertex  0.000000e+000  0.000000e+000  8.000000e+000
      vertex  3.061467e+000  0.000000e+000 -7.391036e+000
      vertex  3.061467e+000  0.000000e+000  7.391036e+000
    endloop
  endfacet
  facet normal  0.000000e+000 -1.000000e+000  0.000000e+000
    outer loop
      vertex  3.061467e+000  0.000000e+000  7.391036e+000
      vertex  3.061467e+000  0.000000e+000 -7.391036e+000
      vertex  5.656854e+000  0.000000e+000 -5.656854e+000
    endloop
  endfacet
  facet normal  0.000000e+000 -1.000000e+000  0.000000e+000
    outer loop
      vertex  3.061467e+000  0.000000e+000  7.391036e+000
      vertex  5.656854e+000  0.000000e+000 -5.656854e+000
      vertex  5.656854e+000  0.000000e+000  5.656854e+000
    endloop
  endfacet
  facet normal  0.000000e+000 -1.000000e+000  0.000000e+000
    outer loop
      vertex  5.656854e+000  0.000000e+000  5.656854e+000
      vertex  5.656854e+000  0.000000e+000 -5.656854e+000
      vertex  7.391036e+000  0.000000e+000 -3.061467e+000
    endloop
  endfacet
  facet normal  0.000000e+000 -1.000000e+000  0.000000e+000
    outer loop
      vertex  5.656854e+000  0.000000e+000  5.656854e+000
      vertex  7.391036e+000  0.000000e+000 -3.061467e+000
      vertex  7.391036e+000  0.000000e+000  3.061467e+000
    endloop
  endfacet
  facet normal -1.950904e-001  0.000000e+000  9.807853e-001
    outer loop
      vertex  0.000000e+000  0.000000e+000  8.000000e+000
      vertex  0.000000e+000  3.000000e+001  8.000000e+000
      vertex -3.061467e+000  0.000000e+000  7.391036e+000
    endloop
  endfacet
  facet normal -1.950904e-001  0.000000e+000  9.807853e-001
    outer loop
      vertex -3.061467e+000  0.000000e+000  7.391036e+000
      vertex  0.000000e+000  3.000000e+001  8.000000e+000
      vertex -3.061467e+000  3.000000e+001  7.391036e+000
    endloop
  endfacet
  facet normal -5.555702e-001  0.000000e+000  8.314697e-001
    outer loop
      vertex -3.061467e+000  0.000000e+000  7.391036e+000
      vertex -3.061467e+000  3.000000e+001  7.391036e+000
      vertex -5.656854e+000  0.000000e+000  5.656854e+000
    endloop
  endfacet
  facet normal -5.555702e-001  0.000000e+000  8.314697e-001
    outer loop
      vertex -5.656854e+000  0.000000e+000  5.656854e+000
      vertex -3.061467e+000  3.000000e+001  7.391036e+000
      vertex -5.656854e+000  3.000000e+001  5.656854e+000
    endloop
  endfacet
  facet normal -8.314697e-001  0.000000e+000  5.555702e-001
    outer loop
      vertex -5.656854e+000  0.000000e+000  5.656854e+000
      vertex -5.656854e+000  3.000000e+001  5.656854e+000
      vertex -7.391036e+000  0.000000e+000  3.061467e+000
    endloop
  endfacet
  facet normal -8.314697e-001  0.000000e+000  5.555702e-001
    outer loop
      vertex -7.391036e+000  0.000000e+000  3.061467e+000
      vertex -5.656854e+000  3.000000e+001  5.656854e+000
      vertex -7.391036e+000  3.000000e+001  3.061467e+000
    endloop
  endfacet
  facet normal -9.807853e-001  0.000000e+000  1.950904e-001
    outer loop
      vertex -7.391036e+000  0.000000e+000  3.061467e+000
      vertex -7.391036e+000  3.000000e+001  3.061467e+000
      vertex -8.000000e+000  0.000000e+000 -1.469528e-015
    endloop
  endfacet
  facet normal -9.807853e-001  0.000000e+000  1.950904e-001
    outer loop
      vertex -8.000000e+000  0.000000e+000 -1.469528e-015
      vertex -7.391036e+000  3.000000e+001  3.061467e+000
      vertex -8.000000e+000  3.000000e+001 -1.469528e-015
    endloop
  endfacet
  facet normal -9.807853e-001  -0.000000e+000 -1.950904e-001
    outer loop
      vertex -8.000000e+000  0.000000e+000 -1.469528e-015
      vertex -8.000000e+000  3.000000e+001 -1.469528e-015
      vertex -7.391036e+000  0.000000e+000 -3.061467e+000
    endloop
  endfacet
  facet normal -9.807853e-001  0.000000e+000 -1.950904e-001
    outer loop
      vertex -7.391036e+000  0.000000e+000 -3.061467e+000
      vertex -8.000000e+000  3.000000e+001 -1.469528e-015
      vertex -7.391036e+000  3.000000e+001 -3.061467e+000
    endloop
  endfacet
  facet normal -8.314697e-001  -0.000000e+000 -5.555702e-001
    outer loop
      vertex -7.391036e+000  0.000000e+000 -3.061467e+000
      vertex -7.391036e+000  3.000000e+001 -3.061467e+000
      vertex -5.656854e+000  0.000000e+000 -5.656854e+000
    endloop
  endfacet
  facet normal -8.314697e-001  0.000000e+000 -5.555702e-001
    outer loop
      vertex -5.656854e+000  0.000000e+000 -5.656854e+000
      vertex -7.391036e+000  3.000000e+001 -3.061467e+000
      vertex -5.656854e+000  3.000000e+001 -5.656854e+000
    endloop
  endfacet
  facet normal -5.555702e-001  -0.000000e+000 -8.314697e-001
    outer loop
      vertex -5.656854e+000  0.000000e+000 -5.656854e+000
      vertex -5.656854e+000  3.000000e+001 -5.656854e+000
      vertex -3.061467e+000  0.000000e+000 -7.391036e+000
    endloop
  endfacet
  facet normal -5.555702e-001  0.000000e+000 -8.314697e-001
    outer loop
      vertex -3.061467e+000  0.000000e+000 -7.391036e+000
      vertex -5.656854e+000  3.000000e+001 -5.656854e+000
      vertex -3.061467e+000  3.000000e+001 -7.391036e+000
    endloop
  endfacet
  facet normal -1.950904e-001  -0.000000e+000 -9.807853e-001
    outer loop
      vertex -3.061467e+000  0.000000e+000 -7.391036e+000
      vertex -3.061467e+000  3.000000e+001 -7.391036e+000
      vertex  9.796851e-016  0.000000e+000 -8.000000e+000
    endloop
  endfacet
  facet normal -1.950904e-001  0.000000e+000 -9.807853e-001
    outer loop
      vertex  9.796851e-016  0.000000e+000 -8.000000e+000
      vertex -3.061467e+000  3.000000e+001 -7.391036e+000
      vertex  9.796851e-016  3.000000e+001 -8.000000e+000
    endloop
  endfacet
  facet normal  1.950904e-001  0.000000e+000 -9.807853e-001
    outer loop
      vertex  9.796851e-016  0.000000e+000 -8.000000e+000
      vertex  9.796851e-016  3.000000e+001 -8.000000e+000
      vertex  3.061467e+000  0.000000e+000 -7.391036e+000
    endloop
  endfacet
  facet normal  1.950904e-001  0.000000e+000 -9.807853e-001
    outer loop
      vertex  3.061467e+000  0.000000e+000 -7.391036e+000
      vertex  9.796851e-016  3.000000e+001 -8.000000e+000
      vertex  3.061467e+000  3.000000e+001 -7.391036e+000
    endloop
  endfacet
  facet normal  5.555702e-001  0.000000e+000 -8.314697e-001
    outer loop
      vertex  3.061467e+000  0.000000e+000 -7.391036e+000
      vertex  3.061467e+000  3.000000e+001 -7.391036e+000
      vertex  5.656854e+000  0.000000e+000 -5.656854e+000
    endloop
  endfacet
  facet normal  5.555702e-001  0.000000e+000 -8.314697e-001
    outer loop
      vertex  5.656854e+000  0.000000e+000 -5.656854e+000
      vertex  3.061467e+000  3.000000e+001 -7.391036e+000
      vertex  5.656854e+000  3.000000e+001 -5.656854e+000
    endloop
  endfacet
  facet normal  8.314697e-001  0.000000e+000 -5.555702e-001
    outer loop
      vertex  5.656854e+000  0.000000e+000 -5.656854e+000
      vertex  5.656854e+000  3.000000e+001 -5.656854e+000
      vertex  7.391036e+000  0.000000e+000 -3.061467e+000
    endloop
  endfacet
  facet normal  8.314697e-001  0.000000e+000 -5.555702e-001
    outer loop
      vertex  7.391036e+000  0.000000e+000 -3.061467e+000
      vertex  5.656854e+000  3.000000e+001 -5.656854e+000
      vertex  7.391036e+000  3.000000e+001 -3.061467e+000
    endloop
  endfacet
  facet normal  9.807853e-001  0.000000e+000 -1.950904e-001
    outer loop
      vertex  7.391036e+000  0.000000e+000 -3.061467e+000
      vertex  7.391036e+000  3.000000e+001 -3.061467e+000
      vertex  8.000000e+000  0.000000e+000  4.898425e-016
    endloop
  endfacet
  facet normal  9.807853e-001  0.000000e+000 -1.950904e-001
    outer loop
      vertex  8.000000e+000  0.000000e+000  4.898425e-016
      vertex  7.391036e+000  3.000000e+001 -3.061467e+000
      vertex  8.000000e+000  3.000000e+001  4.898425e-016
    endloop
  endfacet
  facet normal  9.807853e-001  0.000000e+000  1.950904e-001
    outer loop
      vertex  8.000000e+000  0.000000e+000  4.898425e-016
      vertex  8.000000e+000  3.000000e+001  4.898425e-016
      vertex  7.391036e+000  0.000000e+000  3.061467e+000
    endloop
  endfacet
  facet normal  9.807853e-001  -0.000000e+000  1.950904e-001
    outer loop
      vertex  7.391036e+000  0.000000e+000  3.061467e+000
      vertex  8.000000e+000  3.000000e+001  4.898425e-016
      vertex  7.391036e+000  3.000000e+001  3.061467e+000
    endloop
  endfacet
  facet normal  8.314697e-001  0.000000e+000  5.555702e-001
    outer loop
      vertex  7.391036e+000  0.000000e+000  3.061467e+000
      vertex  7.391036e+000  3.000000e+001  3.061467e+000
      vertex  5.656854e+000  0.000000e+000  5.656854e+000
    endloop
  endfacet
  facet normal  8.314697e-001  -0.000000e+000  5.555702e-001
    outer loop
      vertex  5.656854e+000  0.000000e+000  5.656854e+000
      vertex  7.391036e+000  3.000000e+001  3.061467e+000
      vertex  5.656854e+000  3.000000e+001  5.656854e+000
    endloop
  endfacet
  facet normal  5.555702e-001  0.000000e+000  8.314697e-001
    outer loop
      vertex  5.656854e+000  0.000000e+000  5.656854e+000
      vertex  5.656854e+000  3.000000e+001  5.656854e+000
      vertex  3.061467e+000  0.000000e+000  7.391036e+000
    endloop
  endfacet
  facet normal  5.555702e-001  -0.000000e+000  8.314697e-001
    outer loop
      vertex  3.061467e+000  0.000000e+000  7.391036e+000
      vertex  5.656854e+000  3.000000e+001  5.656854e+000
      vertex  3.061467e+000  3.000000e+001  7.391036e+000
    endloop
  endfacet
  facet normal  1.950904e-001  0.000000e+000  9.807853e-001
    outer loop
      vertex  3.061467e+000  0.000000e+000  7.391036e+000
      vertex  3.061467e+000  3.000000e+001  7.391036e+000
      vertex  0.000000e+000  0.000000e+000  8.000000e+000
    endloop
  endfacet
  facet normal  1.950904e-001  -0.000000e+000  9.807853e-001
    outer loop
      vertex  0.000000e+000  0.000000e+000  8.000000e+000
      vertex  3.061467e+000  3.000000e+001  7.391036e+000
      vertex  0.000000e+000  3.000000e+001  8.000000e+000
    endloop
  endfacet
endsolid CATIA STL
